<svg width="60" height="81" viewBox="0 0 60 81" fill="none" xmlns="http://www.w3.org/2000/svg">
<ellipse rx="7" ry="2" transform="matrix(-1 0 0 1 30 79)" fill="black" fill-opacity="0.15"/>
<path d="M60 30.2953C60 47.0269 37.8082 60.6484 30 73.9286C20.9589 59.8184 0 47.0269 0 30.2953C0 13.5637 13.4315 0 30 0C46.5685 0 60 13.5637 60 30.2953Z" fill="white"/>
<path d="M36 36H24.0938V33.4219L29.5781 27.6562C30.9297 26.1172 31.6055 24.8945 31.6055 23.9883C31.6055 23.2539 31.4453 22.6953 31.125 22.3125C30.8047 21.9297 30.3398 21.7383 29.7305 21.7383C29.1289 21.7383 28.6406 21.9961 28.2656 22.5117C27.8906 23.0195 27.7031 23.6562 27.7031 24.4219H23.7422C23.7422 23.375 24.0039 22.4102 24.5273 21.5273C25.0508 20.6367 25.7773 19.9414 26.707 19.4414C27.6367 18.9414 28.6758 18.6914 29.8242 18.6914C31.668 18.6914 33.0859 19.1172 34.0781 19.9688C35.0781 20.8203 35.5781 22.043 35.5781 23.6367C35.5781 24.3086 35.4531 24.9648 35.2031 25.6055C34.9531 26.2383 34.5625 26.9062 34.0312 27.6094C33.5078 28.3047 32.6602 29.2383 31.4883 30.4102L29.2852 32.9531H36V36ZM20.4902 46.8633C20.8848 46.4219 21.1484 46.0039 21.2812 45.6094C21.418 45.2109 21.5 44.7031 21.5273 44.0859L21.6094 41.6602H26.0098V46.8633H26.8887V49.8867H25.4707V48H21.4043V49.8867H19.9629L19.9688 46.8633H20.4902ZM22.1602 46.8633H24.5918V42.8848H22.9922L22.9512 44.0977C22.8965 45.2617 22.6328 46.1836 22.1602 46.8633ZM30.6973 48.1172C29.7949 48.1172 29.0625 47.834 28.5 47.2676C27.9414 46.6973 27.6621 45.9395 27.6621 44.9941V44.8184C27.6621 44.1855 27.7832 43.6211 28.0254 43.125C28.2715 42.625 28.6152 42.2363 29.0566 41.959C29.498 41.6816 29.9902 41.543 30.5332 41.543C31.3965 41.543 32.0625 41.8184 32.5312 42.3691C33.0039 42.9199 33.2402 43.6992 33.2402 44.707V45.2812H29.0977C29.1406 45.8047 29.3145 46.2188 29.6191 46.5234C29.9277 46.8281 30.3145 46.9805 30.7793 46.9805C31.4316 46.9805 31.9629 46.7168 32.373 46.1895L33.1406 46.9219C32.8867 47.3008 32.5469 47.5957 32.1211 47.8066C31.6992 48.0137 31.2246 48.1172 30.6973 48.1172ZM30.5273 42.6855C30.1367 42.6855 29.8203 42.8223 29.5781 43.0957C29.3398 43.3691 29.1875 43.75 29.1211 44.2383H31.834V44.1328C31.8027 43.6562 31.6758 43.2969 31.4531 43.0547C31.2305 42.8086 30.9219 42.6855 30.5273 42.6855ZM36.6035 45.4922H35.8828V48H34.459V41.6602H35.8828V44.1914H36.5098L38.2617 41.6602H40.0195L37.7285 44.6953L40.2129 48H38.3613L36.6035 45.4922Z" fill="black" fill-opacity="0.8"/>
</svg>
