<svg width="60" height="81" viewBox="0 0 60 81" fill="none" xmlns="http://www.w3.org/2000/svg">
<ellipse rx="7" ry="2" transform="matrix(-1 0 0 1 30 79)" fill="black" fill-opacity="0.15"/>
<path d="M59.5 30.2953C59.5 38.4498 54.0855 45.9093 47.5586 53.0694C45.7044 55.1034 43.7884 57.0849 41.892 59.046C40.4431 60.5444 39.0057 62.031 37.616 63.5201C34.6486 66.6998 31.942 69.8482 29.9836 72.9907C27.755 69.6568 24.901 66.4028 21.8627 63.1687C20.5893 61.8132 19.2874 60.4651 17.9837 59.1151C15.9539 57.0133 13.9195 54.9067 11.9807 52.7599C5.61356 45.7098 0.5 38.4549 0.5 30.2953C0.5 13.8352 13.7122 0.5 30 0.5C46.2878 0.5 59.5 13.8352 59.5 30.2953Z" fill="white" stroke="#E0E0E0"/>
<path d="M20.7539 25.8164H22.6172C24.0938 25.8164 24.832 25.0938 24.832 23.6484C24.832 23.0859 24.6562 22.6289 24.3047 22.2773C23.9531 21.918 23.457 21.7383 22.8164 21.7383C22.293 21.7383 21.8359 21.8906 21.4453 22.1953C21.0625 22.5 20.8711 22.8789 20.8711 23.332H16.9219C16.9219 22.4336 17.1719 21.6328 17.6719 20.9297C18.1719 20.2266 18.8633 19.6797 19.7461 19.2891C20.6367 18.8906 21.6133 18.6914 22.6758 18.6914C24.5742 18.6914 26.0664 19.125 27.1523 19.9922C28.2383 20.8594 28.7812 22.0508 28.7812 23.5664C28.7812 24.3008 28.5547 24.9961 28.1016 25.6523C27.6562 26.3008 27.0039 26.8281 26.1445 27.2344C27.0508 27.5625 27.7617 28.0625 28.2773 28.7344C28.793 29.3984 29.0508 30.2227 29.0508 31.207C29.0508 32.7305 28.4648 33.9492 27.293 34.8633C26.1211 35.7773 24.582 36.2344 22.6758 36.2344C21.5586 36.2344 20.5195 36.0234 19.5586 35.6016C18.6055 35.1719 17.8828 34.582 17.3906 33.832C16.8984 33.0742 16.6523 32.2148 16.6523 31.2539H20.625C20.625 31.7773 20.8359 32.2305 21.2578 32.6133C21.6797 32.9961 22.1992 33.1875 22.8164 33.1875C23.5117 33.1875 24.0664 32.9961 24.4805 32.6133C24.8945 32.2227 25.1016 31.7266 25.1016 31.125C25.1016 30.2656 24.8867 29.6562 24.457 29.2969C24.0273 28.9375 23.4336 28.7578 22.6758 28.7578H20.7539V25.8164ZM42.8906 29.0273C42.8906 31.332 42.3711 33.1094 41.332 34.3594C40.3008 35.6094 38.8438 36.2344 36.9609 36.2344C35.0625 36.2344 33.5938 35.6055 32.5547 34.3477C31.5156 33.0898 30.9961 31.3164 30.9961 29.0273V25.9102C30.9961 23.6055 31.5117 21.8281 32.543 20.5781C33.582 19.3281 35.0469 18.7031 36.9375 18.7031C38.8281 18.7031 40.293 19.332 41.332 20.5898C42.3711 21.8477 42.8906 23.625 42.8906 25.9219V29.0273ZM38.9414 25.4062C38.9414 24.1797 38.7812 23.2656 38.4609 22.6641C38.1406 22.0547 37.6328 21.75 36.9375 21.75C36.2578 21.75 35.7617 22.0312 35.4492 22.5938C35.1445 23.1562 34.9805 24.0078 34.957 25.1484V29.5078C34.957 30.7812 35.1172 31.7148 35.4375 32.3086C35.7578 32.8945 36.2656 33.1875 36.9609 33.1875C37.6328 33.1875 38.1289 32.9023 38.4492 32.332C38.7695 31.7539 38.9336 30.8516 38.9414 29.625V25.4062ZM25.9102 48H24.4863V45.4395H22.0195V48H20.5957V41.6602H22.0195V44.3027H24.4863V41.6602H25.9102V48ZM27.1641 44.7715C27.1641 44.1504 27.2871 43.5918 27.5332 43.0957C27.7793 42.5957 28.125 42.2129 28.5703 41.9473C29.0156 41.6777 29.5273 41.543 30.1055 41.543C30.9609 41.543 31.6543 41.8184 32.1855 42.3691C32.7207 42.9199 33.0098 43.6504 33.0527 44.5605L33.0586 44.8945C33.0586 45.5195 32.9375 46.0781 32.6953 46.5703C32.457 47.0625 32.1133 47.4434 31.6641 47.7129C31.2188 47.9824 30.7031 48.1172 30.1172 48.1172C29.2227 48.1172 28.5059 47.8203 27.9668 47.2266C27.4316 46.6289 27.1641 45.834 27.1641 44.8418V44.7715ZM28.5879 44.8945C28.5879 45.5469 28.7227 46.0586 28.9922 46.4297C29.2617 46.7969 29.6367 46.9805 30.1172 46.9805C30.5977 46.9805 30.9707 46.793 31.2363 46.418C31.5059 46.043 31.6406 45.4941 31.6406 44.7715C31.6406 44.1309 31.502 43.623 31.2246 43.248C30.9512 42.873 30.5781 42.6855 30.1055 42.6855C29.6406 42.6855 29.2715 42.8711 28.998 43.2422C28.7246 43.6094 28.5879 44.1602 28.5879 44.8945ZM39.3398 41.6602V48H37.9219V45.6738H36.5918L35.2383 48H33.7617L35.2559 45.4395C34.8652 45.2754 34.5645 45.041 34.3535 44.7363C34.1465 44.4316 34.043 44.082 34.043 43.6875C34.043 43.0977 34.2695 42.6152 34.7227 42.2402C35.1797 41.8613 35.7949 41.668 36.5684 41.6602H39.3398ZM35.4668 43.7227C35.4668 43.9883 35.5645 44.2051 35.7598 44.373C35.959 44.5371 36.2129 44.6191 36.5215 44.6191H37.9219V42.791H36.6094C36.2617 42.791 35.9844 42.8789 35.7773 43.0547C35.5703 43.2305 35.4668 43.4531 35.4668 43.7227Z" fill="#EB1C24"/>
</svg>
