<svg width="62" height="82" viewBox="0 0 62 82" fill="none" xmlns="http://www.w3.org/2000/svg">
<ellipse rx="7" ry="2" transform="matrix(-1 0 0 1 31 80)" fill="black" fill-opacity="0.15"/>
<path d="M30.579 75.1983L31.0183 75.8839L31.431 75.182C33.3538 71.9118 36.173 68.6036 39.3471 65.2023C40.7045 63.7478 42.1363 62.2668 43.5866 60.7665C45.5005 58.7867 47.4469 56.7733 49.2976 54.7431C55.8186 47.5895 61.5 39.8725 61.5 31.2953C61.5 14.2922 47.8493 0.5 31 0.5C14.1507 0.5 0.5 14.2922 0.5 31.2953C0.5 39.8673 5.86589 47.374 12.2385 54.4301C14.184 56.5843 16.2442 58.7179 18.2861 60.8325C19.5876 62.1804 20.8817 63.5205 22.1339 64.8534C25.3656 68.2934 28.3446 71.7111 30.579 75.1983Z" fill="white" stroke="#E0E0E0"/>
<path d="M36.6016 24.4961C36.6016 25.3242 36.3945 26.0547 35.9805 26.6875C35.5742 27.3203 35.0117 27.8281 34.293 28.2109C35.1055 28.6094 35.75 29.1562 36.2266 29.8516C36.7031 30.5391 36.9414 31.3555 36.9414 32.3008C36.9414 33.8242 36.4141 35.0273 35.3594 35.9102C34.3125 36.793 32.8672 37.2344 31.0234 37.2344C29.1719 37.2344 27.7109 36.793 26.6406 35.9102C25.5703 35.0195 25.0352 33.8164 25.0352 32.3008C25.0352 31.3867 25.2695 30.5781 25.7383 29.875C26.207 29.1719 26.8711 28.6172 27.7305 28.2109C27.0039 27.8281 26.4336 27.3203 26.0195 26.6875C25.6055 26.0547 25.3984 25.3242 25.3984 24.4961C25.3984 23.0117 25.9023 21.8398 26.9102 20.9805C27.918 20.1211 29.2773 19.6914 30.9883 19.6914C32.7148 19.6914 34.082 20.1211 35.0898 20.9805C36.0977 21.8398 36.6016 23.0117 36.6016 24.4961ZM32.9805 31.9844C32.9805 31.2812 32.7969 30.7422 32.4297 30.3672C32.0703 29.9844 31.5938 29.793 31 29.793C30.4062 29.793 29.9258 29.9844 29.5586 30.3672C29.1914 30.7422 29.0078 31.2812 29.0078 31.9844C29.0078 32.6641 29.1914 33.2031 29.5586 33.6016C29.9336 33.9922 30.4219 34.1875 31.0234 34.1875C31.6094 34.1875 32.082 33.9922 32.4414 33.6016C32.8008 33.2109 32.9805 32.6719 32.9805 31.9844ZM30.9883 22.7383C30.457 22.7383 30.0508 22.9141 29.7695 23.2656C29.4961 23.6094 29.3594 24.0898 29.3594 24.707C29.3594 25.3164 29.5 25.8086 29.7812 26.1836C30.0625 26.5586 30.4766 26.7461 31.0234 26.7461C31.5625 26.7461 31.9648 26.5586 32.2305 26.1836C32.5039 25.8086 32.6406 25.3164 32.6406 24.707C32.6406 24.0977 32.5 23.6172 32.2188 23.2656C31.9453 22.9141 31.5352 22.7383 30.9883 22.7383ZM21.4902 47.8633C21.8848 47.4219 22.1484 47.0039 22.2812 46.6094C22.418 46.2109 22.5 45.7031 22.5273 45.0859L22.6094 42.6602H27.0098V47.8633H27.8887V50.8867H26.4707V49H22.4043V50.8867H20.9629L20.9688 47.8633H21.4902ZM23.1602 47.8633H25.5918V43.8848H23.9922L23.9512 45.0977C23.8965 46.2617 23.6328 47.1836 23.1602 47.8633ZM31.6973 49.1172C30.7949 49.1172 30.0625 48.834 29.5 48.2676C28.9414 47.6973 28.6621 46.9395 28.6621 45.9941V45.8184C28.6621 45.1855 28.7832 44.6211 29.0254 44.125C29.2715 43.625 29.6152 43.2363 30.0566 42.959C30.498 42.6816 30.9902 42.543 31.5332 42.543C32.3965 42.543 33.0625 42.8184 33.5312 43.3691C34.0039 43.9199 34.2402 44.6992 34.2402 45.707V46.2812H30.0977C30.1406 46.8047 30.3145 47.2188 30.6191 47.5234C30.9277 47.8281 31.3145 47.9805 31.7793 47.9805C32.4316 47.9805 32.9629 47.7168 33.373 47.1895L34.1406 47.9219C33.8867 48.3008 33.5469 48.5957 33.1211 48.8066C32.6992 49.0137 32.2246 49.1172 31.6973 49.1172ZM31.5273 43.6855C31.1367 43.6855 30.8203 43.8223 30.5781 44.0957C30.3398 44.3691 30.1875 44.75 30.1211 45.2383H32.834V45.1328C32.8027 44.6562 32.6758 44.2969 32.4531 44.0547C32.2305 43.8086 31.9219 43.6855 31.5273 43.6855ZM37.6035 46.4922H36.8828V49H35.459V42.6602H36.8828V45.1914H37.5098L39.2617 42.6602H41.0195L38.7285 45.6953L41.2129 49H39.3613L37.6035 46.4922Z" fill="black" fill-opacity="0.3"/>
</svg>
