<svg width="790" height="388" viewBox="0 0 790 388" fill="none" xmlns="http://www.w3.org/2000/svg">
<ellipse rx="7" ry="2" transform="matrix(-1 0 0 1 596 386)" fill="black" fill-opacity="0.15"/>
<path d="M626 337.295C626 354.027 603.808 367.648 596 380.929C586.959 366.818 566 354.027 566 337.295C566 320.564 579.431 307 596 307C612.569 307 626 320.564 626 337.295Z" fill="white"/>
<path d="M602 343H590.094V340.422L595.578 334.656C596.93 333.117 597.605 331.895 597.605 330.988C597.605 330.254 597.445 329.695 597.125 329.312C596.805 328.93 596.34 328.738 595.73 328.738C595.129 328.738 594.641 328.996 594.266 329.512C593.891 330.02 593.703 330.656 593.703 331.422H589.742C589.742 330.375 590.004 329.41 590.527 328.527C591.051 327.637 591.777 326.941 592.707 326.441C593.637 325.941 594.676 325.691 595.824 325.691C597.668 325.691 599.086 326.117 600.078 326.969C601.078 327.82 601.578 329.043 601.578 330.637C601.578 331.309 601.453 331.965 601.203 332.605C600.953 333.238 600.562 333.906 600.031 334.609C599.508 335.305 598.66 336.238 597.488 337.41L595.285 339.953H602V343ZM586.49 353.863C586.885 353.422 587.148 353.004 587.281 352.609C587.418 352.211 587.5 351.703 587.527 351.086L587.609 348.66H592.01V353.863H592.889V356.887H591.471V355H587.404V356.887H585.963L585.969 353.863H586.49ZM588.16 353.863H590.592V349.885H588.992L588.951 351.098C588.896 352.262 588.633 353.184 588.16 353.863ZM596.697 355.117C595.795 355.117 595.062 354.834 594.5 354.268C593.941 353.697 593.662 352.939 593.662 351.994V351.818C593.662 351.186 593.783 350.621 594.025 350.125C594.271 349.625 594.615 349.236 595.057 348.959C595.498 348.682 595.99 348.543 596.533 348.543C597.396 348.543 598.062 348.818 598.531 349.369C599.004 349.92 599.24 350.699 599.24 351.707V352.281H595.098C595.141 352.805 595.314 353.219 595.619 353.523C595.928 353.828 596.314 353.98 596.779 353.98C597.432 353.98 597.963 353.717 598.373 353.189L599.141 353.922C598.887 354.301 598.547 354.596 598.121 354.807C597.699 355.014 597.225 355.117 596.697 355.117ZM596.527 349.686C596.137 349.686 595.82 349.822 595.578 350.096C595.34 350.369 595.188 350.75 595.121 351.238H597.834V351.133C597.803 350.656 597.676 350.297 597.453 350.055C597.23 349.809 596.922 349.686 596.527 349.686ZM602.604 352.492H601.883V355H600.459V348.66H601.883V351.191H602.51L604.262 348.66H606.02L603.729 351.695L606.213 355H604.361L602.604 352.492Z" fill="black" fill-opacity="0.8"/>
<ellipse rx="7" ry="2" transform="matrix(-1 0 0 1 31 80)" fill="black" fill-opacity="0.15"/>
<path d="M30.579 75.1983L31.0183 75.8839L31.431 75.182C33.3538 71.9118 36.173 68.6036 39.3471 65.2023C40.7045 63.7478 42.1363 62.2668 43.5866 60.7665C45.5005 58.7867 47.4469 56.7733 49.2976 54.7431C55.8186 47.5895 61.5 39.8725 61.5 31.2953C61.5 14.2922 47.8493 0.5 31 0.5C14.1507 0.5 0.5 14.2922 0.5 31.2953C0.5 39.8673 5.86589 47.374 12.2385 54.4301C14.184 56.5843 16.2442 58.7179 18.2861 60.8325C19.5876 62.1804 20.8817 63.5205 22.1339 64.8534C25.3656 68.2934 28.3446 71.7111 30.579 75.1983Z" fill="white" stroke="#E0E0E0"/>
<path d="M36.6016 24.4961C36.6016 25.3242 36.3945 26.0547 35.9805 26.6875C35.5742 27.3203 35.0117 27.8281 34.293 28.2109C35.1055 28.6094 35.75 29.1562 36.2266 29.8516C36.7031 30.5391 36.9414 31.3555 36.9414 32.3008C36.9414 33.8242 36.4141 35.0273 35.3594 35.9102C34.3125 36.793 32.8672 37.2344 31.0234 37.2344C29.1719 37.2344 27.7109 36.793 26.6406 35.9102C25.5703 35.0195 25.0352 33.8164 25.0352 32.3008C25.0352 31.3867 25.2695 30.5781 25.7383 29.875C26.207 29.1719 26.8711 28.6172 27.7305 28.2109C27.0039 27.8281 26.4336 27.3203 26.0195 26.6875C25.6055 26.0547 25.3984 25.3242 25.3984 24.4961C25.3984 23.0117 25.9023 21.8398 26.9102 20.9805C27.918 20.1211 29.2773 19.6914 30.9883 19.6914C32.7148 19.6914 34.082 20.1211 35.0898 20.9805C36.0977 21.8398 36.6016 23.0117 36.6016 24.4961ZM32.9805 31.9844C32.9805 31.2812 32.7969 30.7422 32.4297 30.3672C32.0703 29.9844 31.5938 29.793 31 29.793C30.4062 29.793 29.9258 29.9844 29.5586 30.3672C29.1914 30.7422 29.0078 31.2812 29.0078 31.9844C29.0078 32.6641 29.1914 33.2031 29.5586 33.6016C29.9336 33.9922 30.4219 34.1875 31.0234 34.1875C31.6094 34.1875 32.082 33.9922 32.4414 33.6016C32.8008 33.2109 32.9805 32.6719 32.9805 31.9844ZM30.9883 22.7383C30.457 22.7383 30.0508 22.9141 29.7695 23.2656C29.4961 23.6094 29.3594 24.0898 29.3594 24.707C29.3594 25.3164 29.5 25.8086 29.7812 26.1836C30.0625 26.5586 30.4766 26.7461 31.0234 26.7461C31.5625 26.7461 31.9648 26.5586 32.2305 26.1836C32.5039 25.8086 32.6406 25.3164 32.6406 24.707C32.6406 24.0977 32.5 23.6172 32.2188 23.2656C31.9453 22.9141 31.5352 22.7383 30.9883 22.7383ZM21.4902 47.8633C21.8848 47.4219 22.1484 47.0039 22.2812 46.6094C22.418 46.2109 22.5 45.7031 22.5273 45.0859L22.6094 42.6602H27.0098V47.8633H27.8887V50.8867H26.4707V49H22.4043V50.8867H20.9629L20.9688 47.8633H21.4902ZM23.1602 47.8633H25.5918V43.8848H23.9922L23.9512 45.0977C23.8965 46.2617 23.6328 47.1836 23.1602 47.8633ZM31.6973 49.1172C30.7949 49.1172 30.0625 48.834 29.5 48.2676C28.9414 47.6973 28.6621 46.9395 28.6621 45.9941V45.8184C28.6621 45.1855 28.7832 44.6211 29.0254 44.125C29.2715 43.625 29.6152 43.2363 30.0566 42.959C30.498 42.6816 30.9902 42.543 31.5332 42.543C32.3965 42.543 33.0625 42.8184 33.5312 43.3691C34.0039 43.9199 34.2402 44.6992 34.2402 45.707V46.2812H30.0977C30.1406 46.8047 30.3145 47.2188 30.6191 47.5234C30.9277 47.8281 31.3145 47.9805 31.7793 47.9805C32.4316 47.9805 32.9629 47.7168 33.373 47.1895L34.1406 47.9219C33.8867 48.3008 33.5469 48.5957 33.1211 48.8066C32.6992 49.0137 32.2246 49.1172 31.6973 49.1172ZM31.5273 43.6855C31.1367 43.6855 30.8203 43.8223 30.5781 44.0957C30.3398 44.3691 30.1875 44.75 30.1211 45.2383H32.834V45.1328C32.8027 44.6562 32.6758 44.2969 32.4531 44.0547C32.2305 43.8086 31.9219 43.6855 31.5273 43.6855ZM37.6035 46.4922H36.8828V49H35.459V42.6602H36.8828V45.1914H37.5098L39.2617 42.6602H41.0195L38.7285 45.6953L41.2129 49H39.3613L37.6035 46.4922Z" fill="black" fill-opacity="0.3"/>
<ellipse rx="7" ry="2" transform="matrix(-1 0 0 1 216 175)" fill="black" fill-opacity="0.15"/>
<path d="M215.579 170.198L216.018 170.884L216.431 170.182C218.354 166.912 221.173 163.604 224.347 160.202C225.705 158.748 227.136 157.267 228.587 155.766C230.501 153.787 232.447 151.773 234.298 149.743C240.819 142.589 246.5 134.872 246.5 126.295C246.5 109.292 232.849 95.5 216 95.5C199.151 95.5 185.5 109.292 185.5 126.295C185.5 134.867 190.866 142.374 197.239 149.43C199.184 151.584 201.244 153.718 203.286 155.832C204.588 157.18 205.882 158.521 207.134 159.853C210.366 163.293 213.345 166.711 215.579 170.198Z" fill="white" stroke="#E0E0E0"/>
<path d="M221.953 117.047L215.578 132H211.406L217.793 117.984H209.66V114.938H221.953V117.047ZM206.49 142.863C206.885 142.422 207.148 142.004 207.281 141.609C207.418 141.211 207.5 140.703 207.527 140.086L207.609 137.66H212.01V142.863H212.889V145.887H211.471V144H207.404V145.887H205.963L205.969 142.863H206.49ZM208.16 142.863H210.592V138.885H208.992L208.951 140.098C208.896 141.262 208.633 142.184 208.16 142.863ZM216.697 144.117C215.795 144.117 215.062 143.834 214.5 143.268C213.941 142.697 213.662 141.939 213.662 140.994V140.818C213.662 140.186 213.783 139.621 214.025 139.125C214.271 138.625 214.615 138.236 215.057 137.959C215.498 137.682 215.99 137.543 216.533 137.543C217.396 137.543 218.062 137.818 218.531 138.369C219.004 138.92 219.24 139.699 219.24 140.707V141.281H215.098C215.141 141.805 215.314 142.219 215.619 142.523C215.928 142.828 216.314 142.98 216.779 142.98C217.432 142.98 217.963 142.717 218.373 142.189L219.141 142.922C218.887 143.301 218.547 143.596 218.121 143.807C217.699 144.014 217.225 144.117 216.697 144.117ZM216.527 138.686C216.137 138.686 215.82 138.822 215.578 139.096C215.34 139.369 215.188 139.75 215.121 140.238H217.834V140.133C217.803 139.656 217.676 139.297 217.453 139.055C217.23 138.809 216.922 138.686 216.527 138.686ZM222.604 141.492H221.883V144H220.459V137.66H221.883V140.191H222.51L224.262 137.66H226.02L223.729 140.695L226.213 144H224.361L222.604 141.492Z" fill="black" fill-opacity="0.3"/>
<ellipse rx="7" ry="2" transform="matrix(-1 0 0 1 174 279)" fill="black" fill-opacity="0.15"/>
<path d="M173.579 274.198L174.018 274.884L174.431 274.182C176.354 270.912 179.173 267.604 182.347 264.202C183.705 262.748 185.136 261.267 186.587 259.766C188.501 257.787 190.447 255.773 192.298 253.743C198.819 246.589 204.5 238.872 204.5 230.295C204.5 213.292 190.849 199.5 174 199.5C157.151 199.5 143.5 213.292 143.5 230.295C143.5 238.867 148.866 246.374 155.239 253.43C157.184 255.584 159.244 257.718 161.286 259.832C162.588 261.18 163.882 262.521 165.134 263.853C168.366 267.293 171.345 270.711 173.579 274.198Z" fill="white" stroke="#E0E0E0"/>
<path d="M177.633 218.691V221.797H177.457C175.98 221.797 174.766 222.152 173.812 222.863C172.867 223.566 172.285 224.547 172.066 225.805C172.957 224.93 174.082 224.492 175.441 224.492C176.918 224.492 178.094 225.031 178.969 226.109C179.844 227.188 180.281 228.602 180.281 230.352C180.281 231.438 180.023 232.434 179.508 233.34C179 234.246 178.285 234.957 177.363 235.473C176.449 235.98 175.434 236.234 174.316 236.234C173.105 236.234 172.023 235.961 171.07 235.414C170.117 234.859 169.375 234.07 168.844 233.047C168.312 232.023 168.039 230.844 168.023 229.508V227.926C168.023 226.168 168.398 224.59 169.148 223.191C169.906 221.785 170.984 220.684 172.383 219.887C173.781 219.09 175.332 218.691 177.035 218.691H177.633ZM174.07 227.516C173.547 227.516 173.109 227.637 172.758 227.879C172.406 228.121 172.145 228.418 171.973 228.77V229.953C171.973 232.109 172.719 233.188 174.211 233.188C174.812 233.188 175.312 232.918 175.711 232.379C176.117 231.84 176.32 231.164 176.32 230.352C176.32 229.516 176.113 228.836 175.699 228.312C175.293 227.781 174.75 227.516 174.07 227.516ZM164.49 246.863C164.885 246.422 165.148 246.004 165.281 245.609C165.418 245.211 165.5 244.703 165.527 244.086L165.609 241.66H170.01V246.863H170.889V249.887H169.471V248H165.404V249.887H163.963L163.969 246.863H164.49ZM166.16 246.863H168.592V242.885H166.992L166.951 244.098C166.896 245.262 166.633 246.184 166.16 246.863ZM174.697 248.117C173.795 248.117 173.062 247.834 172.5 247.268C171.941 246.697 171.662 245.939 171.662 244.994V244.818C171.662 244.186 171.783 243.621 172.025 243.125C172.271 242.625 172.615 242.236 173.057 241.959C173.498 241.682 173.99 241.543 174.533 241.543C175.396 241.543 176.062 241.818 176.531 242.369C177.004 242.92 177.24 243.699 177.24 244.707V245.281H173.098C173.141 245.805 173.314 246.219 173.619 246.523C173.928 246.828 174.314 246.98 174.779 246.98C175.432 246.98 175.963 246.717 176.373 246.189L177.141 246.922C176.887 247.301 176.547 247.596 176.121 247.807C175.699 248.014 175.225 248.117 174.697 248.117ZM174.527 242.686C174.137 242.686 173.82 242.822 173.578 243.096C173.34 243.369 173.188 243.75 173.121 244.238H175.834V244.133C175.803 243.656 175.676 243.297 175.453 243.055C175.23 242.809 174.922 242.686 174.527 242.686ZM180.604 245.492H179.883V248H178.459V241.66H179.883V244.191H180.51L182.262 241.66H184.02L181.729 244.695L184.213 248H182.361L180.604 245.492Z" fill="black" fill-opacity="0.3"/>
<ellipse rx="7" ry="2" transform="matrix(-1 0 0 1 396 222)" fill="black" fill-opacity="0.15"/>
<path d="M395.579 217.198L396.018 217.884L396.431 217.182C398.354 213.912 401.173 210.604 404.347 207.202C405.705 205.748 407.136 204.267 408.587 202.766C410.501 200.787 412.447 198.773 414.298 196.743C420.819 189.589 426.5 181.872 426.5 173.295C426.5 156.292 412.849 142.5 396 142.5C379.151 142.5 365.5 156.292 365.5 173.295C365.5 181.867 370.866 189.374 377.239 196.43C379.184 198.584 381.244 200.718 383.286 202.832C384.588 204.18 385.882 205.521 387.134 206.853C390.366 210.293 393.345 213.711 395.579 217.198Z" fill="white" stroke="#E0E0E0"/>
<path d="M390.328 170.656L391.371 161.938H401.344V165.008H394.582L394.195 168.395C394.477 168.23 394.844 168.086 395.297 167.961C395.758 167.836 396.207 167.773 396.645 167.773C398.34 167.773 399.641 168.277 400.547 169.285C401.461 170.285 401.918 171.691 401.918 173.504C401.918 174.598 401.672 175.59 401.18 176.48C400.695 177.363 400.012 178.043 399.129 178.52C398.246 178.996 397.203 179.234 396 179.234C394.93 179.234 393.926 179.016 392.988 178.578C392.051 178.133 391.316 177.527 390.785 176.762C390.254 175.988 389.992 175.117 390 174.148H393.961C394 174.773 394.199 175.27 394.559 175.637C394.918 176.004 395.391 176.188 395.977 176.188C397.305 176.188 397.969 175.203 397.969 173.234C397.969 171.414 397.156 170.504 395.531 170.504C394.609 170.504 393.922 170.801 393.469 171.395L390.328 170.656ZM386.49 189.863C386.885 189.422 387.148 189.004 387.281 188.609C387.418 188.211 387.5 187.703 387.527 187.086L387.609 184.66H392.01V189.863H392.889V192.887H391.471V191H387.404V192.887H385.963L385.969 189.863H386.49ZM388.16 189.863H390.592V185.885H388.992L388.951 187.098C388.896 188.262 388.633 189.184 388.16 189.863ZM396.697 191.117C395.795 191.117 395.062 190.834 394.5 190.268C393.941 189.697 393.662 188.939 393.662 187.994V187.818C393.662 187.186 393.783 186.621 394.025 186.125C394.271 185.625 394.615 185.236 395.057 184.959C395.498 184.682 395.99 184.543 396.533 184.543C397.396 184.543 398.062 184.818 398.531 185.369C399.004 185.92 399.24 186.699 399.24 187.707V188.281H395.098C395.141 188.805 395.314 189.219 395.619 189.523C395.928 189.828 396.314 189.98 396.779 189.98C397.432 189.98 397.963 189.717 398.373 189.189L399.141 189.922C398.887 190.301 398.547 190.596 398.121 190.807C397.699 191.014 397.225 191.117 396.697 191.117ZM396.527 185.686C396.137 185.686 395.82 185.822 395.578 186.096C395.34 186.369 395.188 186.75 395.121 187.238H397.834V187.133C397.803 186.656 397.676 186.297 397.453 186.055C397.23 185.809 396.922 185.686 396.527 185.686ZM402.604 188.492H401.883V191H400.459V184.66H401.883V187.191H402.51L404.262 184.66H406.02L403.729 187.695L406.213 191H404.361L402.604 188.492Z" fill="black" fill-opacity="0.3"/>
<ellipse rx="7" ry="2" transform="matrix(-1 0 0 1 353 336)" fill="black" fill-opacity="0.15"/>
<path d="M352.579 331.198L353.018 331.884L353.431 331.182C355.354 327.912 358.173 324.604 361.347 321.202C362.705 319.748 364.136 318.267 365.587 316.766C367.501 314.787 369.447 312.773 371.298 310.743C377.819 303.589 383.5 295.872 383.5 287.295C383.5 270.292 369.849 256.5 353 256.5C336.151 256.5 322.5 270.292 322.5 287.295C322.5 295.867 327.866 303.374 334.239 310.43C336.184 312.584 338.244 314.718 340.286 316.832C341.588 318.18 342.882 319.521 344.134 320.853C347.366 324.293 350.345 327.711 352.579 331.198Z" fill="white" stroke="#E0E0E0"/>
<path d="M357.523 286.332H359.258V289.379H357.523V293H353.574V289.379H346.977L346.742 286.965L353.574 275.973V275.938H357.523V286.332ZM350.504 286.332H353.574V281.082L353.328 281.48L350.504 286.332ZM343.49 303.863C343.885 303.422 344.148 303.004 344.281 302.609C344.418 302.211 344.5 301.703 344.527 301.086L344.609 298.66H349.01V303.863H349.889V306.887H348.471V305H344.404V306.887H342.963L342.969 303.863H343.49ZM345.16 303.863H347.592V299.885H345.992L345.951 301.098C345.896 302.262 345.633 303.184 345.16 303.863ZM353.697 305.117C352.795 305.117 352.062 304.834 351.5 304.268C350.941 303.697 350.662 302.939 350.662 301.994V301.818C350.662 301.186 350.783 300.621 351.025 300.125C351.271 299.625 351.615 299.236 352.057 298.959C352.498 298.682 352.99 298.543 353.533 298.543C354.396 298.543 355.062 298.818 355.531 299.369C356.004 299.92 356.24 300.699 356.24 301.707V302.281H352.098C352.141 302.805 352.314 303.219 352.619 303.523C352.928 303.828 353.314 303.98 353.779 303.98C354.432 303.98 354.963 303.717 355.373 303.189L356.141 303.922C355.887 304.301 355.547 304.596 355.121 304.807C354.699 305.014 354.225 305.117 353.697 305.117ZM353.527 299.686C353.137 299.686 352.82 299.822 352.578 300.096C352.34 300.369 352.188 300.75 352.121 301.238H354.834V301.133C354.803 300.656 354.676 300.297 354.453 300.055C354.23 299.809 353.922 299.686 353.527 299.686ZM359.604 302.492H358.883V305H357.459V298.66H358.883V301.191H359.51L361.262 298.66H363.02L360.729 301.695L363.213 305H361.361L359.604 302.492Z" fill="black" fill-opacity="0.3"/>
<ellipse rx="7" ry="2" transform="matrix(-1 0 0 1 527 258)" fill="black" fill-opacity="0.15"/>
<path d="M526.579 253.198L527.018 253.884L527.431 253.182C529.354 249.912 532.173 246.604 535.347 243.202C536.705 241.748 538.136 240.267 539.587 238.766C541.501 236.787 543.447 234.773 545.298 232.743C551.819 225.589 557.5 217.872 557.5 209.295C557.5 192.292 543.849 178.5 527 178.5C510.151 178.5 496.5 192.292 496.5 209.295C496.5 217.867 501.866 225.374 508.239 232.43C510.184 234.584 512.244 236.718 514.286 238.832C515.588 240.18 516.882 241.521 518.134 242.853C521.366 246.293 524.345 249.711 526.579 253.198Z" fill="white" stroke="#E0E0E0"/>
<path d="M524.703 204.816H526.566C528.043 204.816 528.781 204.094 528.781 202.648C528.781 202.086 528.605 201.629 528.254 201.277C527.902 200.918 527.406 200.738 526.766 200.738C526.242 200.738 525.785 200.891 525.395 201.195C525.012 201.5 524.82 201.879 524.82 202.332H520.871C520.871 201.434 521.121 200.633 521.621 199.93C522.121 199.227 522.812 198.68 523.695 198.289C524.586 197.891 525.562 197.691 526.625 197.691C528.523 197.691 530.016 198.125 531.102 198.992C532.188 199.859 532.73 201.051 532.73 202.566C532.73 203.301 532.504 203.996 532.051 204.652C531.605 205.301 530.953 205.828 530.094 206.234C531 206.562 531.711 207.062 532.227 207.734C532.742 208.398 533 209.223 533 210.207C533 211.73 532.414 212.949 531.242 213.863C530.07 214.777 528.531 215.234 526.625 215.234C525.508 215.234 524.469 215.023 523.508 214.602C522.555 214.172 521.832 213.582 521.34 212.832C520.848 212.074 520.602 211.215 520.602 210.254H524.574C524.574 210.777 524.785 211.23 525.207 211.613C525.629 211.996 526.148 212.188 526.766 212.188C527.461 212.188 528.016 211.996 528.43 211.613C528.844 211.223 529.051 210.727 529.051 210.125C529.051 209.266 528.836 208.656 528.406 208.297C527.977 207.938 527.383 207.758 526.625 207.758H524.703V204.816ZM517.49 225.863C517.885 225.422 518.148 225.004 518.281 224.609C518.418 224.211 518.5 223.703 518.527 223.086L518.609 220.66H523.01V225.863H523.889V228.887H522.471V227H518.404V228.887H516.963L516.969 225.863H517.49ZM519.16 225.863H521.592V221.885H519.992L519.951 223.098C519.896 224.262 519.633 225.184 519.16 225.863ZM527.697 227.117C526.795 227.117 526.062 226.834 525.5 226.268C524.941 225.697 524.662 224.939 524.662 223.994V223.818C524.662 223.186 524.783 222.621 525.025 222.125C525.271 221.625 525.615 221.236 526.057 220.959C526.498 220.682 526.99 220.543 527.533 220.543C528.396 220.543 529.062 220.818 529.531 221.369C530.004 221.92 530.24 222.699 530.24 223.707V224.281H526.098C526.141 224.805 526.314 225.219 526.619 225.523C526.928 225.828 527.314 225.98 527.779 225.98C528.432 225.98 528.963 225.717 529.373 225.189L530.141 225.922C529.887 226.301 529.547 226.596 529.121 226.807C528.699 227.014 528.225 227.117 527.697 227.117ZM527.527 221.686C527.137 221.686 526.82 221.822 526.578 222.096C526.34 222.369 526.188 222.75 526.121 223.238H528.834V223.133C528.803 222.656 528.676 222.297 528.453 222.055C528.23 221.809 527.922 221.686 527.527 221.686ZM533.604 224.492H532.883V227H531.459V220.66H532.883V223.191H533.51L535.262 220.66H537.02L534.729 223.695L537.213 227H535.361L533.604 224.492Z" fill="black" fill-opacity="0.3"/>
<ellipse rx="7" ry="2" transform="matrix(-1 0 0 1 759 248)" fill="black" fill-opacity="0.15"/>
<path d="M758.579 243.198L759.018 243.884L759.431 243.182C761.354 239.912 764.173 236.604 767.347 233.202C768.705 231.748 770.136 230.267 771.587 228.766C773.501 226.787 775.447 224.773 777.298 222.743C783.819 215.589 789.5 207.872 789.5 199.295C789.5 182.292 775.849 168.5 759 168.5C742.151 168.5 728.5 182.292 728.5 199.295C728.5 207.867 733.866 215.374 740.239 222.43C742.184 224.584 744.244 226.718 746.286 228.832C747.588 230.18 748.882 231.521 750.134 232.853C753.366 236.293 756.345 239.711 758.579 243.198Z" fill="white" stroke="#E0E0E0"/>
<path d="M761.848 205H757.887V192.391L753.996 193.527V190.527L761.484 187.938H761.848V205ZM749.49 215.863C749.885 215.422 750.148 215.004 750.281 214.609C750.418 214.211 750.5 213.703 750.527 213.086L750.609 210.66H755.01V215.863H755.889V218.887H754.471V217H750.404V218.887H748.963L748.969 215.863H749.49ZM751.16 215.863H753.592V211.885H751.992L751.951 213.098C751.896 214.262 751.633 215.184 751.16 215.863ZM759.697 217.117C758.795 217.117 758.062 216.834 757.5 216.268C756.941 215.697 756.662 214.939 756.662 213.994V213.818C756.662 213.186 756.783 212.621 757.025 212.125C757.271 211.625 757.615 211.236 758.057 210.959C758.498 210.682 758.99 210.543 759.533 210.543C760.396 210.543 761.062 210.818 761.531 211.369C762.004 211.92 762.24 212.699 762.24 213.707V214.281H758.098C758.141 214.805 758.314 215.219 758.619 215.523C758.928 215.828 759.314 215.98 759.779 215.98C760.432 215.98 760.963 215.717 761.373 215.189L762.141 215.922C761.887 216.301 761.547 216.596 761.121 216.807C760.699 217.014 760.225 217.117 759.697 217.117ZM759.527 211.686C759.137 211.686 758.82 211.822 758.578 212.096C758.34 212.369 758.188 212.75 758.121 213.238H760.834V213.133C760.803 212.656 760.676 212.297 760.453 212.055C760.23 211.809 759.922 211.686 759.527 211.686ZM765.604 214.492H764.883V217H763.459V210.66H764.883V213.191H765.51L767.262 210.66H769.02L766.729 213.695L769.213 217H767.361L765.604 214.492Z" fill="black" fill-opacity="0.3"/>
</svg>
