<svg width="62" height="82" viewBox="0 0 62 82" fill="none" xmlns="http://www.w3.org/2000/svg">
<ellipse rx="7" ry="2" transform="matrix(-1 0 0 1 31 80)" fill="black" fill-opacity="0.15"/>
<path d="M30.579 75.1983L31.0183 75.8839L31.431 75.182C33.3538 71.9118 36.173 68.6036 39.3471 65.2023C40.7045 63.7478 42.1363 62.2668 43.5866 60.7665C45.5005 58.7867 47.4469 56.7733 49.2976 54.7431C55.8186 47.5895 61.5 39.8725 61.5 31.2953C61.5 14.2922 47.8493 0.5 31 0.5C14.1507 0.5 0.5 14.2922 0.5 31.2953C0.5 39.8673 5.86589 47.374 12.2385 54.4301C14.184 56.5843 16.2442 58.7179 18.2861 60.8325C19.5876 62.1804 20.8817 63.5205 22.1339 64.8534C25.3656 68.2934 28.3446 71.7111 30.579 75.1983Z" fill="white" stroke="#E0E0E0"/>
<path d="M34.6328 19.6914V22.7969H34.457C32.9805 22.7969 31.7656 23.1523 30.8125 23.8633C29.8672 24.5664 29.2852 25.5469 29.0664 26.8047C29.957 25.9297 31.082 25.4922 32.4414 25.4922C33.918 25.4922 35.0938 26.0312 35.9688 27.1094C36.8438 28.1875 37.2812 29.6016 37.2812 31.3516C37.2812 32.4375 37.0234 33.4336 36.5078 34.3398C36 35.2461 35.2852 35.957 34.3633 36.4727C33.4492 36.9805 32.4336 37.2344 31.3164 37.2344C30.1055 37.2344 29.0234 36.9609 28.0703 36.4141C27.1172 35.8594 26.375 35.0703 25.8438 34.0469C25.3125 33.0234 25.0391 31.8438 25.0234 30.5078V28.9258C25.0234 27.168 25.3984 25.5898 26.1484 24.1914C26.9062 22.7852 27.9844 21.6836 29.3828 20.8867C30.7812 20.0898 32.332 19.6914 34.0352 19.6914H34.6328ZM31.0703 28.5156C30.5469 28.5156 30.1094 28.6367 29.7578 28.8789C29.4062 29.1211 29.1445 29.418 28.9727 29.7695V30.9531C28.9727 33.1094 29.7188 34.1875 31.2109 34.1875C31.8125 34.1875 32.3125 33.918 32.7109 33.3789C33.1172 32.8398 33.3203 32.1641 33.3203 31.3516C33.3203 30.5156 33.1133 29.8359 32.6992 29.3125C32.293 28.7812 31.75 28.5156 31.0703 28.5156ZM21.4902 47.8633C21.8848 47.4219 22.1484 47.0039 22.2812 46.6094C22.418 46.2109 22.5 45.7031 22.5273 45.0859L22.6094 42.6602H27.0098V47.8633H27.8887V50.8867H26.4707V49H22.4043V50.8867H20.9629L20.9688 47.8633H21.4902ZM23.1602 47.8633H25.5918V43.8848H23.9922L23.9512 45.0977C23.8965 46.2617 23.6328 47.1836 23.1602 47.8633ZM31.6973 49.1172C30.7949 49.1172 30.0625 48.834 29.5 48.2676C28.9414 47.6973 28.6621 46.9395 28.6621 45.9941V45.8184C28.6621 45.1855 28.7832 44.6211 29.0254 44.125C29.2715 43.625 29.6152 43.2363 30.0566 42.959C30.498 42.6816 30.9902 42.543 31.5332 42.543C32.3965 42.543 33.0625 42.8184 33.5312 43.3691C34.0039 43.9199 34.2402 44.6992 34.2402 45.707V46.2812H30.0977C30.1406 46.8047 30.3145 47.2188 30.6191 47.5234C30.9277 47.8281 31.3145 47.9805 31.7793 47.9805C32.4316 47.9805 32.9629 47.7168 33.373 47.1895L34.1406 47.9219C33.8867 48.3008 33.5469 48.5957 33.1211 48.8066C32.6992 49.0137 32.2246 49.1172 31.6973 49.1172ZM31.5273 43.6855C31.1367 43.6855 30.8203 43.8223 30.5781 44.0957C30.3398 44.3691 30.1875 44.75 30.1211 45.2383H32.834V45.1328C32.8027 44.6562 32.6758 44.2969 32.4531 44.0547C32.2305 43.8086 31.9219 43.6855 31.5273 43.6855ZM37.6035 46.4922H36.8828V49H35.459V42.6602H36.8828V45.1914H37.5098L39.2617 42.6602H41.0195L38.7285 45.6953L41.2129 49H39.3613L37.6035 46.4922Z" fill="black" fill-opacity="0.3"/>
</svg>
