<svg width="825" height="277" viewBox="0 0 825 277" fill="none" xmlns="http://www.w3.org/2000/svg">
<path d="M98.874 2.44799C109.146 2.44799 117.066 4.752 122.634 9.36C128.202 13.968 130.986 20.256 130.986 28.224C130.986 33.024 129.93 37.008 127.818 40.176C125.802 43.248 122.634 45.984 118.314 48.384C124.17 50.304 128.586 53.472 131.562 57.888C134.634 62.304 136.17 67.68 136.17 74.016C136.17 83.616 132.618 91.248 125.514 96.912C118.41 102.48 110.058 105.264 100.458 105.264H41.85V2.44799H98.874ZM90.8101 42.48C94.3621 42.48 96.9541 41.856 98.5861 40.608C100.218 39.264 101.034 37.056 101.034 33.984C101.034 29.28 97.578 26.928 90.666 26.928H73.53V42.48H90.8101ZM92.538 80.784C100.506 80.784 104.49 77.52 104.49 70.992C104.49 67.92 103.53 65.616 101.61 64.08C99.69 62.448 97.098 61.632 93.834 61.632H73.53V80.784H92.538Z" fill="white"/>
<path d="M240.888 2.44799V28.8H187.464V41.616H235.992V66.096H187.464V78.912H242.472V105.264H155.784V2.44799H240.888Z" fill="white"/>
<path d="M305.847 0C318.711 0 328.791 2.496 336.087 7.488C343.383 12.48 347.031 19.488 347.031 28.512C347.031 33.216 345.639 37.488 342.855 41.328C340.167 45.072 336.519 47.856 331.911 49.68C337.959 51.408 342.519 54.288 345.591 58.32C348.663 62.352 350.199 67.2 350.199 72.864C350.199 83.712 346.119 92.256 337.959 98.496C329.895 104.64 318.807 107.712 304.695 107.712C290.295 107.712 278.967 104.4 270.711 97.776C262.551 91.152 258.375 82.128 258.183 70.704H289.719C290.295 79.344 295.095 83.664 304.119 83.664C309.015 83.664 312.759 82.608 315.351 80.496C317.943 78.288 319.239 75.36 319.239 71.712C319.239 64.896 314.823 61.488 305.991 61.488H296.199V42.048H305.127C310.023 41.76 313.527 40.896 315.639 39.456C317.751 38.016 318.807 35.76 318.807 32.688C318.807 29.712 317.559 27.408 315.063 25.776C312.567 24.048 309.303 23.184 305.271 23.184C301.239 23.184 297.879 24.096 295.191 25.92C292.503 27.744 291.111 30.192 291.015 33.264H261.495C261.687 22.608 265.767 14.4 273.735 8.64C281.703 2.88 292.407 0 305.847 0Z" fill="white"/>
<path d="M393.779 2.44799L409.763 47.808L425.747 2.44799H459.875L419.267 89.424C416.483 95.376 412.595 99.936 407.603 103.104C402.611 106.176 396.899 107.712 390.467 107.712C387.683 107.712 384.467 107.424 380.819 106.848C377.267 106.368 374.531 105.744 372.611 104.976V79.488C376.643 81.216 380.627 82.08 384.563 82.08C387.539 82.08 389.747 81.456 391.187 80.208C392.627 78.96 393.347 77.376 393.347 75.456C393.347 73.824 392.819 71.904 391.763 69.696L359.075 2.44799H393.779Z" fill="white"/>
<path d="M502.066 2.44799V27.504C502.066 32.688 503.074 36.672 505.09 39.456C507.202 42.24 510.85 43.632 516.034 43.632C520.45 43.632 524.77 42.96 528.994 41.616V2.44799H560.674V105.264H528.994V64.368C521.314 66.864 513.586 68.112 505.81 68.112C493.234 68.112 484.162 65.232 478.594 59.472C473.122 53.712 470.386 44.448 470.386 31.68V2.44799H502.066Z" fill="white"/>
<path d="M643.572 2.44799L681.012 105.264H648.18L643.86 90.576H611.172L606.42 105.264H574.74L612.612 2.44799H643.572ZM618.084 68.544H637.524L628.308 36.864H628.02L618.084 68.544Z" fill="white"/>
<path d="M782.63 2.44799V105.264H750.95V68.544H742.886L721.718 105.264H684.278L712.79 64.656C707.414 62.64 702.854 59.04 699.11 53.856C695.366 48.576 693.494 42.576 693.494 35.856C693.494 25.104 697.094 16.848 704.294 11.088C711.59 5.32799 721.91 2.44799 735.254 2.44799H782.63ZM724.454 36.288C724.454 39.36 725.462 41.76 727.478 43.488C729.59 45.216 732.422 46.08 735.974 46.08H750.95V26.496H735.83C732.47 26.496 729.734 27.312 727.622 28.944C725.51 30.576 724.454 33.024 724.454 36.288Z" fill="white"/>
<path d="M93.024 149.448V252.264H61.344V175.8H31.68V252.264H0V149.448H93.024Z" fill="white"/>
<path d="M203.874 149.448V252.264H172.194V215.544H164.13L142.962 252.264H105.522L134.034 211.656C128.658 209.64 124.098 206.04 120.354 200.856C116.61 195.576 114.738 189.576 114.738 182.856C114.738 172.104 118.338 163.848 125.538 158.088C132.834 152.328 143.154 149.448 156.498 149.448H203.874ZM145.698 183.288C145.698 186.36 146.706 188.76 148.722 190.488C150.834 192.216 153.666 193.08 157.218 193.08H172.194V173.496H157.074C153.714 173.496 150.978 174.312 148.866 175.944C146.754 177.576 145.698 180.024 145.698 183.288Z" fill="white"/>
<path d="M311.834 149.448V175.8H283.034V252.264H251.354V175.8H222.554V149.448H311.834Z" fill="white"/>
<path d="M362.374 149.448V185.16H392.038V149.448H423.718V252.264H392.038V211.512H362.374V252.264H330.694V149.448H362.374Z" fill="white"/>
<path d="M477.111 149.448V209.208H477.399L506.343 149.448H540.183V252.264H510.231V191.352H509.943L480.711 252.264H447.159V149.448H477.111Z" fill="white"/>
<path d="M595.305 149.448V225.912H624.969V149.448H656.649V225.912H667.593V276.312H638.217V252.264H563.625V149.448H595.305Z" fill="white"/>
<path d="M743.641 149.448L781.081 252.264H748.249L743.929 237.576H711.241L706.489 252.264H674.809L712.681 149.448H743.641ZM718.153 215.544H737.593L728.377 183.864H728.089L718.153 215.544Z" fill="white"/>
<path d="M824.667 149.448V173.64L816.747 215.256H802.779L794.715 173.64V149.448H824.667ZM824.667 223.752V252.264H794.715V223.752H824.667Z" fill="white"/>
</svg>
