<svg width="35" height="32" viewBox="0 0 35 32" fill="none" xmlns="http://www.w3.org/2000/svg">
<path fill-rule="evenodd" clip-rule="evenodd" d="M11.8713 6.28325C13.5107 5.68254 14.5542 5.28546 16.5501 6.13562L15.3036 7.27085L16.027 10.2388C13.7995 8.40609 13.2895 8.5359 12.0717 8.09046L11.71 8.11083L11.8713 6.28325Z" fill="white"/>
<path fill-rule="evenodd" clip-rule="evenodd" d="M8.95491 4.43529L10.8363 4.98764C11.5987 4.26984 12.317 3.67423 12.7749 2.9488C13.9616 1.07795 13.0716 0.59178 11.7471 0.334698C9.37907 -0.126014 7.84116 -0.551092 8.41625 2.259L8.95491 4.43529Z" fill="white"/>
<path fill-rule="evenodd" clip-rule="evenodd" d="M6.83944 6.75386L7.81787 4.92884C7.19855 3.99468 6.70411 3.13689 6.01453 2.51582C4.24243 0.912238 3.53723 1.73184 2.99077 3.04526C2.00974 5.39209 1.2421 6.88876 4.38556 6.87095L6.83944 6.75386Z" fill="white"/>
<path fill-rule="evenodd" clip-rule="evenodd" d="M10.1359 5.30797C9.19395 4.91089 8.10102 5.33597 7.69508 6.25739C7.28913 7.18136 7.7237 8.25041 8.6657 8.64494C9.60769 9.03948 10.7006 8.6144 11.1066 7.69298C11.5099 6.7741 11.0753 5.70504 10.1359 5.30797Z" fill="white"/>
<path fill-rule="evenodd" clip-rule="evenodd" d="M6.93277 7.35742L7.45842 8.95591C4.99153 10.9922 3.80752 12.4736 2.82129 15.495C1.83505 14.0416 1.63728 14.0874 1.8949 12.4074L0.000488281 12.5856C1.53579 9.49554 3.32611 7.68577 6.93277 7.35742Z" fill="white"/>
<path d="M6.64839 31.8512C8.75097 32.1362 11.5327 32.0192 14.4914 31.4286L14.5201 31.4235L14.5357 31.421L14.5643 31.4134C15.3996 31.2454 16.2011 31.0494 16.9479 30.8356C17.7208 30.6141 18.4494 30.3723 19.1208 30.1178C22.8081 28.7153 25.1423 26.7172 24.7806 24.9532H24.7832L24.7806 24.943L24.7754 24.9328C24.6895 24.5307 24.4787 24.1718 24.1612 23.8613C23.8724 23.5787 23.5003 23.3344 23.0527 23.1333C22.8289 23.034 22.5817 22.9449 22.3189 22.8635C20.7185 21.774 20.4687 21.0715 19.3654 19.0225L18.2256 16.4593C16.5888 12.7762 15.371 10.6635 12.6387 9.93298C10.1354 9.26355 8.23574 10.1443 7.07776 11.4042C4.67592 14.0209 4.96216 16.8335 4.86328 20.089L4.87109 22.0235C4.8789 23.7925 4.36366 25.2841 3.65066 26.7986C2.7607 27.6437 2.32353 28.5346 2.49528 29.3898V29.3923L2.49788 29.4025L2.50047 29.4127L2.50308 29.4254C2.78151 30.6981 4.34544 31.5355 6.64839 31.8512ZM3.74173 29.1658L3.73912 29.1556L3.73652 29.1531C3.5934 28.4353 4.46254 27.5189 5.98743 26.623C6.36475 26.399 6.7837 26.1801 7.23389 25.9688L7.23649 25.9612C9.27662 25.0347 10.9707 24.3983 13.1955 24.0496L13.2164 24.098C17.1717 23.3344 20.7133 23.4438 22.5245 24.2583C22.8367 24.3983 23.0891 24.5587 23.2635 24.7292C23.4066 24.8667 23.5003 25.0194 23.5341 25.1721V25.1823L23.5367 25.1899C23.7709 26.3099 21.762 27.7786 18.6576 28.9596C18.007 29.2065 17.3148 29.4382 16.594 29.6443C15.855 29.8556 15.0848 30.044 14.3015 30.2018H14.2963L14.2807 30.2043L14.2442 30.2094H14.2364C11.413 30.7719 8.7874 30.889 6.82534 30.6218C5.07145 30.3825 3.90307 29.8785 3.74173 29.1658Z" fill="white"/>
<path d="M7.5332 26.7096C9.37036 25.7932 11.1789 25.2765 13.2268 24.938C13.7421 25.694 13.9034 26.6485 13.5677 27.5444C12.9978 29.0666 11.2205 29.8327 9.59936 29.2498C8.42316 28.8299 7.6503 27.8143 7.5332 26.7096Z" fill="white"/>
<path d="M30.6124 19.0689C31.5908 17.9031 32.5718 16.1722 33.3187 14.1538L33.3265 14.1359L33.3291 14.1258L33.3369 14.1054C33.5476 13.5352 33.7272 12.9753 33.8755 12.4407C34.029 11.8884 34.1514 11.3564 34.2424 10.8524C34.7525 8.08559 34.3725 5.9144 33.1157 5.46386L33.1079 5.46132L33.0975 5.45878C32.8086 5.35951 32.5016 5.35188 32.1867 5.42315C31.8978 5.49187 31.6038 5.62423 31.3071 5.82022C31.1588 5.91695 31.0079 6.03403 30.857 6.16384C29.5611 6.71873 29.0198 6.60674 27.3049 6.49728L25.2492 6.21475C22.2957 5.81258 20.4924 5.74895 18.9935 7.12599C17.6195 8.39104 17.4582 9.875 17.8173 11.0561C18.5641 13.5047 20.4533 14.3981 22.4805 15.6912L23.7087 16.4217C24.8302 17.0886 25.5823 17.9642 26.2719 18.9696C26.4696 19.8299 26.8704 20.4332 27.4767 20.6546L27.4845 20.6572L27.4923 20.6597L27.5027 20.6623C28.4161 20.9779 29.5376 20.3466 30.6124 19.0689ZM27.8098 19.8121L27.802 19.8096H27.7994C27.2893 19.6263 27.0395 18.7507 27.0499 17.4857C27.0525 17.1726 27.0707 16.834 27.1072 16.4828L27.1046 16.4777C27.2919 14.8894 27.5313 13.6218 28.1533 12.1404L28.1923 12.148C29.2098 9.4601 30.6202 7.35508 31.825 6.56347C32.0332 6.42602 32.2283 6.33693 32.4027 6.29621C32.5458 6.26312 32.6759 6.26311 32.7852 6.29875L32.793 6.30129L32.7982 6.30384C33.5971 6.58638 33.7636 8.36051 33.3369 10.6921C33.2458 11.1782 33.1313 11.6873 32.9882 12.204C32.8424 12.7309 32.6681 13.2705 32.4729 13.805V13.8101L32.4677 13.8203L32.4573 13.8458L32.4547 13.8509C31.7417 15.7752 30.8179 17.4118 29.9045 18.5013C29.0823 19.471 28.3198 19.9852 27.8098 19.8121Z" fill="white"/>
<path d="M27.6899 16.5847C27.807 15.1211 28.1661 13.8306 28.7282 12.4611C29.4022 12.4357 30.0683 12.7004 30.5081 13.2426C31.2576 14.1665 31.0676 15.5334 30.084 16.297C29.371 16.8494 28.4342 16.9308 27.6899 16.5847Z" fill="white"/>
</svg>
