<svg width="309" height="150" viewBox="0 0 309 150" fill="none" xmlns="http://www.w3.org/2000/svg">
<path d="M6.17814 146.413C8.94954 147.434 13.9381 147.157 17.6102 147.18C39.5581 147.357 60.7285 147.18 82.8304 147.234C89.9206 147.265 98.7506 147.81 104.409 146.182C106.603 145.537 109.713 144.378 111.453 140.823C130.437 135.271 149.513 129.52 168.436 124.107C166.95 129.328 163.093 133.382 159.144 136.822C158.089 137.744 158.905 139.11 158.274 140.4C156.896 140.139 156.511 138.104 154.702 138.964C154.394 139.11 153.678 140.324 153.486 140.661C152.485 142.527 151.076 147.534 151.307 149.791C152.647 151.181 158.998 145.23 159.598 143.909C160.168 142.619 161.754 142.182 163.001 141.376C164.055 140.7 165.572 139.133 166.019 137.982C167.997 132.906 170.561 128.606 175.503 126.111C176.288 125.527 195.703 115.952 196.065 115.783C196.589 115.553 198.421 115.069 198.76 114.962C201.808 113.963 204.603 113.219 207.636 112.251C209.984 111.499 212.747 110.094 215.411 111.13C219.106 112.566 224.11 113.096 229.307 113.326C231.516 113.426 233.879 113.027 235.635 112.827C243.056 111.998 247.39 111.906 255.242 108.558C256.959 107.828 261.847 106.907 263.533 107.683C265.566 108.589 267.436 109.794 269.807 110.631C270.454 110.869 273.68 112.236 273.71 112.497C273.764 113.042 271.101 114.194 270.585 114.363C268.968 114.885 267.075 115.215 265.481 115.407C263.564 115.637 262.679 115.23 261.024 115.96C260.308 116.275 258.637 118.402 257.898 117.987C257.429 117.718 257.244 115.653 256.959 115.077C255.92 113.034 252.502 115.131 251.401 115.852C249.876 117.104 248.445 118.494 247.12 119.96C246.328 120.866 246.097 121.665 247.836 122.041C252.894 123.446 259.053 122.21 264.38 121.442C266.69 121.112 268.075 120.344 269.985 119.845C273.472 118.939 279.446 117.895 280.693 114.754C281.309 113.203 281.855 110.969 280.639 109.61C278.992 107.759 276.605 106.047 274.927 104.458C272.517 102.415 275.312 101.371 276.52 99.9042C276.975 99.3668 277.244 99.1134 278.014 99.1901C281.686 99.5741 285.042 99.29 288.561 99.0289C290.662 98.8676 292.071 98.3916 294.327 99.0289C296.167 99.5433 297.437 103.467 298.23 105.164C298.784 106.354 298.522 108.304 299.107 109.771C299.377 110.416 299.515 110.838 299.823 111.637C300.047 112.228 301.024 112.343 301.247 112.95C301.771 114.317 299.392 115.246 299.161 116.405C299.076 116.812 299.623 117.833 299.885 118.217C301.309 120.398 304.95 123.247 307.699 123.823C308.723 120.667 306.367 115.791 305.535 113.334C304.966 111.622 305.797 109.717 305.22 108.02C304.096 104.826 301.663 101.939 300.37 99.0366C300.378 97.6161 300.062 96.5257 299.546 95.6427C298.676 94.2682 297.152 92.8938 295.374 92.1874C293.649 91.5117 290.4 91.0971 287.96 90.8744C286.782 90.7669 285.62 90.5596 284.765 90.4905C282.81 90.3139 281.078 89.8915 279.438 89.0699C280.108 85.5455 279.8 80.3703 280.154 76.5157C283.634 77.3987 286.844 77.1607 289.5 76.0243C291.178 75.3102 293.78 72.8915 295.135 71.5324C296.013 70.6647 297.66 67.7469 298.399 67.5857C299.739 67.2939 300.893 69.4285 302.294 69.3978C304.519 69.3517 304.342 67.2401 305.366 66.1037C306.351 65.0441 308.715 65.3436 307.414 62.6024C307.491 62.3106 307.937 62.395 308.076 62.1647C309.215 58.026 303.842 57.9723 300.647 56.8512C298.468 56.0834 295.928 54.0639 294.388 52.6818C292.941 51.53 292.926 50.8851 291.802 50.4397C290.978 50.1095 289.862 50.5625 288.876 50.3245C287.537 50.002 286.297 48.6737 285.15 48.0824C285.181 46.8999 284.873 45.6791 284.542 44.6885C290.601 44.4889 300.123 46.2166 305.528 43.8055C306.113 43.5445 307.237 43.1221 307.406 42.4388C307.876 40.2888 303.649 41.5404 302.618 41.8936C300.986 42.4464 297.106 44.4198 296.359 42.2238C297.09 39.1447 300.585 38.4613 302.402 36.4649C303.449 35.3132 302.641 33.5087 300.863 34.6528C298.083 36.4496 296.097 40.4193 292.956 41.6709C292.818 39.9893 294.003 35.3746 291.247 36.8488C291.109 39.8281 291.417 41.7477 288.614 42.4388C286.082 43.0607 283.672 42.7152 283.441 40.4731C282.156 39.7436 280.439 42.2698 280.531 39.9202C280.6 38.3692 282.071 37.7242 282.848 36.3574C284.35 33.716 283.641 29.992 282.948 27.2585C282.625 25.9224 280.647 22.9585 279.546 25.4464C278.684 27.4351 280.577 29.5774 280.932 30.7598C281.686 33.3705 281.278 36.2653 280.092 37.2789C277.737 38.3231 276.49 34.8371 275.65 32.9482C274.334 30.0227 271.255 24.9396 268.399 23.8492C265.265 22.6668 264.496 25.7535 265.981 27.4658C268.614 30.5065 272.271 32.572 274.442 35.9582C271.216 37.1714 268.199 27.2585 264.549 29.7693C262.456 33.1939 270.069 33.9157 271.532 36.7337C271.901 37.4401 272.479 38.3538 272.309 39.3136C271.54 43.4446 263.195 42.1163 259.122 40.7111C254.903 39.3443 249.538 34.8832 249.238 33.7698C249.707 33.048 250.8 32.6487 250.438 31.2513C249.515 29.754 248.129 31.712 247.19 31.52C246.874 31.4509 245.642 29.5313 245.488 29.2165C244.118 26.5137 242.101 22.0064 243.341 18.8506C244.026 17.0461 249.938 13.7828 251.809 9.59037C252.948 7.03345 254.773 0.637311 250.931 0C248.629 0.253389 249.068 8.5845 247.798 12.0091C247.313 13.2991 245.003 14.1667 244.611 12.7692C244.511 10.22 245.596 6.85684 244.665 4.27689C244.264 3.18655 243.333 0.668024 241.478 1.64319C239.776 3.30941 244.264 10.243 242.132 14.136C241.624 15.0728 240.03 15.2494 239.222 14.4662C235.065 10.412 237.451 4.57635 236.751 2.6337C236.327 1.49729 234.726 1.66622 234.156 2.91013C233.079 5.29044 233.21 9.36002 234.103 11.4562C234.688 12.9612 236.327 14.8655 238.46 17.2151C239.561 18.482 242.086 22.7589 239.668 23.7878C237.998 24.5019 235.712 23.6189 234.711 23.1889C231.508 21.7914 225.234 18.5511 226.743 13.706C226.928 13.1225 228.629 9.44448 226.32 9.59037C224.972 9.67483 225.804 13.5525 224.657 14.2512C221.601 15.8713 221.162 11.8632 220.099 8.93771C219.714 7.87808 219.029 5.08313 217.69 5.26741C215.942 5.50545 215.811 7.61702 216.912 10.4734C219.614 16.1708 224.226 20.6704 230.384 23.5191C234.888 25.5999 239.476 27.0742 243.002 30.3068C243.879 31.1207 245.565 32.4875 245.766 33.2169C246.243 35.0444 244.434 35.9735 244.057 36.0733C242.933 36.3651 243.325 33.5548 243.179 32.9482C242.786 31.3895 241.693 30.7675 240.869 31.9116C240.13 32.9328 241.932 34.5991 241.87 35.7048C241.816 36.3114 241.601 36.8028 241.139 36.8412C237.913 37.0101 236.628 33.67 234.387 32.5105C233.271 31.9346 232.201 32.4568 232.293 33.716C232.517 35.3976 234.695 36.4189 236.304 37.1099C238.144 37.9085 241.732 39.1294 242.078 41.1641C242.409 43.1682 237.074 42.7996 235.712 42.3159C233.587 41.6018 231.808 41.049 229.892 40.3502C228.76 39.9433 225.742 37.9776 226.15 36.2423C226.343 35.4514 227.69 34.1384 228.29 33.7237C229.699 32.7562 233.202 31.4048 233.902 29.8922C234.295 29.0399 234.056 27.1971 232.517 27.5349C230.338 27.9956 228.891 32.3416 226.92 33.1171C226.235 33.3935 224.203 33.3705 223.91 32.9559C222.663 31.2973 224.318 29.1858 224.51 27.9111C224.541 25.7996 222.324 25.669 221.97 27.3122C221.577 30.4373 222.424 33.025 218.845 32.4107C217.975 32.2571 216.797 31.0516 216.589 30.1072C216.242 28.5331 216.512 25.4617 215.819 23.7494C215.642 23.3041 215.288 22.0832 214.503 21.6609C211.339 19.9563 210.969 25.5231 211.87 27.8574C212.617 29.8077 215.057 32.6641 216.866 33.5548C219.022 34.6221 221.4 34.791 223.24 36.4573C223.656 36.8258 224.102 37.9776 223.294 38.1542C221.947 38.446 218.837 36.6185 217.582 36.0119C216.597 35.5358 215.095 34.6451 213.91 33.9157C211.931 32.7025 207.628 28.9247 205.865 26.5213C204.98 25.2928 204.002 23.6726 203.563 22.2982C202.986 20.3709 201.9 17.2304 200.215 16.0019C199.068 15.1726 198.051 15.5719 197.582 16.117C196.342 17.5836 198.29 21.062 198.844 22.2521C200.222 25.1776 203.925 28.2183 206.766 30.637C211.577 34.7219 216.45 37.7856 223.017 40.2274C224.518 40.7802 226.042 41.7323 227.628 42.2007C233.887 44.0282 239.645 45.2721 247.028 46.2549C250.523 46.7156 254.842 46.1244 258.676 45.871C262.263 45.6253 265.227 44.4428 268.737 44.4428C266.089 46.731 271.501 49.1036 271.532 50.7468C271.547 51.484 269.977 52.7432 269.615 53.3191C268.722 54.7627 268.06 55.8146 267.144 57.1583C264.85 54.4402 260.069 49.0115 255.666 51.8372C254.711 52.4438 254.01 53.703 253.672 54.4709C252.286 57.6267 253.448 62.9556 254.457 65.7582C254.642 66.3034 255.812 68.3919 255.666 68.7681C255.381 69.4362 253.364 69.1444 252.863 69.1137C249.492 68.891 245.134 67.7085 241.693 68.9908C237.89 70.4267 232.247 75.2411 231.17 75.6404C229.691 77.1914 219.476 78.0667 212.416 77.4371C204.025 76.6846 196.165 75.7171 188.675 74.1968C184.687 73.3982 180.807 72.7686 177.081 72.0622C163.986 69.5744 148.959 70.7492 136.703 74.0356C133.455 74.9032 91.314 83.4647 88.5118 81.8752C88.1577 81.4453 88.3886 80.6697 88.1807 80.1706C86.4332 75.9244 81.36 80.5238 79.0428 80.593C78.7195 80.7849 76.7179 81.1612 75.771 80.8463C74.7395 80.3703 74.8395 80.0938 74.8395 80.0938C74.4007 78.8883 72.4146 78.6119 71.7679 79.2492C70.8749 79.8865 70.4053 80.2781 69.5431 81.2994C67.5184 84.2709 66.3329 85.2538 63.7924 86.4286C63.3228 86.6512 63.0996 87.1887 62.5299 87.0889C61.5676 86.92 61.3752 84.7009 60.0587 84.6779C60.2435 84.1865 60.1665 83.1959 59.6661 83.0347C59.2119 82.8888 58.6269 83.5568 58.0803 83.1959C57.8801 83.0654 57.6877 82.3667 57.4798 82.3206C57.0487 82.2285 56.3713 83.1191 56.0479 82.3743C56.964 81.3224 56.0633 79.6485 56.0479 78.8653C56.0325 77.8671 57.1411 76.0857 55.4474 75.5175C54.6545 75.2564 52.9224 76.055 52.9147 74.8648C52.9147 74.3811 53.3689 74.2198 53.4074 73.8206C53.4767 73.0297 52.7068 72.7072 52.6376 72.1774C52.4759 70.9565 53.2457 70.442 52.984 69.1521C52.7684 68.0924 52.0756 66.956 50.0355 66.6412C49.3812 66.5491 48.8038 66.8639 48.4112 66.8101C47.1718 66.6412 45.9477 64.7754 44.8391 64.1764C38.9653 60.1145 28.742 62.1186 26.5402 68.1155C26.2554 68.891 26.1245 69.9737 25.8782 70.5879C25.1545 72.4538 23.5533 74.7189 20.6048 73.4366C17.6486 72.1467 17.5178 67.7469 11.0204 68.676C8.45685 68.9985 3.59919 70.1119 4.9464 73.5441C6.8017 78.2664 12.3291 74.6422 13.5377 71.3174C13.8226 70.5572 14.6232 69.9199 15.6086 71.1869C17.2329 73.2831 19.3962 76.6769 22.1522 77.4371C24.0229 77.9516 25.8628 77.3373 27.0406 76.7153C29.2654 75.5482 30.297 72.5229 31.4364 70.634C32.1061 71.3174 31.7289 72.3233 31.5518 73.3752C31.1592 75.5482 33.2686 76.6923 33.1454 76.746C32.9837 76.8305 32.7605 76.7614 32.0984 77.1069C29.7504 78.9805 31.8752 81.499 33.0915 82.6431C34.3232 83.8025 32.6142 84.3247 33.1454 85.4304C31.4979 85.6991 29.327 82.9579 25.1237 82.1977C22.8604 81.7985 22.3831 82.597 21.4978 82.0979C19.4655 80.9462 21.3593 75.5405 18.1721 75.7862C16.7095 76.2239 18.1336 77.9592 16.0089 76.9994C14.577 76.6385 13.9611 77.7289 14.015 79.0573C13.9227 80.6467 12.3137 78.2817 11.3283 79.5871C10.9896 80.0555 11.2975 80.7081 11.4669 80.9692C12.1982 82.0672 13.199 82.2592 14.0766 83.4724C15.9396 86.0063 13.3761 86.3671 12.2059 88.6784C10.0812 92.9015 10.4738 97.9616 10.3968 103.198C9.12661 103.152 7.04037 103.029 6.02419 103.613C5.21586 104.066 4.74626 105.141 4.70007 105.579C4.29976 109.287 5.93179 112.512 6.84789 114.424C9.74246 120.498 16.3784 124.982 22.4293 127.209C17.7641 128.399 13.8765 133.805 16.4323 139.487C17.3869 141.621 18.8111 142.819 20.6048 144.316C15.0312 144.662 9.5577 144.316 7.85637 143.81C5.23894 143.034 4.0226 142.259 3.23737 140.792C1.34358 137.268 6.40909 134.749 9.50382 135.862C10.9819 136.4 12.052 138.711 10.4353 139.533C10.6971 138.688 10.5508 138.419 10.3275 137.836C9.1805 136.277 6.07806 136.538 5.98568 138.765C5.82401 142.351 12.8988 142.082 13.0143 138.542C12.7679 134.181 7.22512 132.553 3.39905 134.588C2.2443 135.179 1.17422 136.146 0.596849 137.444C-1.474 142.067 2.1981 144.984 6.17814 146.413ZM262.802 43.4523C253.61 45.9555 246.766 45.1646 245.057 43.9437C240.939 41.0566 248.037 35.6664 248.037 35.6664C248.037 35.6664 254.98 42.1316 262.802 43.4523ZM281.57 67.3323C281.586 67.34 281.601 67.3476 281.617 67.363C281.632 67.34 281.647 67.3092 281.663 67.2785C285.081 69.7203 291.27 70.1349 295.12 68.1001C293.58 69.774 291.725 71.4786 289.484 72.6765C286.921 74.0663 283.857 74.8188 280.139 74.1277C280.015 71.7167 280.508 68.9447 281.57 67.3323ZM259.969 56.8128C260.9 55.6073 261.909 56.1371 262.694 56.5133C263.441 56.8742 265.743 58.6633 265.689 59.6078C265.658 60.0147 264.719 61.2586 264.426 61.7424C263.372 63.4239 261.486 65.5278 259.969 66.6182C259.777 66.1191 257.944 60.3449 259.969 56.8128ZM154.248 74.0279C132.469 79.0803 136.126 78.1742 127.096 80.5315C104.324 86.467 98.1347 86.2366 87.5187 86.467C88.3193 84.7623 88.4194 83.5568 88.4194 83.5568C103.116 84.0636 132.947 76.9611 135.302 76.4159C141.284 75.0414 148.389 74.0739 154.248 74.0279ZM199.021 112.389C200.191 111.122 201.569 108.98 203.101 107.782C203.794 107.26 204.633 106.231 205.249 106.024C206.596 105.594 208.513 107.713 209.483 108.274C211.67 109.525 199.837 111.99 199.021 112.389ZM92.284 105.648C90.0053 101.64 91.5218 96.9941 95.3017 95.6197C97.1647 94.8288 100.198 95.4584 101.237 97.2629C100.336 96.7254 98.6813 96.9634 97.719 97.5393C97.5496 97.5393 95.3171 99.5741 97.2417 101.778C99.582 104.051 102.022 101.609 102.169 101.593C104.778 98.6757 102.338 94.8825 99.3125 93.4313C98.0962 92.8401 96.1254 92.6174 95.3787 92.7095C93.662 92.9092 92.1146 93.5158 91.2293 94.2145C91.0368 94.1992 87.3724 96.9941 88.5426 102.146C89.8205 106.546 91.083 108.466 94.1932 113.549C96.0946 116.735 99.3587 120.552 97.7729 124.997C95.6019 128.883 89.3124 129.42 83.8081 129.436C84.2777 128.852 85.9482 129.482 86.1176 128.622C85.7866 128 84.524 128.314 83.9236 127.969C84.3239 127.147 86.4486 128.261 86.7797 127.193C86.6488 126.886 86.21 126.886 86.1099 126.541C86.9952 126.38 88.1576 125.857 87.103 125.12C87.9344 124.706 89.7589 125.282 89.5203 123.807C89.3355 123.477 88.8736 123.431 88.4733 123.308C88.1115 122.279 89.3971 122.44 89.3586 121.55C89.6434 121.312 90.2054 121.35 90.5134 121.12C90.6365 119.492 88.5426 120.467 87.8189 120.79C88.227 119.622 89.8051 119.154 90.1284 117.718C90.0823 117.711 90.0668 117.68 90.0745 117.618C89.3894 117.488 88.9429 118.325 88.0961 118.048C88.2654 117.05 88.4271 113.81 86.8874 115.2C86.6796 114.37 85.6557 114.547 85.5094 115.315C84.986 114.685 84.116 114.401 83.2076 114.171C82.8843 115.238 83.9159 115.43 83.9775 116.298C82.0067 116.828 82.4763 113.219 82.3762 111.391C82.2299 108.435 78.3654 105.886 78.3654 105.886C74.8164 103.767 68.7117 102.761 64.1389 103.528C64.0388 103.267 63.4614 101.286 61.175 100.626C64.8394 99.6662 67.7725 97.9616 70.6824 96.2416C72.2221 96.472 73.9388 95.2204 74.0851 94.1608C74.1621 93.5849 73.8695 92.7326 74.6856 92.6865C78.196 92.4485 80.6133 91.3658 81.8604 90.7285C82.6379 90.3292 84.8012 88.6169 85.4401 88.4941C88.3886 87.9412 96.5642 88.0871 96.6566 88.041C113.077 88.3405 152.87 75.8784 160.291 76.1318C162 76.1855 163.955 76.0396 165.718 76.1855C178.105 77.1837 190.969 77.9362 203.086 79.1494C199.529 79.5257 196.496 80.7926 194.302 81.9981C190.715 83.9638 186.65 79.6715 184.964 80.5699C182.193 82.0749 185.041 85.7836 185.734 86.5514C186.843 87.8107 186.288 89.4001 185.572 90.6056C184.641 92.1567 182.685 97.2782 183.925 101.179C181.3 102.96 176.958 101.97 174.248 100.849C173.678 100.588 169.052 98.9444 168.428 101.348C168.374 101.586 167.643 103.398 167.173 104.143C166.919 104.496 165.187 106.938 163.963 108.304C163.024 109.379 161.977 110.539 160.953 111.376C158.567 113.326 155.418 114.777 154.679 118.194C153.847 117.887 153.894 115.76 152.885 115.246C151.73 114.908 150.768 115.983 150.075 116.474C148.251 117.741 146.996 119.784 146.057 121.442C145.333 122.702 144.271 123.823 146.111 124.291C148.305 124.859 154.379 122.264 155.518 122.064C157.204 121.281 160.714 120.36 161.731 118.563C162.231 117.634 162.631 116.682 163.316 115.814C163.47 115.676 165.703 111.99 167.058 110.662C167.666 109.932 171.507 106.915 174.633 108.527C175.618 109.034 181.431 110.923 181.454 111.376C181.461 111.522 180.16 112.95 179.799 113.403C177.805 115.952 174.61 116.935 171.992 118.609C170.953 119.285 170.622 120.398 169.745 120.966C168.097 122.026 117.434 136.001 111.899 137.575C110.783 119.653 95.6712 112.451 92.284 105.648ZM105.964 131.071C104.432 130.065 103.616 129.912 102.561 129.528C101.922 129.29 99.7128 128.775 99.7051 127.961C99.7051 127.646 100.028 126.871 100.144 126.61C101.822 122.809 99.6205 119.269 98.3887 116.175C101.884 120.122 105.694 124.061 105.964 131.071ZM90.9598 144.385C93.9237 141.974 91.3832 134.073 94.2008 131.516C97.2109 129.343 100.421 130.188 102.361 131.14C104.64 132.223 105.464 136.193 103.431 137.974C101.614 139.295 97.4341 138.964 97.6651 136.315C98.3502 138.619 102.361 137.874 102.5 135.563C102.669 132.845 98.2579 131.401 96.4564 135.233C95.7405 136.776 96.3872 138.22 97.234 139.233C98.6813 140.707 100.19 140.592 101.899 140.546C99.7051 143.172 95.0938 144.247 90.9598 144.385ZM80.4747 138.796C81.2061 137.436 84.0467 137.091 84.8705 138.412C80.2669 137.767 81.7834 143.687 85.6942 142.151C89.7666 140.523 86.5872 134.181 81.1291 136.553C81.7757 134.02 80.0821 132.599 78.1652 131.386H90.6904C88.6042 134.58 91.7836 142.965 87.4494 143.856C83.4155 144.654 78.3808 142.612 80.4747 138.796ZM68.5962 144.508C71.7602 142.274 68.8041 137.897 71.6217 133.812C74.1852 130.679 80.8827 132.906 79.1429 137.26C78.4578 138.596 76.0636 138.634 75.2398 137.805C77.0413 137.943 78.1267 137.291 78.0421 135.501C77.7649 133.774 74.8626 132.637 73.4231 135.279C72.199 138.243 75.3938 139.817 78.1575 139.494C77.6571 141.951 79.0813 143.403 80.2438 144.493H68.5962V144.508ZM58.7577 142.197C56.556 139.302 58.8347 137.283 58.904 137.099C59.4352 136.469 61.3444 135.402 63.1304 136.584C63.5923 136.922 63.8694 137.682 63.7078 138.02C62.861 137.183 61.9063 136.799 60.9056 137.475C58.981 138.788 60.4514 141.475 63.0996 141.153C64.0696 141.038 64.901 140.132 65.1781 139.602C67.3953 135.333 60.8055 132.568 57.3335 136.108C56.7947 133.927 55.6168 132.622 53.7153 131.37L70.6363 131.424C67.9034 133.382 68.8271 140.431 67.4491 142.243C65.563 144.562 60.6053 144.286 58.7577 142.197ZM41.8368 144.508C44.6775 142.343 42.5297 136.054 45.9015 133.59C47.6029 132.384 51.044 132.507 52.984 133.336C55.817 134.549 56.1634 139.371 52.8762 140.277C50.713 140.884 48.3419 139.909 48.5959 137.982C49.4889 140.469 54.0541 139.241 52.83 136.569C52.3219 135.455 50.89 134.58 49.1733 135.102C47.8184 135.617 47.3873 136.661 47.241 137.329C46.1556 142.466 53.0302 143.372 55.5167 140.723C56.1711 142.374 57.0256 143.694 58.65 144.516C53.6383 144.6 46.6945 144.593 41.8368 144.508ZM32.6681 139.51C32.9606 138.089 35.5858 137.214 36.625 138.465C35.247 138.465 34.4926 138.788 34.2386 140.024C33.9537 141.36 35.2855 143.103 37.672 142.082C40.428 140.454 38.7036 136.154 35.1392 136.607C36.1477 135.286 36.6019 133.843 35.9784 131.424L44.7006 131.447C41.1671 133.098 42.214 139.341 40.6513 142.182C38.8498 144.762 31.906 144.439 32.6681 139.51ZM24.4232 130.081C27.3255 128.023 33.4687 128.66 34.3694 131.777C35.0084 134.004 34.8313 136.216 32.0599 136.768C33.4302 133.236 27.3717 131.724 26.6634 135.54C26.2092 137.989 28.3031 139.31 31.0206 138.688C30.2585 140.669 31.0668 142.911 32.2832 143.779C30.3663 143.725 28.7727 143.564 27.2946 142.988C23.8612 141.66 22.3369 139.164 21.8519 137.045C21.0898 133.789 22.5602 131.417 24.4232 130.081Z" fill="white"/>
</svg>
