<svg width="256" height="213" viewBox="0 0 256 213" fill="none" xmlns="http://www.w3.org/2000/svg">
<g filter="url(#filter0_d)">
<mask id="mask0" mask-type="alpha" maskUnits="userSpaceOnUse" x="40" y="20" width="176" height="133">
<rect x="40" y="55.2031" width="157.516" height="100" rx="8" transform="rotate(-12.914 40 55.2031)" fill="#C4C4C4"/>
</mask>
<g mask="url(#mask0)">
<path d="M193.496 20.0089L116.747 37.6064L139.107 135.123L215.855 117.526L193.496 20.0089Z" fill="white"/>
<path d="M116.749 37.6056L40 55.2031L62.3596 152.72L139.108 135.123L116.749 37.6056Z" fill="#35A9E1"/>
<path d="M156.017 71.5367C156.171 71.6555 156.351 71.6479 156.508 71.5717C156.703 71.547 156.897 71.4288 156.994 71.2055C157.525 69.9571 158.039 68.6862 158.337 67.3571C158.597 66.2112 158.841 64.8478 158.356 63.7253C158.145 63.2439 157.738 62.7872 157.211 62.6532C156.59 62.4872 156.117 62.8236 155.764 63.3002C155.476 63.6814 155.266 64.1117 155.129 64.5656C154.722 64.1359 154.224 63.8074 153.652 63.6503C152.399 63.3071 151.282 64.1064 151.029 65.3444C150.766 66.6519 151.534 67.8371 152.449 68.7001C153.55 69.7285 154.817 70.6317 156.017 71.5367Z" fill="#FFCC00"/>
<path d="M170.672 60.5538C170.691 60.5494 170.704 60.5465 170.723 60.5421C171.128 60.4961 171.609 61.365 171.752 62.1368C171.922 63.0502 171.762 64.0793 171.265 65.1858C170.946 65.9025 170.558 66.6956 169.962 66.9931C169.897 67.0283 169.837 67.062 169.781 67.1085C168.667 65.7611 167.459 64.147 167.375 62.4361C167.359 62.1045 167.461 61.5848 167.799 61.5074C168.067 61.4461 168.344 61.6037 168.524 61.7436C168.76 61.9242 169.057 61.9903 169.343 61.9246C169.362 61.9202 169.375 61.9173 169.394 61.9129C169.691 61.8315 169.935 61.608 170.042 61.3152C170.213 60.8936 170.442 60.6064 170.672 60.5538ZM170.453 59.5981C169.809 59.7456 169.378 60.3207 169.132 60.9739C168.685 60.6337 168.143 60.436 167.594 60.5552L167.588 60.5567C166.715 60.7568 166.362 61.6758 166.402 62.4916C166.508 64.6802 168.075 66.6009 169.415 68.2049C169.564 68.3854 169.749 68.4302 169.921 68.3908C170.15 68.3382 170.357 68.1298 170.4 67.8785C171.279 67.4423 171.768 66.472 172.162 65.5903C172.666 64.4554 172.943 63.205 172.712 61.9638C172.527 60.9802 171.837 59.435 170.613 59.568C170.561 59.5733 170.504 59.5864 170.453 59.5981Z" fill="#0055A4"/>
<path d="M139.843 74.6972C139.974 74.8615 140.132 74.9058 140.286 74.8772C140.494 75.1983 141.013 75.3274 141.27 74.8996C142.439 72.9485 143.743 70.5641 142.914 68.233C142.581 67.31 141.767 66.5378 140.724 66.844C140.158 67.0073 139.769 67.385 139.528 67.8559C139.155 67.3983 138.688 67.0293 138.131 66.9692C137.152 66.8517 136.411 67.7727 136.413 68.6907C136.417 69.8165 137.228 70.8979 137.806 71.8113C138.424 72.8096 139.114 73.7713 139.843 74.6972Z" fill="#773E91"/>
<path d="M182.192 57.0409C181.156 57.4392 180.665 58.6317 180.805 59.6796C180.984 60.9868 181.985 62.0786 182.872 62.9889C183.764 63.8977 184.765 64.6944 185.84 65.3737C186.177 65.5849 186.505 65.409 186.65 65.1343C186.874 65.1434 187.106 65.0433 187.215 64.7901C188.287 62.2974 189.669 59.519 188.445 56.8147C187.957 55.7394 186.858 54.8106 185.633 55.3464C184.761 55.7274 184.379 56.5192 184.199 57.3721C183.611 56.9704 182.914 56.768 182.192 57.0409Z" fill="#E84C0A"/>
<path d="M138.609 53.1203C138.616 53.1188 138.641 53.113 138.698 53.1268C138.876 53.1731 139.086 53.3865 139.192 53.6438C139.547 54.461 139.367 55.5752 139.114 56.6658C138.852 57.8054 138.413 58.932 137.967 59.9998C137.878 59.9331 137.791 59.8727 137.701 59.8059C136.73 59.0766 135.72 58.3291 134.855 57.5083C134.232 56.9269 133.536 56.027 133.723 55.0587C133.823 54.5597 134.149 54.1966 134.576 54.0988C134.748 54.0593 134.936 54.063 135.124 54.1206C135.496 54.223 135.841 54.4391 136.151 54.7702C136.39 55.0238 136.743 55.1306 137.081 55.0532L137.087 55.0517C137.43 54.9665 137.7 54.7102 137.798 54.3791C137.905 54.0261 138.065 53.701 138.275 53.4182C138.478 53.1637 138.59 53.1247 138.609 53.1203ZM138.39 52.1647C138.033 52.2465 137.745 52.5072 137.502 52.8243C137.214 53.2055 137.004 53.6358 136.867 54.0898C136.46 53.66 135.962 53.3316 135.39 53.1745C135.032 53.0756 134.683 53.0751 134.364 53.1481C133.568 53.3307 132.948 53.9892 132.775 54.8737C132.512 56.1813 133.28 57.3664 134.195 58.2294C135.291 59.2656 136.556 60.1624 137.762 61.066C137.876 61.1539 138.008 61.1707 138.129 61.1429C138.173 61.1327 138.21 61.1176 138.253 61.101C138.272 61.0966 138.291 61.0922 138.317 61.0864C138.489 61.0469 138.651 60.936 138.738 60.7284C139.27 59.4799 139.783 58.2089 140.083 56.8862C140.343 55.7402 140.586 54.3703 140.102 53.2542C139.891 52.7728 139.484 52.3162 138.956 52.1758C138.751 52.129 138.562 52.1253 138.39 52.1647Z" fill="#E40039"/>
<path d="M185.097 46.5575C185.545 45.382 185.72 43.9807 184.913 42.9185C184.153 41.9127 182.792 41.6814 181.815 42.5358C181.368 42.9266 181.064 43.4454 180.884 44.0031C180.563 43.6543 180.193 43.3569 179.761 43.1407C179.229 42.8671 178.663 42.7688 178.176 43.1889C177.768 43.5439 177.593 44.1271 177.615 44.6587C177.665 45.8741 178.48 47.0015 179.214 47.9196C180.067 48.978 181.083 49.8984 182.099 50.792C182.284 50.9573 182.503 50.9743 182.696 50.9099C182.864 50.9116 183.035 50.8389 183.122 50.6646C183.808 49.3273 184.555 47.9626 185.097 46.5575Z" fill="#35A9E1"/>
<path d="M152.348 57.4929C152.579 57.6545 152.818 57.6132 152.987 57.4738C153.158 57.4882 153.337 57.4204 153.444 57.2148C154.462 55.2782 155.162 52.8042 154.79 50.5961C154.619 49.5891 153.73 48.6932 152.654 49.1208C151.954 49.4019 151.665 49.9845 151.44 50.6128C151.043 50.2545 150.524 50.0382 149.959 50.0874C148.872 50.1754 148.453 51.2708 148.479 52.2305C148.537 54.6513 150.53 56.2332 152.348 57.4929Z" fill="#94C11C"/>
<path d="M165.747 46.9448C165.152 46.5446 164.455 46.3422 163.734 46.6214C162.692 47.0212 162.208 48.2122 162.347 49.2601C162.526 50.5672 163.522 51.6604 164.414 52.5692C165.307 53.478 166.308 54.2748 167.382 54.954C167.719 55.1652 168.054 54.9878 168.193 54.7146C168.416 54.7237 168.648 54.6236 168.758 54.3704C169.829 51.8778 171.211 49.0995 169.986 46.3889C169.504 45.3121 168.399 44.3849 167.174 44.9207C166.309 45.3001 165.925 46.0856 165.747 46.9448Z" fill="#EA5097"/>
<path d="M177.569 96.0535C177.765 96.0288 177.959 95.9106 178.055 95.6873C178.587 94.4389 179.1 93.1679 179.399 91.8388C179.659 90.6928 179.903 89.3294 179.418 88.2069C179.207 87.7255 178.8 87.2689 178.272 87.1285C177.651 86.9625 177.178 87.2989 176.824 87.7755C176.538 88.1631 176.328 88.5934 176.191 89.0473C175.784 88.6176 175.286 88.2892 174.714 88.1321C173.461 87.7889 172.344 88.5883 172.091 89.8263C171.828 91.1339 172.596 92.319 173.511 93.182C174.606 94.2118 175.872 95.115 177.072 96.02C177.235 96.1437 177.414 96.1361 177.569 96.0535Z" fill="#E84C0A"/>
<path d="M145.771 95.6403C145.324 95.3002 144.782 95.1025 144.233 95.2218C143.352 95.417 143 96.336 143.041 97.158C143.147 99.3464 144.714 101.267 146.054 102.871C146.406 103.293 146.964 102.977 147.039 102.544C147.918 102.108 148.406 101.138 148.801 100.256C149.305 99.1215 149.581 97.8712 149.35 96.63C149.172 95.6451 148.476 94.1016 147.252 94.2346C146.515 94.3232 146.04 94.9417 145.771 95.6403Z" fill="#E40039"/>
<path d="M192.578 84.0366C193.177 83.8993 193.722 84.5792 193.941 85.0656C194.9 87.1999 193.897 89.5226 192.915 91.7664L192.796 92.0353C192.669 92.0645 192.548 92.1256 192.445 92.2029C191.536 91.5998 190.694 90.9141 189.95 90.1526C189.118 89.3037 188.29 88.3867 188.153 87.4055C188.068 86.8012 188.335 86.0357 188.92 85.8077C188.963 85.7911 189.006 85.7745 189.051 85.7643C189.344 85.6971 189.68 85.7877 190.037 86.0278C190.265 86.1766 190.539 86.228 190.8 86.1681C190.851 86.1564 190.901 86.1383 190.95 86.1203C191.251 85.9977 191.471 85.7324 191.54 85.415C191.735 84.4848 192.104 84.2192 192.403 84.0903C192.471 84.0678 192.521 84.0498 192.578 84.0366ZM192.359 83.0808C192.251 83.1056 192.139 83.1447 192.022 83.1915C191.151 83.5725 190.769 84.3643 190.589 85.2172C190.066 84.8675 189.464 84.6702 188.833 84.8149C188.744 84.8353 188.656 84.8621 188.57 84.8953C187.534 85.2937 187.043 86.4862 187.183 87.534C187.362 88.8411 188.363 89.9328 189.249 90.843C190.142 91.7517 191.143 92.5484 192.218 93.2276C192.359 93.316 192.504 93.3363 192.631 93.3071C192.804 93.2677 192.942 93.1419 193.028 92.9882C193.082 92.9892 193.142 92.9888 193.199 92.9757C193.359 92.9391 193.51 92.8374 193.594 92.6504C194.666 90.1578 196.048 87.3794 194.823 84.6689C194.396 83.6868 193.442 82.8324 192.359 83.0808Z" fill="#FFCC00"/>
<path d="M160.647 92.0814C160.052 91.6812 159.355 91.4788 158.635 91.7581C157.593 92.1579 157.108 93.349 157.248 94.3969C157.427 95.7041 158.422 96.7973 159.314 97.7061C160.207 98.6149 161.208 99.4117 162.282 100.091C162.619 100.302 162.954 100.125 163.093 99.8514C163.316 99.8606 163.548 99.7604 163.658 99.5072C164.729 97.0145 166.111 94.236 164.886 91.5253C164.404 90.4485 163.3 89.5213 162.075 90.0571C161.209 90.4366 160.827 91.2285 160.647 92.0814Z" fill="#0055A4"/>
<path d="M160.061 77.5173C160.067 77.5159 160.093 77.51 160.143 77.5253C160.329 77.5765 160.531 77.785 160.645 78.0472C161 78.8643 160.82 79.9785 160.567 81.0691C160.31 82.2008 159.884 83.2975 159.42 84.403C159.331 84.3363 159.242 84.2695 159.153 84.2028C158.183 83.4798 157.178 82.7245 156.309 81.9179C155.686 81.3365 154.984 80.4381 155.178 79.4684C155.278 78.9694 155.604 78.6064 156.03 78.5085C156.202 78.4691 156.385 78.4742 156.578 78.5303C156.951 78.6328 157.295 78.8488 157.606 79.1799C157.845 79.4335 158.198 79.5403 158.536 79.4629L158.542 79.4614C158.884 79.3762 159.154 79.1199 159.253 78.7889C159.359 78.4358 159.52 78.1108 159.73 77.8279C159.93 77.5607 160.042 77.5217 160.061 77.5173ZM159.842 76.5618C159.485 76.6436 159.195 76.8979 158.947 77.2228C158.661 77.6104 158.451 78.0407 158.314 78.4946C157.907 78.0649 157.409 77.7365 156.836 77.5794C156.478 77.4804 156.128 77.4735 155.81 77.5466C155.013 77.7291 154.393 78.3876 154.221 79.2721C153.957 80.5797 154.725 81.7648 155.641 82.6278C156.735 83.6575 158.001 84.5607 159.201 85.4657C159.315 85.5536 159.446 85.5704 159.568 85.5427C159.612 85.5324 159.649 85.5173 159.692 85.5007C159.711 85.4963 159.73 85.4919 159.756 85.4861C159.928 85.4467 160.09 85.3357 160.177 85.1281C160.708 83.8797 161.221 82.6087 161.52 81.2796C161.78 80.1337 162.024 78.7702 161.539 77.6478C161.328 77.1664 160.922 76.7098 160.393 76.5694C160.202 76.526 160.014 76.5223 159.842 76.5618Z" fill="#EA5097"/>
<path d="M191.483 74.4098C191.931 73.2342 192.106 71.8329 191.299 70.7707C190.538 69.7649 189.178 69.5337 188.2 70.3881C187.754 70.7789 187.45 71.2978 187.27 71.8555C186.948 71.5067 186.578 71.2093 186.147 70.9932C185.614 70.7196 185.049 70.6213 184.562 71.0414C184.154 71.3965 183.979 71.9797 184 72.5112C184.051 73.7267 184.866 74.8541 185.6 75.7721C186.452 76.8305 187.468 77.751 188.484 78.6445C188.67 78.8098 188.888 78.8268 189.081 78.7624C189.249 78.7641 189.42 78.6913 189.508 78.5171C190.194 77.1797 190.94 75.815 191.483 74.4098Z" fill="#773E91"/>
<path d="M173.409 81.9744C173.641 82.1359 173.879 82.0945 174.048 81.9551C174.219 81.9696 174.398 81.9017 174.505 81.6961C175.523 79.7592 176.225 77.2912 175.852 75.0767C175.681 74.0696 174.792 73.1738 173.716 73.6015C173.016 73.8828 172.727 74.4655 172.503 75.0938C172.105 74.7356 171.586 74.5193 171.021 74.5685C169.935 74.6568 169.515 75.7522 169.541 76.7121C169.601 79.1394 171.591 80.7147 173.409 81.9744Z" fill="#94C11C"/>
<path d="M142.389 81.616C141.794 81.2158 141.097 81.0134 140.376 81.2927C139.335 81.6926 138.85 82.8837 138.989 83.9316C139.168 85.2388 140.163 86.332 141.056 87.2408C141.949 88.1496 142.949 88.9463 144.024 89.6256C144.361 89.8368 144.696 89.6593 144.834 89.3861C145.058 89.3952 145.29 89.2951 145.399 89.0419C146.471 86.5491 147.853 83.7706 146.629 81.0663C146.148 79.9895 145.043 79.0623 143.818 79.5981C142.949 79.9649 142.567 80.7568 142.389 81.616Z" fill="#35A9E1"/>
<path d="M150.33 116.75L148.552 117.157L148.78 118.151L150.443 117.77L150.523 118.12L148.861 118.501L149.112 119.597L150.915 119.184L150.998 119.547L148.775 120.056L148.046 116.878L150.243 116.374L150.33 116.75Z" fill="#E40039"/>
<path d="M150.905 117.155L151.288 117.068L151.739 119.037L152.689 118.819L152.237 116.85L152.62 116.762L153.071 118.731L154.02 118.514L153.569 116.544L153.951 116.457L154.403 118.426L154.702 118.357L154.946 119.422L154.583 119.505L154.415 118.772L151.439 119.454L150.912 117.154L150.905 117.155Z" fill="#E40039"/>
<path d="M156.088 118.468C155.412 118.623 154.902 118.271 154.73 117.519C154.559 116.774 154.877 116.171 155.514 116.025C156.272 115.851 156.698 116.391 156.85 117.053L156.861 117.104L155.128 117.502L155.128 117.528C155.24 118.019 155.581 118.249 156.027 118.147C156.359 118.071 156.505 117.89 156.533 117.515L156.902 117.43C156.91 117.991 156.629 118.344 156.088 118.468ZM155.573 116.34C155.203 116.425 155.004 116.752 155.058 117.196L156.396 116.889C156.257 116.458 155.955 116.252 155.573 116.34ZM155.23 115.721L154.822 115.815L154.718 115.363L155.126 115.269L155.23 115.721ZM156.071 115.529L155.669 115.621L155.566 115.168L155.967 115.076L156.071 115.529Z" fill="#E40039"/>
<path d="M159.155 114.412C159.442 114.319 159.62 114.278 159.651 114.15L160.027 114.064C160.053 114.555 159.573 114.658 159.179 114.782C158.684 114.936 158.512 115.384 158.573 115.941L158.585 115.938C158.643 115.603 158.893 115.317 159.275 115.23C159.925 115.081 160.424 115.415 160.597 116.168C160.774 116.939 160.479 117.469 159.797 117.626C159.256 117.75 158.748 117.524 158.512 116.907C158.464 116.784 158.426 116.645 158.391 116.492C158.29 116.053 158.218 115.506 158.362 115.11C158.485 114.74 158.722 114.545 159.155 114.412ZM159.723 117.301C160.15 117.203 160.338 116.824 160.21 116.263C160.085 115.721 159.742 115.451 159.315 115.549C158.888 115.647 158.691 116.048 158.814 116.583C158.926 117.101 159.277 117.403 159.723 117.301Z" fill="#E40039"/>
<path d="M163.144 115.543C163.324 116.327 163.019 116.873 162.318 117.034C161.611 117.196 161.086 116.84 160.911 116.075C160.737 115.316 161.062 114.745 161.757 114.586C162.46 114.432 162.969 114.778 163.144 115.543ZM161.311 115.977C161.441 116.544 161.791 116.813 162.257 116.706C162.703 116.604 162.893 116.204 162.763 115.637C162.637 115.089 162.283 114.801 161.837 114.903C161.385 115.013 161.185 115.428 161.311 115.977Z" fill="#E40039"/>
<path d="M165.781 116.166L165.399 116.253L164.947 114.283L164.124 114.472L164.326 115.499C164.48 116.256 164.237 116.574 163.918 116.647C163.81 116.672 163.689 116.672 163.632 116.659L163.562 116.352C163.619 116.366 163.722 116.349 163.773 116.338C163.926 116.302 164.062 116.131 163.967 115.629L163.685 114.223L165.253 113.864L165.781 116.166Z" fill="#E40039"/>
<path d="M167.545 115.761L166.327 116.04L165.8 113.739L166.182 113.652L166.384 114.531L167.206 114.343C167.659 114.239 168.02 114.438 168.121 114.878C168.212 115.306 167.998 115.657 167.545 115.761ZM166.452 114.858L166.628 115.623L167.329 115.462C167.641 115.39 167.775 115.212 167.719 114.97C167.664 114.728 167.474 114.63 167.155 114.703L166.454 114.864L166.452 114.858Z" fill="#E40039"/>
<path d="M168.125 113.207L168.507 113.119L168.959 115.089L169.909 114.871L169.457 112.902L169.84 112.814L170.291 114.784L171.241 114.566L170.789 112.596L171.172 112.508L171.699 114.81L168.659 115.507L168.131 113.206L168.125 113.207Z" fill="#E40039"/>
<path d="M173.244 114.534C172.569 114.689 172.058 114.337 171.886 113.584C171.715 112.839 172.033 112.236 172.67 112.089C173.429 111.915 173.855 112.455 174.007 113.118L174.018 113.169L172.285 113.567L172.284 113.594C172.397 114.085 172.738 114.315 173.184 114.213C173.516 114.137 173.662 113.955 173.69 113.58L174.06 113.495C174.068 114.057 173.786 114.41 173.244 114.534ZM172.729 112.405C172.36 112.489 172.16 112.817 172.214 113.261L173.553 112.954C173.414 112.523 173.112 112.317 172.729 112.405Z" fill="#E40039"/>
<path d="M175.896 113.847L175.368 111.545L177.281 111.106L177.809 113.409L177.426 113.496L176.975 111.526L175.82 111.79L176.272 113.761L175.896 113.847Z" fill="#E40039"/>
<path d="M178.278 111.221C178.39 110.893 178.627 110.725 178.964 110.647C179.608 110.5 180.122 110.871 180.293 111.617C180.464 112.362 180.173 112.932 179.542 113.077C179.204 113.154 178.943 113.1 178.684 112.878L178.962 114.089L178.58 114.176L177.848 110.984L178.204 110.902L178.278 111.221ZM178.471 112.035C178.6 112.595 178.951 112.87 179.397 112.768C179.83 112.669 180.019 112.263 179.892 111.709C179.763 111.148 179.418 110.872 178.972 110.974C178.533 111.075 178.342 111.474 178.471 112.035Z" fill="#E40039"/>
<path d="M181.019 112.672L180.491 110.371L180.874 110.283L181.305 112.164L181.311 112.163L181.919 110.044L182.404 109.933L182.931 112.234L182.549 112.322L182.118 110.441L182.111 110.442L181.503 112.561L181.019 112.672Z" fill="#E40039"/>
<path d="M182.962 109.805L184.027 109.56C184.429 109.468 184.838 109.468 184.946 109.94C185.002 110.183 184.91 110.365 184.722 110.515L184.724 110.522C185.003 110.511 185.224 110.682 185.294 110.988C185.385 111.384 185.156 111.732 184.748 111.825L183.491 112.114L182.962 109.805ZM184.571 110.087C184.527 109.896 184.401 109.817 184.063 109.894L183.406 110.045L183.545 110.651L184.202 110.5C184.526 110.419 184.616 110.285 184.571 110.087ZM183.785 111.697L184.595 111.511C184.837 111.456 184.94 111.258 184.89 111.041C184.842 110.83 184.677 110.727 184.365 110.799L183.618 110.97L183.785 111.697Z" fill="#E40039"/>
<path d="M185.892 111.554L185.364 109.254L185.747 109.166L186.178 111.046L186.184 111.045L186.792 108.927L187.276 108.816L187.804 111.116L187.421 111.204L186.99 109.324L186.984 109.325L186.376 111.443L185.892 111.554Z" fill="#E40039"/>
<path d="M190.296 110.546L189.913 110.633L189.462 108.663L188.639 108.852L188.841 109.879C188.994 110.636 188.752 110.953 188.433 111.027C188.324 111.051 188.204 111.052 188.147 111.038L188.077 110.732C188.134 110.746 188.237 110.729 188.288 110.717C188.441 110.682 188.576 110.51 188.481 110.009L188.199 108.603L189.768 108.244L190.296 110.546Z" fill="#E40039"/>
<path d="M191.834 110.273C191.159 110.427 190.648 110.075 190.476 109.323C190.305 108.577 190.623 107.974 191.26 107.828C192.019 107.654 192.445 108.194 192.597 108.856L192.608 108.907L190.874 109.305L190.874 109.332C190.986 109.823 191.328 110.053 191.774 109.951C192.105 109.875 192.252 109.694 192.28 109.318L192.649 109.234C192.657 109.795 192.376 110.148 191.834 110.273ZM191.319 108.143C190.949 108.228 190.75 108.555 190.804 108.999L192.143 108.692C192.004 108.261 191.702 108.055 191.319 108.143Z" fill="#E40039"/>
<path d="M193.18 107.809L193.632 109.779L193.249 109.867L192.722 107.565L194.303 107.203L194.38 107.541L193.182 107.816L193.18 107.809Z" fill="#E40039"/>
<path d="M195.117 109.441L194.589 107.139L194.972 107.051L195.403 108.932L195.409 108.931L196.017 106.811L196.502 106.7L197.03 109.002L196.647 109.09L196.216 107.209L196.21 107.21L195.601 109.33L195.117 109.441Z" fill="#E40039"/>
<path d="M197.602 108.868L197.075 106.568L197.457 106.481L197.888 108.36L197.894 108.358L198.501 106.241L198.986 106.13L199.513 108.43L199.131 108.517L198.7 106.638L198.693 106.64L198.086 108.757L197.602 108.868ZM197.97 106.088C197.601 106.173 197.28 105.972 197.153 105.625L197.383 105.573C197.496 105.775 197.68 105.873 197.909 105.821C198.138 105.768 198.254 105.601 198.274 105.368L198.504 105.316C198.522 105.687 198.359 105.999 197.97 106.088Z" fill="#E40039"/>
<path d="M200.602 108.181L200.13 108.289L200.027 107.837L200.498 107.728L200.602 108.181ZM200.077 105.981L200.293 107.42L200.089 107.467L199.663 106.076L199.44 105.101L199.86 105.004L200.084 105.979L200.077 105.981Z" fill="#E40039"/>
<path d="M65.3886 105.628L66.2136 107.149L66.2425 105.432L66.5994 105.35L67.3862 106.88L67.4597 105.153L67.7974 105.075L67.618 107.189L67.2739 107.268L66.5081 105.8L66.4646 107.454L66.1141 107.534L65.0254 105.711L65.3886 105.628Z" fill="white"/>
<path d="M68.2871 104.964L69.1119 106.485L69.141 104.768L69.4978 104.686L70.2845 106.216L70.3581 104.488L70.6959 104.411L70.5163 106.525L70.1722 106.604L69.4065 105.136L69.3629 106.79L69.0124 106.87L67.9238 105.047L68.2871 104.964Z" fill="white"/>
<path d="M71.1796 104.3L72.0046 105.821L72.0336 104.104L72.3904 104.022L73.1771 105.552L73.2507 103.824L73.5884 103.747L73.409 105.861L73.0649 105.94L72.2991 104.472L72.2555 106.126L71.9051 106.206L70.8164 104.383L71.1796 104.3Z" fill="white"/>
<path d="M74.8494 105.53L74.4221 105.629L74.3242 105.201L74.7515 105.103L74.8494 105.53Z" fill="white"/>
<path d="M76.2636 105.268C75.6515 105.408 75.2314 105.068 75.0941 104.469C74.9436 103.812 75.2184 103.313 75.7986 103.179C76.2832 103.068 76.6413 103.255 76.7945 103.689L76.4566 103.767C76.335 103.499 76.1292 103.392 75.8614 103.454C75.4853 103.54 75.318 103.894 75.4261 104.366C75.5357 104.844 75.8261 105.086 76.1895 105.003C76.4828 104.935 76.6395 104.711 76.616 104.375L76.9475 104.298C76.9968 104.777 76.7545 105.155 76.2636 105.268Z" fill="white"/>
<path d="M77.4047 103.168C77.5016 102.918 77.6919 102.753 77.9721 102.689C78.4435 102.581 78.6945 102.798 78.7879 103.206L79.0975 104.557L78.7726 104.631L78.4806 103.357C78.4178 103.083 78.2912 102.911 77.9408 102.991C77.5268 103.086 77.4538 103.411 77.556 103.857L77.7853 104.858L77.4604 104.932L76.8369 102.212L77.1618 102.137L77.3983 103.169L77.4047 103.168Z" fill="white"/>
<path d="M79.4067 102.044L79.0754 102.12L78.9834 101.719L79.3147 101.643L79.4067 102.044ZM79.9383 104.364L79.6069 104.44L79.1557 102.471L79.4871 102.395L79.9383 104.364Z" fill="white"/>
<path d="M80.894 102.353L80.4988 102.444L80.7632 103.598C80.8041 103.776 80.8177 103.894 81.0472 103.841C81.1109 103.827 81.1541 103.81 81.2227 103.788L81.287 104.068C81.1865 104.098 81.1482 104.107 81.0399 104.131C80.5491 104.244 80.5127 103.997 80.4133 103.564L80.1737 102.518L79.8423 102.594L79.7809 102.327L80.1123 102.251L79.9779 101.664L80.303 101.59L80.4374 102.176L80.8326 102.085L80.894 102.353Z" fill="white"/>
<path d="M83.3921 103.565C83.3278 103.607 83.2542 103.637 83.1777 103.655C82.9927 103.697 82.8737 103.617 82.8235 103.427C82.6755 103.69 82.487 103.833 82.1809 103.904C81.7919 103.993 81.4999 103.832 81.421 103.487C81.3407 103.137 81.5284 102.872 81.9822 102.714C82.4409 102.549 82.6032 102.525 82.5419 102.257C82.4936 102.047 82.3079 101.968 82.021 102.034C81.7213 102.103 81.5867 102.248 81.622 102.549L81.3032 102.622C81.2195 102.198 81.4686 101.879 81.9787 101.762C82.2402 101.702 82.4858 101.719 82.6411 101.811C82.8121 101.913 82.8524 102.119 82.8919 102.291C82.9591 102.584 83.0136 102.88 83.0808 103.174C83.1144 103.32 83.158 103.364 83.26 103.341C83.2919 103.333 83.3032 103.324 83.34 103.309L83.3984 103.564L83.3921 103.565ZM82.2232 102.887C81.9945 102.973 81.6752 103.073 81.7482 103.392C81.795 103.596 81.9709 103.69 82.2196 103.633C82.5257 103.563 82.7707 103.285 82.7123 103.03L82.6305 102.673C82.5361 102.789 82.3654 102.834 82.2232 102.887Z" fill="white"/>
<path d="M83.5102 101.103L83.1789 101.179L83.0869 100.777L83.4182 100.701L83.5102 101.103ZM84.0418 103.422L83.7105 103.498L83.2592 101.529L83.5906 101.453L84.0418 103.422Z" fill="white"/>
<path d="M85.3964 102.165L84.281 102.421L84.208 102.103L85.3234 101.847L85.3964 102.165Z" fill="white"/>
<path d="M87.6941 102.363C87.7715 102.7 87.7761 102.867 87.7171 103.048C87.631 103.316 87.3848 103.5 87.0218 103.583C86.6269 103.674 86.219 103.62 86.0609 103.193L86.3921 103.117C86.4815 103.332 86.6719 103.402 86.9776 103.332C87.3852 103.238 87.507 103.009 87.4097 102.555L87.3606 102.312C87.2902 102.59 87.1112 102.745 86.8182 102.812C86.2896 102.933 85.863 102.622 85.7228 102.01C85.6002 101.475 85.7764 100.899 86.3687 100.763C86.6426 100.7 86.8996 100.768 87.0703 100.957L87.0046 100.67L87.2912 100.605L87.6941 102.363ZM86.0476 101.936C86.1469 102.369 86.4419 102.603 86.7858 102.524C87.1425 102.442 87.2983 102.098 87.1888 101.621C87.0866 101.175 86.8087 100.957 86.4393 101.042C86.0826 101.123 85.9381 101.458 86.0476 101.936Z" fill="white"/>
<path d="M89.8098 101.052C89.9632 101.722 89.7016 102.191 89.1023 102.328C88.4965 102.467 88.0503 102.16 87.9013 101.51C87.7522 100.86 88.03 100.373 88.6294 100.236C89.2224 100.1 89.6593 100.395 89.8098 101.052ZM88.2377 101.426C88.3488 101.911 88.6505 102.143 89.0458 102.053C89.4284 101.965 89.5907 101.619 89.4797 101.134C89.3715 100.663 89.0669 100.417 88.6843 100.505C88.3018 100.593 88.1296 100.954 88.2377 101.426Z" fill="white"/>
<path d="M91.0654 100.041C91.0321 100.042 91.013 100.047 90.9812 100.054C90.4461 100.177 90.444 100.606 90.5462 101.052L90.7376 101.887L90.4127 101.961L89.9614 99.9928L90.2735 99.9213L90.3714 100.348C90.4356 99.9847 90.6391 99.7905 90.9959 99.7087L91.0718 100.04L91.0654 100.041Z" fill="white"/>
<path d="M93.2757 100.259C93.4292 100.929 93.1677 101.398 92.5683 101.535C91.9625 101.674 91.5163 101.367 91.3672 100.717C91.2181 100.067 91.4958 99.5802 92.0952 99.4428C92.6882 99.3068 93.1252 99.6026 93.2757 100.259ZM91.7037 100.633C91.8148 101.118 92.1165 101.35 92.5118 101.26C92.8944 101.172 93.0567 100.826 92.9456 100.342C92.8374 99.8699 92.5328 99.6243 92.1502 99.712C91.7676 99.7998 91.5955 100.161 91.7037 100.633Z" fill="white"/>
<path d="M95.6676 100.757L95.3618 100.827L95.2947 100.534C95.2247 100.785 95.0232 100.958 94.7238 101.027C94.1633 101.155 93.721 100.835 93.5735 100.191C93.445 99.6306 93.6284 99.0856 94.2336 98.9468C94.5202 98.8811 94.7616 98.9397 94.9499 99.1178L94.7192 98.1113L95.044 98.0368L95.6676 100.757ZM93.9047 100.115C94.0142 100.593 94.32 100.845 94.6958 100.758C95.0716 100.672 95.2337 100.327 95.1242 99.8489C95.0337 99.454 94.7834 99.1225 94.3375 99.2247C93.9681 99.3095 93.7981 99.6502 93.9047 100.115Z" fill="white"/>
<path d="M96.6505 100.531L96.2222 100.63L96.124 100.201L96.5523 100.103L96.6505 100.531Z" fill="white"/>
<path d="M97.8623 98.4838C97.829 98.4847 97.8099 98.4891 97.7781 98.4964C97.243 98.6191 97.2409 99.0486 97.3431 99.4945L97.5345 100.329L97.2096 100.403L96.7583 98.4352L97.0704 98.3636L97.1683 98.7904C97.2325 98.4271 97.436 98.2329 97.7928 98.1511L97.8687 98.4823L97.8623 98.4838Z" fill="white"/>
<path d="M100.129 99.7341L99.8294 99.8029L99.7578 99.4904C99.6427 99.7786 99.4522 99.9431 99.1589 100.01C98.7445 100.105 98.4482 99.9251 98.3488 99.4915L98.0376 98.1333L98.3627 98.0587L98.6535 99.3276C98.7178 99.6082 98.8445 99.7805 99.1761 99.7044C99.6032 99.6064 99.6861 99.2653 99.5925 98.8572L99.3558 97.8242L99.681 97.7496L100.135 99.7327L100.129 99.7341Z" fill="white"/>
<path d="M73.2013 137.622C72.589 137.762 72.1688 137.422 72.0298 136.816C71.8792 136.16 72.1541 135.66 72.7344 135.527C73.2191 135.416 73.5773 135.603 73.7307 136.037L73.3927 136.115C73.2709 135.847 73.0651 135.74 72.7973 135.801C72.421 135.888 72.2538 136.242 72.362 136.713C72.4731 137.198 72.7621 137.434 73.1256 137.351C73.419 137.283 73.5757 137.059 73.5522 136.723L73.8838 136.646C73.9346 137.132 73.6923 137.509 73.2013 137.622Z" fill="white"/>
<path d="M75.2413 137.16C74.661 137.293 74.2225 136.991 74.0748 136.347C73.9285 135.709 74.199 135.191 74.7474 135.065C75.3979 134.916 75.7587 135.377 75.8889 135.944L75.8991 135.989L74.4132 136.329L74.4127 136.356C74.5092 136.777 74.8022 136.972 75.1848 136.884C75.4654 136.82 75.5971 136.662 75.6176 136.342L75.9365 136.269C75.9539 136.755 75.7132 137.052 75.2413 137.16ZM74.8039 135.341C74.4851 135.414 74.3145 135.694 74.3611 136.073L75.509 135.81C75.3908 135.441 75.1292 135.266 74.8039 135.341Z" fill="white"/>
<path d="M76.8734 134.947L77.2594 136.63L76.9342 136.704L76.5481 135.021L75.8402 135.183L75.7744 134.896L77.5155 134.497L77.5813 134.784L76.8734 134.947Z" fill="white"/>
<path d="M79.2578 136.171L78.2123 136.411L77.7607 134.44L78.0859 134.366L78.2583 135.118L78.9595 134.957C79.3484 134.868 79.656 135.039 79.7422 135.416C79.827 135.785 79.6403 136.083 79.2578 136.171ZM78.3226 135.399L78.4731 136.056L79.0724 135.918C79.3401 135.857 79.4526 135.703 79.4043 135.493C79.3561 135.283 79.1896 135.2 78.9218 135.261L78.3226 135.399Z" fill="white"/>
<path d="M82.6226 135.4L81.6797 134.596L81.436 134.968L81.5895 135.637L81.2643 135.712L80.8125 133.741L81.1377 133.667L81.3541 134.61L82.0432 133.459L82.4769 133.36L81.8581 134.32L83.0322 135.313L82.624 135.407L82.6226 135.4Z" fill="white"/>
<path d="M83.2525 135.255L82.8008 133.285L83.1259 133.211L83.3057 133.995L84.2939 133.768L84.1141 132.984L84.4393 132.909L84.891 134.879L84.5658 134.954L84.3582 134.049L83.3701 134.275L83.5776 135.181L83.2525 135.255Z" fill="white"/>
<path d="M85.3794 134.767L84.9277 132.797L85.2529 132.722L85.6212 134.329L85.6276 134.327L86.1454 132.518L86.5598 132.423L87.0115 134.392L86.6863 134.467L86.3165 132.854L86.3101 132.856L85.7938 134.672L85.3794 134.767Z" fill="white"/>
<path d="M87.6605 134.244L87.2591 134.336L87.8598 132.978L86.9223 132.341L87.3238 132.249L88.3341 132.97L88.3405 132.968L88.133 132.063L88.458 131.989L88.6654 132.894L88.6718 132.892L89.2672 131.803L89.6686 131.711L89.1023 132.693L90.2348 133.654L89.8334 133.746L88.9388 132.945L88.7536 133.249L88.9158 133.956L88.5844 134.032L88.4223 133.325L88.1232 133.132L87.6605 134.244Z" fill="white"/>
<path d="M90.4762 133.599L90.0244 131.629L90.3496 131.554L90.5294 132.339L91.5175 132.112L91.3377 131.328L91.6629 131.253L92.1146 133.223L91.7895 133.298L91.5819 132.393L90.5937 132.619L90.8013 133.524L90.4762 133.599Z" fill="white"/>
<path d="M93.5417 132.895L92.5921 133.113L92.1406 131.144L92.4657 131.069L92.6381 131.821L93.2499 131.681C93.6387 131.592 93.9462 131.763 94.0324 132.139C94.1172 132.508 93.9305 132.806 93.5417 132.895ZM92.7024 132.102L92.8529 132.758L93.3627 132.641C93.6304 132.58 93.7429 132.427 93.6947 132.216C93.6464 132.006 93.4799 131.923 93.2122 131.985L92.7024 132.102ZM94.3586 130.635L94.8101 132.604L94.485 132.679L94.0335 130.709L94.3586 130.635Z" fill="white"/>
<path d="M95.9872 131.215L97.0028 132.103L96.5884 132.198L95.848 131.516L95.4853 132.451L95.0836 132.543L95.5849 131.335L94.6892 130.56L95.1037 130.465L95.7369 131.031L96.0729 130.243L96.4682 130.152L95.9872 131.215Z" fill="white"/>
<path d="M100.149 131.382L99.7921 129.826L99.7794 129.829L99.5495 131.519L99.2498 131.588L98.3065 130.167L98.2937 130.169L98.6505 131.725L98.3316 131.798L97.8799 129.828L98.3453 129.721L99.3117 131.184L99.3181 131.183L99.5505 129.445L100.016 129.338L100.468 131.308L100.149 131.382Z" fill="white"/>
<path d="M102.703 130.79C102.638 130.832 102.565 130.862 102.488 130.879C102.303 130.922 102.184 130.842 102.134 130.652C101.986 130.914 101.797 131.058 101.491 131.128C101.102 131.217 100.81 131.056 100.731 130.712C100.651 130.361 100.839 130.096 101.291 129.932C101.75 129.767 101.912 129.743 101.851 129.475C101.802 129.265 101.617 129.186 101.33 129.252C101.03 129.321 100.895 129.466 100.931 129.766L100.612 129.84C100.528 129.416 100.777 129.097 101.281 128.981C101.543 128.921 101.788 128.939 101.944 129.031C102.115 129.133 102.155 129.338 102.194 129.51C102.262 129.804 102.316 130.1 102.383 130.393C102.417 130.54 102.461 130.584 102.563 130.56C102.595 130.553 102.606 130.544 102.643 130.528L102.703 130.79ZM101.533 130.112C101.305 130.198 100.985 130.298 101.059 130.616C101.105 130.821 101.281 130.914 101.53 130.857C101.836 130.787 102.081 130.51 102.023 130.254L101.941 129.897C101.847 130.013 101.676 130.059 101.533 130.112Z" fill="white"/>
<path d="M102.953 128.967L103.339 130.651L103.014 130.725L102.562 128.755L103.914 128.445L103.98 128.732L102.953 128.967Z" fill="white"/>
<path d="M106.36 129.951C106.296 129.993 106.222 130.023 106.145 130.04C105.961 130.083 105.841 130.003 105.791 129.813C105.643 130.075 105.455 130.219 105.149 130.289C104.76 130.378 104.468 130.217 104.389 129.873C104.308 129.522 104.496 129.257 104.948 129.093C105.407 128.928 105.569 128.904 105.508 128.636C105.46 128.426 105.274 128.347 104.987 128.413C104.687 128.482 104.553 128.627 104.588 128.928L104.269 129.001C104.185 128.577 104.434 128.258 104.945 128.141C105.206 128.081 105.452 128.099 105.607 128.191C105.778 128.292 105.819 128.498 105.858 128.67C105.925 128.963 105.98 129.26 106.047 129.553C106.081 129.7 106.124 129.743 106.226 129.72C106.258 129.713 106.27 129.703 106.306 129.688L106.366 129.95L106.36 129.951ZM105.197 129.271C104.968 129.357 104.649 129.457 104.722 129.776C104.769 129.98 104.945 130.074 105.194 130.017C105.5 129.947 105.745 129.669 105.686 129.414L105.604 129.057C105.504 129.174 105.333 129.22 105.197 129.271Z" fill="white"/>
<path d="M106.927 127.694C107.335 127.6 107.704 127.69 107.788 128.053C107.839 128.276 107.716 128.472 107.564 128.541L107.565 128.547C107.757 128.537 107.99 128.644 108.06 128.95C108.158 129.378 107.806 129.686 107.392 129.781C106.875 129.9 106.5 129.724 106.383 129.302L106.714 129.226C106.798 129.502 107.045 129.586 107.332 129.52C107.644 129.448 107.777 129.237 107.73 129.033C107.685 128.835 107.536 128.742 107.236 128.811L106.962 128.873L106.902 128.612L107.119 128.562C107.349 128.51 107.513 128.378 107.46 128.148C107.427 128.002 107.249 127.902 106.982 127.963C106.746 128.017 106.532 128.167 106.561 128.442L106.23 128.518C106.155 128.018 106.525 127.786 106.927 127.694Z" fill="white"/>
<path d="M108.576 129.45L108.124 127.479L108.449 127.405L108.817 129.012L108.824 129.01L109.342 127.2L109.756 127.105L110.208 129.075L109.883 129.15L109.513 127.537L109.506 127.538L108.99 129.355L108.576 129.45Z" fill="white"/>
<path d="M110.704 128.961L110.252 126.991L110.577 126.917L110.757 127.701L111.745 127.474L111.565 126.69L111.89 126.616L112.342 128.586L112.017 128.66L111.809 127.755L110.821 127.981L111.029 128.887L110.704 128.961Z" fill="white"/>
<path d="M114.409 127.065C114.562 127.735 114.301 128.204 113.701 128.341C113.096 128.48 112.649 128.173 112.5 127.523C112.351 126.872 112.629 126.386 113.228 126.248C113.828 126.111 114.258 126.408 114.409 127.065ZM112.835 127.433C112.946 127.917 113.248 128.15 113.643 128.059C114.026 127.972 114.188 127.626 114.077 127.141C113.969 126.669 113.664 126.424 113.282 126.511C112.901 126.605 112.728 126.967 112.835 127.433Z" fill="white"/>
<path d="M114.565 126.002L115.477 125.793C115.821 125.714 116.17 125.715 116.262 126.117C116.31 126.327 116.231 126.479 116.067 126.611L116.068 126.617C116.308 126.609 116.495 126.754 116.555 127.016C116.633 127.354 116.44 127.653 116.089 127.733L115.012 127.98L114.559 126.004L114.565 126.002ZM115.936 126.245C115.898 126.079 115.788 126.011 115.501 126.076L114.94 126.205L115.059 126.721L115.62 126.593C115.9 126.528 115.974 126.411 115.936 126.245ZM115.265 127.62L115.96 127.461C116.164 127.414 116.253 127.246 116.209 127.055C116.168 126.876 116.027 126.788 115.759 126.849L115.121 126.996L115.265 127.62Z" fill="white"/>
<path d="M97.4113 116.517C97.7553 116.439 98.3676 116.184 98.6348 116.063L99.1899 118.484L100.477 118.189L99.1314 112.321L97.8445 112.616L98.3967 115.024C98.2207 115.105 97.6182 115.343 97.2615 115.425C96.6052 115.576 96.2856 115.381 96.1235 114.674L95.7626 113.1L94.4757 113.395L94.8336 114.956C95.1847 116.458 96.0925 116.82 97.4113 116.517ZM78.585 117.032L80.2805 129.311L83.4469 128.585L80.044 116.697L78.585 117.032ZM70.8642 131.47L78.8216 129.645L77.1261 117.366L68.1048 119.435L70.8642 131.47ZM118.491 109.773L118.516 109.767L119.45 113.838L120.737 113.543L119.391 107.675L117.945 108.007L116.666 112.579L116.641 112.584L115.709 108.52L114.422 108.815L115.767 114.683L117.22 114.349L118.491 109.773ZM116.883 107.761C117.717 107.57 118.17 106.855 118.061 106.056L117.258 106.24C117.263 106.554 117.084 106.856 116.696 106.945C116.301 107.036 116.014 106.84 115.882 106.555L115.079 106.739C115.329 107.507 116.048 107.952 116.883 107.761ZM111.218 115.726L111.395 114.304L113.58 113.803L114.346 115.008L115.697 114.699L112.12 109.336L110.795 109.64L109.906 116.027L111.218 115.726ZM111.777 110.937L113.054 112.938L111.499 113.294L111.777 110.937ZM86.3393 127.922L87.7091 127.608L84.9496 115.573L82.9364 116.034L86.3393 127.922ZM104.93 117.167L106.217 116.872L105.123 112.1L106.894 111.694L107.988 116.466L109.281 116.17L108.187 111.398L110.124 110.954L109.873 109.858L103.419 111.338L102.14 115.909L102.115 115.915L101.183 111.85L99.8959 112.145L101.241 118.013L102.694 117.68L103.971 113.102L103.997 113.096L104.93 117.167ZM101.83 118.066C100.072 118.469 99.1976 119.95 99.6242 121.811C100.045 123.646 101.493 124.608 103.226 124.211C104.952 123.815 105.828 122.313 105.409 120.484C104.988 118.65 103.538 117.674 101.83 118.066ZM102.996 123.15C101.994 123.373 101.209 122.755 100.919 121.494C100.64 120.277 101.077 119.345 102.052 119.122C103.033 118.897 103.814 119.522 104.099 120.765C104.385 122.014 103.964 122.928 102.996 123.15ZM112.724 115.568C110.972 115.97 110.092 117.452 110.519 119.313C110.939 121.148 112.381 122.111 114.126 121.711C115.853 121.315 116.729 119.813 116.31 117.985C115.883 116.152 114.438 115.175 112.724 115.568ZM113.89 120.652C112.889 120.875 112.109 120.256 111.82 118.994C111.541 117.777 111.978 116.846 112.953 116.622C113.934 116.397 114.721 117.021 115.006 118.264C115.286 119.514 114.865 120.429 113.89 120.652ZM107.531 116.9L105.002 117.48L106.349 123.354L107.629 123.06L107.146 120.951L108.464 120.649C109.643 120.379 110.412 119.579 110.118 118.298C109.82 116.998 108.799 116.609 107.531 116.9ZM108.052 119.67L106.905 119.933L106.518 118.245L107.672 117.981C108.239 117.851 108.718 117.982 108.861 118.606C109.015 119.248 108.632 119.538 108.052 119.67ZM89.216 114.789L93.7845 126.261L95.1668 125.71L90.5983 114.237L89.216 114.789ZM88.4354 127.441L91.2513 126.795L88.4919 114.76L85.6759 115.406L88.4354 127.441ZM99.2615 118.796L95.8976 119.567L97.2444 125.441L98.5314 125.146L97.4372 120.374L99.5142 119.898L99.2615 118.796ZM121.897 118.635L120.802 113.857L116.622 114.815L116.827 115.707C117.224 117.44 117.256 118.72 116.775 119.81L116.329 119.912L116.925 122.511L118.167 122.226L117.823 120.723L121.55 119.868L121.894 121.372L123.143 121.086L122.547 118.486L121.897 118.635ZM120.617 118.929L118.221 119.478C118.52 118.41 118.542 117.279 118.174 115.673L118.15 115.571L119.769 115.2L120.623 118.927L120.617 118.929Z" fill="white"/>
<path d="M60.6789 73.2946L64.4163 76.6362L62.9699 76.9678L60.0616 74.2879L59.3299 75.455L59.8413 77.6852L58.688 77.9496L57.167 71.3164L58.3203 71.052L59.0114 74.0659L61.2578 70.3785L62.7297 70.041L60.6789 73.2946Z" fill="white"/>
<path d="M65.8582 71.0868C66.999 70.8253 67.9302 71.0545 68.167 72.0868L68.7267 74.5276C68.791 74.808 68.8658 74.8713 69.0634 74.826C69.1399 74.8085 69.1781 74.7997 69.3012 74.7513L69.4722 75.4969C69.1534 75.6572 69.0112 75.71 68.8073 75.7567C68.3994 75.8502 68.0634 75.7596 67.8904 75.3565C67.5472 75.8779 66.9719 76.1775 66.3346 76.3236C65.3341 76.553 64.5839 76.1481 64.3808 75.2623C64.0885 73.9878 65.2525 73.5935 66.1855 73.2454C66.9029 72.9804 67.1029 72.8875 67.1727 72.724C67.2042 72.6564 67.1985 72.5437 67.1576 72.3652C67.0436 71.8682 66.6723 71.7118 66.0032 71.8652C65.3149 72.023 65.0695 72.3275 65.1298 72.971L64.1229 73.2018C63.9786 71.9873 64.6856 71.3557 65.8582 71.0868ZM66.3355 73.9288C65.856 74.1192 65.322 74.3355 65.4681 74.9728C65.5733 75.4316 65.9519 75.6198 66.5 75.4942C66.9397 75.3934 67.3154 75.1597 67.502 74.862C67.6739 74.5878 67.5945 74.2706 67.5287 73.9839L67.3987 73.4167C67.0984 73.6868 66.7062 73.7901 66.3355 73.9288Z" fill="white"/>
<path d="M70.1807 70.928C70.3943 70.3088 70.9441 69.9278 71.5687 69.7846C72.9006 69.4792 73.9918 70.2889 74.3483 71.844C74.6975 73.3672 74.0828 74.5479 72.7891 74.8446C72.1391 74.9937 71.5527 74.8933 71.0476 74.4457L71.6014 76.8611L70.5499 77.1022L69.039 70.5123L70.0395 70.2829L70.1871 70.9266L70.1807 70.928ZM70.6046 72.689C70.8442 73.7342 71.4923 74.2498 72.3399 74.0554C73.1492 73.8698 73.508 73.1234 73.2728 72.0973C73.0331 71.0521 72.3713 70.5062 71.5493 70.6947C70.7081 70.8876 70.3635 71.6374 70.6046 72.689Z" fill="white"/>
<path d="M77.0362 69.5635L77.9467 73.535L76.8822 73.7791L75.9716 69.8076L74.3843 70.1716L74.1914 69.3301L78.4242 68.3595L78.6171 69.2009L77.0362 69.5635Z" fill="white"/>
<path d="M81.0584 67.6024C82.1991 67.3409 83.1304 67.5701 83.3672 68.6025L83.9268 71.0433C83.9911 71.3237 84.066 71.3871 84.2636 71.3418C84.3401 71.3242 84.3783 71.3155 84.5014 71.2671L84.6723 72.0128C84.3536 72.173 84.2114 72.2258 84.0075 72.2725C83.5996 72.366 83.2636 72.2754 83.0906 71.8723C82.7474 72.3937 82.1721 72.6933 81.5348 72.8394C80.5343 73.0688 79.7841 72.664 79.581 71.7781C79.2887 70.5035 80.4527 70.1092 81.3857 69.7611C82.103 69.4961 82.3031 69.4032 82.3729 69.2396C82.4044 69.1721 82.3987 69.0593 82.3578 68.8809C82.2438 68.3838 81.8725 68.2274 81.2034 68.3809C80.5151 68.5387 80.2697 68.8431 80.33 69.4867L79.3231 69.7175C79.1724 68.5044 79.8858 67.8713 81.0584 67.6024ZM81.5357 70.4445C81.0562 70.6349 80.5222 70.8513 80.6683 71.4886C80.7736 71.9474 81.1521 72.1357 81.7002 72.01C82.1399 71.9092 82.5156 71.6755 82.7022 71.3778C82.8741 71.1036 82.7947 70.7864 82.7289 70.4996L82.5989 69.9324C82.2922 70.204 81.9064 70.3058 81.5357 70.4445Z" fill="white"/>
<path d="M65.2038 87.8562L63.9121 82.223L61.8604 82.6934L62.464 85.8819C62.8128 87.7538 62.2304 88.6654 61.281 88.8831C61.0197 88.943 60.7375 88.9406 60.5523 88.9227L60.3477 88.0306C60.5011 88.0558 60.7285 88.0238 60.824 88.0019C61.3019 87.8923 61.6008 87.5286 61.271 85.8268L60.5159 81.9487L64.8488 80.9552L66.3713 87.5952L65.2052 87.8626L65.2038 87.8562Z" fill="white"/>
<path d="M73.6282 83.3941C73.9876 84.9614 73.3221 86.1535 71.9014 86.4793C70.5508 86.789 69.4666 86.1255 69.0462 84.7599L68.1798 84.9586L68.6634 87.0675L67.5994 87.3115L66.4965 82.5011L67.5604 82.2572L67.9972 84.1622L68.8828 83.9591C68.7719 82.6567 69.4665 81.6793 70.7342 81.3886C72.152 81.0501 73.2718 81.8395 73.6282 83.3941ZM70.0288 84.2194C70.2771 85.3026 70.8897 85.8394 71.6988 85.6539C72.4888 85.4728 72.7984 84.7177 72.5501 83.6346C72.3091 82.5833 71.6965 82.0465 70.9001 82.2291C70.1151 82.4024 69.7877 83.1682 70.0288 84.2194Z" fill="white"/>
<path d="M77.4014 85.1985C76.3756 85.4337 75.4911 85.1738 74.917 84.3665C74.6451 83.9996 74.4659 83.5109 74.3257 82.8992C74.1138 81.9753 73.9822 80.758 74.2837 79.9378C74.5587 79.1772 75.087 78.761 75.9835 78.4884C76.5595 78.3094 76.8378 78.2657 76.8921 78.0051L77.9562 77.7612C78.0329 78.944 77.1228 79.099 76.0777 79.4258C75.165 79.7156 74.8135 80.5809 74.8042 81.6225L74.8297 81.6167C75.0688 80.9046 75.4698 80.4304 76.4 80.2171C77.6234 79.9366 78.7997 80.6796 79.146 82.1897C79.5021 83.6841 78.8032 84.8771 77.4014 85.1985ZM76.4145 81.0991C75.6435 81.2758 75.2544 82.0357 75.4823 83.0297C75.7117 84.03 76.3945 84.5508 77.1654 84.3741C77.9364 84.1973 78.3241 83.4311 78.0947 82.4307C77.8682 81.4431 77.1854 80.9223 76.4145 81.0991Z" fill="white"/>
<path d="M80.5938 84.3279L79.4902 79.5146L80.5548 79.2705L81.3587 82.7769L81.3842 82.771L82.378 78.8525L83.7231 78.544L84.8267 83.3573L83.7621 83.6014L82.9582 80.095L82.9327 80.1009L81.9389 84.0195L80.5938 84.3279Z" fill="white"/>
<path d="M85.945 83.0985L84.8418 78.2871L86.2438 77.9656L88.4652 81.481L88.4843 81.4766L88.9013 77.3563L90.3033 77.0349L91.4065 81.8463L90.3805 82.0815L89.6484 78.8888L89.6229 78.8946L89.2093 82.3567L88.1387 82.6022L86.2581 79.6661L86.239 79.6705L86.9725 82.8696L85.9465 83.1049L85.945 83.0985Z" fill="white"/>
<path d="M96.5888 78.1299C96.9482 79.6976 96.2443 80.8986 94.7659 81.2376C93.262 81.5824 92.086 80.8124 91.7265 79.2448C91.3715 77.6963 92.1058 76.4815 93.597 76.1396C95.0676 75.7957 96.2323 76.575 96.5888 78.1299ZM92.8035 78.9979C93.0519 80.0812 93.7093 80.6079 94.5695 80.4106C95.4107 80.2178 95.7651 79.4523 95.5167 78.369C95.2756 77.3176 94.6183 76.7908 93.7771 76.9837C92.9281 77.1717 92.5624 77.9464 92.8035 78.9979Z" fill="white"/>
<path d="M98.1784 76.116L99.089 80.0876L98.0244 80.3317L96.9209 75.5186L100.287 74.7467L100.48 75.5882L98.1784 76.116Z" fill="white"/>
<path d="M106.081 75.9543C106.441 77.522 105.737 78.723 104.258 79.062C102.754 79.4068 101.578 78.6367 101.219 77.0691C100.864 75.5205 101.598 74.3058 103.089 73.9639C104.566 73.6186 105.725 74.3994 106.081 75.9543ZM102.296 76.8222C102.544 77.9055 103.202 78.4322 104.062 78.235C104.903 78.0422 105.257 77.2767 105.009 76.1934C104.768 75.1419 104.111 74.6152 103.269 74.808C102.427 74.9945 102.055 75.7707 102.296 76.8222Z" fill="white"/>
<path d="M69.0137 98.3823L67.8474 98.6497L66.5556 93.0157L63.5158 93.7127L64.8076 99.3467L63.6413 99.6141L62.1201 92.9795L67.4925 91.7476L69.0137 98.3823Z" fill="white"/>
<path d="M74.329 94.6339C74.6885 96.2015 73.9846 97.4026 72.5061 97.7415C71.0022 98.0864 69.8262 97.3163 69.4668 95.7487C69.1117 94.2002 69.8461 92.9855 71.3372 92.6435C72.8142 92.2982 73.9711 93.0726 74.329 94.6339ZM70.5438 95.5018C70.7922 96.5851 71.4495 97.1118 72.3098 96.9146C73.151 96.7217 73.5054 95.9563 73.257 94.873C73.0159 93.8215 72.3585 93.2948 71.5174 93.4876C70.6747 93.6741 70.3027 94.4503 70.5438 95.5018Z" fill="white"/>
<path d="M78.9834 96.0972L76.9786 94.2888L76.4931 95.098L76.8351 96.5899L75.7705 96.834L74.667 92.0205L75.7316 91.7764L76.2212 93.9122L77.6504 91.3363L78.9445 91.0396L77.5132 93.4011L80.2648 95.8034L78.9834 96.0972Z" fill="white"/>
<path d="M83.2181 95.0306C83.0858 96.0336 83.0554 97.1006 81.8701 97.3724C81.647 97.4236 81.4975 97.4444 81.1177 97.4846L80.9131 96.5923C81.2131 96.5839 81.3547 96.5581 81.4885 96.5274C82.0302 96.4032 82.017 95.7018 82.0608 95.249L79.1416 91.001L80.3078 90.7335L82.4075 93.9821L82.8059 90.1607L83.9148 89.9064L83.2181 95.0306Z" fill="white"/>
<path d="M85.6133 94.5769L84.5098 89.7637L88.7427 88.7931L89.8462 93.6063L88.7816 93.8504L87.871 89.8787L85.7609 90.3625L86.6715 94.3343L85.6133 94.5769Z" fill="white"/>
<path d="M91.8856 87.9179C93.0263 87.6563 93.9576 87.8855 94.1943 88.9179L94.754 91.3586C94.8183 91.639 94.8932 91.7023 95.0907 91.657C95.1672 91.6395 95.2055 91.6307 95.3285 91.5824L95.4995 92.328C95.1807 92.4883 95.0385 92.541 94.8346 92.5878C94.4268 92.6813 94.0907 92.5906 93.9178 92.1876C93.5745 92.709 92.9993 93.0086 92.362 93.1547C91.3615 93.384 90.6113 92.9792 90.4081 92.0934C90.1159 90.8189 91.2798 90.4246 92.2143 90.0829C92.9317 89.8178 93.1317 89.725 93.2015 89.5614C93.233 89.4938 93.2273 89.3811 93.1864 89.2027C93.0724 88.7056 92.7011 88.5492 92.032 88.7026C91.3437 88.8604 91.0983 89.1649 91.1586 89.8084L90.1517 90.0393C89.9996 88.8198 90.713 88.1867 91.8856 87.9179ZM92.3629 90.7598C91.8833 90.9503 91.3493 91.1666 91.4955 91.8039C91.6007 92.2627 91.9792 92.4509 92.5273 92.3253C92.967 92.2244 93.3427 91.9907 93.5294 91.693C93.7013 91.4189 93.6218 91.1017 93.5561 90.8149L93.426 90.2478C93.1194 90.5193 92.7335 90.6212 92.3629 90.7598Z" fill="white"/>
<path d="M97.3682 87.7002L98.2788 91.6717L97.2142 91.9158L96.3037 87.9443L94.7164 88.3083L94.5234 87.4668L98.7562 86.4962L98.9492 87.3377L97.3682 87.7002Z" fill="white"/>
<path d="M102.628 90.8419C101.144 91.1824 100.012 90.3148 99.6821 88.8746C99.3358 87.3642 100.067 86.0494 101.418 85.7396C102.827 85.4167 103.936 86.249 104.318 87.9123L104.344 88.027L100.788 88.8423C101.036 89.8051 101.639 90.2436 102.461 90.0551C103.048 89.9207 103.332 89.5805 103.407 88.9127L104.42 88.6804C104.427 89.7923 103.712 90.5935 102.628 90.8419ZM101.595 86.5377C100.894 86.6984 100.559 87.2581 100.651 88.1291L103.124 87.5621C102.873 86.761 102.289 86.3784 101.595 86.5377Z" fill="white"/>
<path d="M108.835 89.2514L107.924 85.2813L106.452 85.6188L106.872 87.7428C107.123 89.0133 106.758 89.8483 105.891 90.047C105.656 90.1011 105.371 90.1193 105.218 90.0941L105.028 89.2657C105.113 89.2864 105.319 89.246 105.421 89.2226C105.739 89.1496 106.013 88.852 105.816 87.8775L105.248 85.0163L108.804 84.201L109.907 89.0124L108.836 89.2578L108.835 89.2514Z" fill="white"/>
<path d="M113.995 88.0672L113.551 86.13L112.646 86.3375L111.606 88.6151L110.357 88.9015L111.491 86.475C110.582 86.4017 110.273 85.9024 110.134 85.297C109.941 84.4559 110.389 83.8366 111.415 83.6014L113.958 83.0184L115.061 87.8296L113.997 88.0736L113.995 88.0672ZM113.079 84.0717L111.792 84.3669C111.308 84.4779 111.119 84.7359 111.214 85.1501C111.314 85.5898 111.609 85.7636 112.074 85.657L113.368 85.3604L113.073 84.0732L113.079 84.0717Z" fill="white"/>
</g>
</g>
<defs>
<filter id="filter0_d" x="0" y="0.00878906" width="255.855" height="212.665" filterUnits="userSpaceOnUse" color-interpolation-filters="sRGB">
<feFlood flood-opacity="0" result="BackgroundImageFix"/>
<feColorMatrix in="SourceAlpha" type="matrix" values="0 0 0 0 0 0 0 0 0 0 0 0 0 0 0 0 0 0 127 0"/>
<feOffset dy="20"/>
<feGaussianBlur stdDeviation="20"/>
<feColorMatrix type="matrix" values="0 0 0 0 0 0 0 0 0 0 0 0 0 0 0 0 0 0 0.1 0"/>
<feBlend mode="normal" in2="BackgroundImageFix" result="effect1_dropShadow"/>
<feBlend mode="normal" in="SourceGraphic" in2="effect1_dropShadow" result="shape"/>
</filter>
</defs>
</svg>
