<svg width="80" height="45" viewBox="0 0 80 45" fill="none" xmlns="http://www.w3.org/2000/svg">
<path d="M1.6035 43.462C2.32281 43.7652 3.61755 43.6831 4.57063 43.6899C10.2671 43.7424 15.7618 43.6899 21.4982 43.7059C23.3384 43.715 25.6302 43.8768 27.0988 43.3936C27.6682 43.2022 28.4755 42.858 28.927 41.8027C33.8542 40.1547 38.8054 38.4475 43.7167 36.8406C43.331 38.3905 42.33 39.594 41.305 40.6151C41.0313 40.8887 41.2431 41.2944 41.0792 41.6773C40.7216 41.5998 40.6217 40.9958 40.1521 41.2511C40.0722 41.2944 39.8864 41.6545 39.8364 41.7548C39.5767 42.3087 39.211 43.7948 39.271 44.4649C39.6186 44.8775 41.2671 43.111 41.4229 42.7189C41.5708 42.336 41.9824 42.2061 42.306 41.9668C42.5798 41.7662 42.9734 41.3012 43.0893 40.9593C43.6028 39.4527 44.2681 38.1763 45.5509 37.4355C45.7547 37.2623 50.7938 34.42 50.8877 34.3698C51.0236 34.3014 51.4991 34.1578 51.587 34.1259C52.3783 33.8296 53.1036 33.6085 53.8908 33.3213C54.5002 33.0979 55.2175 32.6808 55.9089 32.9885C56.8679 33.4148 58.1667 33.572 59.5154 33.6404C60.0888 33.6701 60.7022 33.5515 61.1578 33.4923C63.0839 33.2461 64.2088 33.2188 66.2468 32.225C66.6924 32.0084 67.9612 31.7349 68.3988 31.9651C68.9262 32.2341 69.4118 32.5919 70.0272 32.8404C70.195 32.911 71.0322 33.3168 71.0402 33.3943C71.0542 33.5561 70.3628 33.898 70.229 33.9481C69.8094 34.1031 69.3179 34.2011 68.9043 34.2581C68.4067 34.3265 68.177 34.2057 67.7474 34.4222C67.5616 34.5157 67.128 35.1471 66.9362 35.024C66.8143 34.9442 66.7663 34.3311 66.6924 34.1601C66.4227 33.5538 65.5355 34.1761 65.2498 34.3903C64.8542 34.7619 64.4825 35.1744 64.1389 35.6098C63.9331 35.8787 63.8731 36.1158 64.3247 36.2275C65.6374 36.6446 67.2359 36.2776 68.6185 36.0497C69.2179 35.9517 69.5776 35.7237 70.0731 35.5756C70.9782 35.3066 72.5287 34.9966 72.8524 34.0644C73.0123 33.604 73.1541 32.9407 72.8384 32.5372C72.4109 31.9879 71.7915 31.4796 71.3559 31.0078C70.7305 30.4015 71.4558 30.0915 71.7695 29.6562C71.8874 29.4966 71.9573 29.4214 72.1571 29.4442C73.1102 29.5582 73.9813 29.4738 74.8945 29.3963C75.4399 29.3485 75.8056 29.2072 76.391 29.3963C76.8685 29.5491 77.1982 30.7138 77.404 31.2175C77.5479 31.5708 77.4799 32.1498 77.6318 32.5851C77.7017 32.7766 77.7377 32.9019 77.8176 33.139C77.8756 33.3145 78.1293 33.3487 78.1873 33.5287C78.3231 33.9345 77.7057 34.2103 77.6458 34.5544C77.6238 34.6752 77.7657 34.9784 77.8336 35.0924C78.2032 35.7397 79.1483 36.5853 79.8616 36.7563C80.1274 35.8195 79.516 34.3721 79.3002 33.6427C79.1523 33.1344 79.3681 32.5692 79.2183 32.0654C78.9265 31.1172 78.2952 30.2602 77.9595 29.3986C77.9615 28.9769 77.8796 28.6533 77.7457 28.3912C77.5199 27.9832 77.1243 27.5752 76.6627 27.3655C76.2152 27.1649 75.372 27.0418 74.7386 26.9757C74.4329 26.9438 74.1312 26.8823 73.9094 26.8617C73.4019 26.8093 72.9523 26.684 72.5267 26.4401C72.7006 25.3939 72.6207 23.8576 72.7126 22.7134C73.6157 22.9755 74.4489 22.9048 75.1382 22.5675C75.5738 22.3555 76.2491 21.6375 76.6008 21.2341C76.8286 20.9765 77.2562 20.1104 77.448 20.0625C77.7956 19.9759 78.0953 20.6096 78.459 20.6005C79.0364 20.5868 78.9905 19.96 79.2562 19.6226C79.512 19.3081 80.1254 19.397 79.7877 18.5833C79.8077 18.4967 79.9236 18.5217 79.9595 18.4533C80.2553 17.2248 78.8606 17.2088 78.0314 16.8761C77.466 16.6481 76.8066 16.0487 76.407 15.6384C76.0313 15.2965 76.0274 15.105 75.7356 14.9728C75.5218 14.8748 75.2321 15.0093 74.9764 14.9386C74.6287 14.8429 74.307 14.4486 74.0093 14.2731C74.0173 13.9221 73.9374 13.5597 73.8515 13.2656C75.4239 13.2064 77.8955 13.7192 79.2982 13.0035C79.45 12.926 79.7418 12.8006 79.7857 12.5978C79.9076 11.9596 78.8106 12.3311 78.5429 12.4359C78.1193 12.6001 77.1123 13.1858 76.9185 12.534C77.1083 11.62 78.0154 11.4171 78.487 10.8245C78.7587 10.4826 78.5489 9.94693 78.0874 10.2866C77.3661 10.8199 76.8505 11.9983 76.0353 12.3698C75.9994 11.8707 76.3071 10.5008 75.5918 10.9384C75.5558 11.8228 75.6357 12.3926 74.9084 12.5978C74.2511 12.7824 73.6257 12.6798 73.5657 12.0143C73.2321 11.7977 72.7865 12.5476 72.8105 11.8502C72.8284 11.3897 73.2101 11.1983 73.4119 10.7926C73.8015 10.0085 73.6177 8.90301 73.4379 8.09157C73.3539 7.69497 72.8404 6.81516 72.5547 7.55365C72.3309 8.144 72.8225 8.77993 72.9144 9.13094C73.1102 9.90591 73.0043 10.7652 72.6966 11.0661C72.0852 11.3761 71.7615 10.3413 71.5437 9.78054C71.202 8.91212 70.4028 7.40322 69.6615 7.07956C68.8483 6.72854 68.6485 7.64482 69.0341 8.15311C69.7175 9.05572 70.6665 9.66886 71.23 10.674C70.3928 11.0342 69.6096 8.09157 68.6625 8.83691C68.119 9.85348 70.0951 10.0677 70.4747 10.9042C70.5706 11.1139 70.7205 11.3852 70.6765 11.6701C70.4767 12.8964 68.3108 12.502 67.2539 12.0849C66.1589 11.6792 64.7663 10.3549 64.6883 10.0244C64.8102 9.81018 65.094 9.69165 65 9.27682C64.7603 8.83235 64.4006 9.41358 64.1569 9.35659C64.0749 9.33608 63.7553 8.76625 63.7153 8.6728C63.3596 7.87048 62.8361 6.53252 63.1578 5.59572C63.3357 5.06008 64.8702 4.09137 65.3557 2.84686C65.6514 2.08785 66.125 0.189183 65.1279 0C64.5305 0.0752174 64.6444 2.54828 64.3147 3.56485C64.1888 3.94778 63.5894 4.20534 63.4875 3.7905C63.4615 3.03377 63.7433 2.03543 63.5015 1.26958C63.3976 0.945915 63.1558 0.1983 62.6743 0.487774C62.2327 0.982385 63.3976 3.04061 62.8441 4.19622C62.7123 4.4743 62.2987 4.52672 62.0889 4.29423C61.0099 3.09075 61.6293 1.35847 61.4475 0.781804C61.3376 0.444465 60.922 0.49461 60.7741 0.863859C60.4944 1.57045 60.5284 2.77849 60.7601 3.40074C60.912 3.84749 61.3376 4.41276 61.8911 5.11023C62.1768 5.48631 62.8321 6.75589 62.2048 7.06132C61.7712 7.2733 61.1777 7.01118 60.918 6.88353C60.0868 6.4687 58.4584 5.50683 58.85 4.06858C58.898 3.89535 59.3395 2.80356 58.7401 2.84686C58.3904 2.87194 58.6062 4.02299 58.3085 4.23041C57.5153 4.71135 57.4014 3.52154 57.1257 2.65312C57.0258 2.33858 56.8479 1.50891 56.5003 1.56361C56.0467 1.63427 56.0128 2.26108 56.2985 3.10899C56.9998 4.80024 58.1966 6.13592 59.7951 6.98154C60.964 7.59924 62.1548 8.03687 63.0699 8.99646C63.2977 9.23807 63.7353 9.64379 63.7872 9.86032C63.9111 10.4028 63.4416 10.6786 63.3437 10.7082C63.0519 10.7948 63.1538 9.96061 63.1159 9.78054C63.014 9.31784 62.7302 9.13322 62.5165 9.47284C62.3246 9.77599 62.7922 10.2706 62.7762 10.5988C62.7622 10.7789 62.7063 10.9248 62.5864 10.9362C61.7492 10.9863 61.4155 9.9948 60.8341 9.65062C60.5444 9.47968 60.2666 9.63467 60.2906 10.0085C60.3486 10.5076 60.914 10.8108 61.3316 11.0159C61.8091 11.253 62.7402 11.6154 62.8302 12.2194C62.9161 12.8143 61.5314 12.7049 61.1777 12.5613C60.6263 12.3493 60.1647 12.1852 59.6672 11.9778C59.3735 11.857 58.5903 11.2735 58.6962 10.7584C58.7461 10.5236 59.0958 10.1338 59.2516 10.0108C59.6173 9.72356 60.5264 9.3224 60.7082 8.87338C60.8101 8.62037 60.7482 8.07334 60.3485 8.17363C59.7831 8.31039 59.4075 9.60048 58.896 9.83069C58.7181 9.91274 58.1906 9.90591 58.1147 9.78283C57.791 9.29049 58.2206 8.66368 58.2706 8.28531C58.2786 7.6585 57.7031 7.61975 57.6112 8.10753C57.5093 9.03521 57.7291 9.80334 56.8 9.62099C56.5742 9.57541 56.2685 9.21755 56.2146 8.9372C56.1246 8.46994 56.1946 7.55821 56.0147 7.04992C55.9688 6.91772 55.8769 6.55531 55.6731 6.42995C54.8519 5.92394 54.756 7.57645 54.9898 8.26936C55.1836 8.84831 55.817 9.69621 56.2865 9.96061C56.846 10.2774 57.4633 10.3276 57.9409 10.8222C58.0488 10.9316 58.1647 11.2735 57.9549 11.3259C57.6052 11.4125 56.798 10.8701 56.4723 10.69C56.2166 10.5487 55.8269 10.2843 55.5192 10.0677C55.0057 9.70761 53.8888 8.58618 53.4313 7.87276C53.2015 7.50807 52.9477 7.02713 52.8338 6.61913C52.684 6.04702 52.4023 5.11479 51.9647 4.75009C51.667 4.50393 51.4032 4.62245 51.2813 4.78428C50.9596 5.21963 51.4652 6.25216 51.609 6.60546C51.9667 7.47388 52.9278 8.37649 53.665 9.09447C54.9138 10.3071 56.1786 11.2165 57.8829 11.9413C58.2726 12.1054 58.6682 12.3881 59.0798 12.5271C60.7042 13.0696 62.1988 13.4388 64.1149 13.7306C65.022 13.8674 66.1429 13.6919 67.138 13.6166C68.0691 13.5437 68.8383 13.1927 69.7494 13.1927C69.0621 13.8719 70.4668 14.5762 70.4747 15.064C70.4787 15.2828 70.0711 15.6566 69.9772 15.8276C69.7454 16.2561 69.5736 16.5684 69.3358 16.9672C68.7404 16.1604 67.4996 14.5489 66.3567 15.3877C66.109 15.5677 65.9271 15.9415 65.8392 16.1695C65.4796 17.1063 65.7813 18.6881 66.043 19.5201C66.091 19.6819 66.3947 20.3019 66.3567 20.4136C66.2828 20.6119 65.7593 20.5252 65.6294 20.5161C64.7543 20.45 63.6234 20.099 62.7302 20.4797C61.7432 20.9059 60.2786 22.335 59.9989 22.4535C59.6153 22.914 56.9638 23.1738 55.1316 22.9869C52.9537 22.7635 50.9137 22.4763 48.9696 22.025C47.9346 21.788 46.9276 21.6011 45.9605 21.3914C42.5618 20.6529 38.6616 21.0016 35.4807 21.9772C34.6375 22.2347 23.7001 24.7762 22.9728 24.3043C22.8809 24.1767 22.9408 23.9465 22.8869 23.7983C22.4333 22.5379 21.1166 23.9032 20.5152 23.9237C20.4312 23.9807 19.9118 24.0924 19.666 23.9989C19.3983 23.8576 19.4242 23.7755 19.4242 23.7755C19.3103 23.4177 18.7948 23.3356 18.627 23.5248C18.3952 23.714 18.2733 23.8302 18.0496 24.1334C17.5241 25.0155 17.2164 25.3072 16.557 25.656C16.4351 25.7221 16.3772 25.8816 16.2293 25.852C15.9796 25.8019 15.9296 25.1431 15.5879 25.1363C15.6359 24.9904 15.6159 24.6964 15.486 24.6485C15.3682 24.6052 15.2163 24.8035 15.0744 24.6964C15.0225 24.6576 14.9725 24.4502 14.9186 24.4366C14.8067 24.4092 14.6309 24.6736 14.547 24.4525C14.7847 24.1402 14.551 23.6434 14.547 23.4109C14.543 23.1145 14.8307 22.5857 14.3911 22.4171C14.1853 22.3396 13.7357 22.5766 13.7337 22.2233C13.7337 22.0797 13.8516 22.0319 13.8616 21.9133C13.8796 21.6786 13.6798 21.5828 13.6618 21.4256C13.6199 21.0632 13.8197 20.9104 13.7517 20.5275C13.6958 20.213 13.516 19.8756 12.9865 19.7822C12.8166 19.7548 12.6668 19.8483 12.5649 19.8323C12.2432 19.7822 11.9255 19.2283 11.6378 19.0505C10.1133 17.8448 7.45983 18.4397 6.88838 20.2198C6.81446 20.45 6.78048 20.7714 6.71655 20.9538C6.52873 21.5076 6.11313 22.18 5.34787 21.7994C4.58062 21.4165 4.54665 20.1104 2.86029 20.3862C2.19493 20.4819 0.934152 20.8124 1.28381 21.8313C1.76535 23.2331 3.19996 22.1572 3.51365 21.1703C3.58758 20.9446 3.79538 20.7555 4.05113 21.1315C4.47272 21.7538 5.03418 22.7613 5.74949 22.9869C6.23501 23.1396 6.71255 22.9573 7.01826 22.7726C7.5957 22.4262 7.86343 21.5281 8.15915 20.9674C8.33298 21.1703 8.23507 21.4689 8.18912 21.7811C8.08722 22.4262 8.63469 22.7658 8.60272 22.7818C8.56076 22.8068 8.50282 22.7863 8.33099 22.8889C7.72158 23.445 8.27304 24.1927 8.58873 24.5323C8.90842 24.8765 8.46485 25.0315 8.60272 25.3597C8.17513 25.4394 7.61168 24.6257 6.52074 24.4001C5.93331 24.2816 5.80943 24.5186 5.57965 24.3704C5.05216 24.0286 5.54369 22.4239 4.71649 22.4969C4.33686 22.6268 4.70649 23.1419 4.15503 22.857C3.78339 22.7499 3.62354 23.0735 3.63753 23.4678C3.61355 23.9397 3.19596 23.2376 2.94021 23.6251C2.85229 23.7642 2.93222 23.9579 2.97617 24.0354C3.16599 24.3613 3.42574 24.4183 3.65352 24.7785C4.13705 25.5306 3.4717 25.6378 3.16799 26.3238C2.61653 27.5774 2.71843 29.0795 2.69845 30.634C2.36877 30.6203 1.82729 30.5839 1.56355 30.7571C1.35375 30.8916 1.23187 31.2107 1.21988 31.3406C1.11598 32.4415 1.53957 33.3988 1.77734 33.9664C2.52861 35.7693 4.25094 37.1004 5.82142 37.7614C4.61059 38.1147 3.60157 39.7194 4.26493 41.4061C4.51269 42.0397 4.88232 42.3953 5.34787 42.8397C3.90128 42.9423 2.48065 42.8397 2.03908 42.6893C1.35974 42.4591 1.04405 42.2289 0.840243 41.7935C0.34872 40.7473 1.66345 39.9997 2.46667 40.3302C2.8503 40.4898 3.12803 41.1758 2.70843 41.4197C2.77637 41.169 2.73841 41.0892 2.68046 40.916C2.38275 40.4533 1.57753 40.5308 1.55355 41.1918C1.51159 42.2562 3.34781 42.1765 3.37779 41.1257C3.31385 39.8311 1.87524 39.3478 0.882207 39.9519C0.582498 40.1274 0.304764 40.4146 0.154909 40.7998C-0.38257 42.1719 0.570506 43.0381 1.6035 43.462ZM68.2089 12.8987C65.8232 13.6417 64.047 13.4069 63.6034 13.0445C62.5344 12.1875 64.3766 10.5874 64.3766 10.5874C64.3766 10.5874 66.1789 12.5066 68.2089 12.8987ZM73.0802 19.9873C73.0842 19.9896 73.0882 19.9919 73.0922 19.9964C73.0962 19.9896 73.1002 19.9805 73.1042 19.9714C73.9913 20.6962 75.5978 20.8193 76.5968 20.2153C76.1972 20.7121 75.7157 21.2182 75.1342 21.5737C74.4689 21.9863 73.6736 22.2097 72.7086 22.0045C72.6766 21.2888 72.8045 20.466 73.0802 19.9873ZM67.4736 16.8647C67.7154 16.5068 67.9772 16.6641 68.181 16.7758C68.3748 16.8829 68.9722 17.414 68.9582 17.6943C68.9502 17.8151 68.7064 18.1844 68.6305 18.328C68.3568 18.8272 67.8673 19.4517 67.4736 19.7753C67.4237 19.6272 66.9482 17.9131 67.4736 16.8647ZM40.0342 21.9749C34.3817 23.4747 35.3308 23.2057 32.9871 23.9055C27.0768 25.6674 25.4704 25.599 22.715 25.6674C22.9228 25.1614 22.9488 24.8035 22.9488 24.8035C26.7631 24.954 34.5056 22.8456 35.117 22.6838C36.6695 22.2758 38.5137 21.9886 40.0342 21.9749ZM51.655 33.3624C51.9587 32.9863 52.3163 32.3503 52.714 31.9948C52.8938 31.8398 53.1116 31.5343 53.2714 31.4728C53.6211 31.3452 54.1186 31.9742 54.3703 32.1406C54.9378 32.5122 51.8668 33.2438 51.655 33.3624ZM23.9518 31.3611C23.3604 30.1713 23.754 28.7923 24.7351 28.3843C25.2186 28.1496 26.0058 28.3365 26.2756 28.8721C26.0418 28.7125 25.6122 28.7832 25.3625 28.9542C25.3185 28.9542 24.7391 29.5582 25.2386 30.2123C25.846 30.887 26.4794 30.1622 26.5174 30.1576C27.1947 29.2915 26.5613 28.1655 25.7761 27.7347C25.4604 27.5592 24.9489 27.4931 24.7551 27.5205C24.3095 27.5797 23.9079 27.7598 23.6781 27.9672C23.6282 27.9627 22.6771 28.7923 22.9808 30.3217C23.3125 31.6278 23.6401 32.1976 24.4474 33.7065C24.9409 34.6524 25.7881 35.7853 25.3765 37.105C24.813 38.2583 23.1806 38.4179 21.752 38.4224C21.8739 38.2492 22.3074 38.4361 22.3514 38.1808C22.2655 37.9962 21.9378 38.0897 21.7819 37.9871C21.8858 37.7432 22.4373 38.0737 22.5232 37.7569C22.4893 37.6657 22.3754 37.6657 22.3494 37.5631C22.5792 37.5153 22.8809 37.3603 22.6071 37.1415C22.8229 37.0184 23.2965 37.1893 23.2345 36.7517C23.1866 36.6537 23.0667 36.64 22.9628 36.6035C22.8689 36.2981 23.2026 36.346 23.1926 36.0816C23.2665 36.0109 23.4124 36.0223 23.4923 35.9539C23.5243 35.4707 22.9808 35.7602 22.793 35.8559C22.8989 35.5095 23.3085 35.3704 23.3924 34.9442C23.3804 34.9419 23.3764 34.9328 23.3784 34.9146C23.2006 34.8758 23.0847 35.1243 22.8649 35.0422C22.9088 34.7459 22.9508 33.784 22.5512 34.1966C22.4972 33.9504 22.2315 34.0028 22.1935 34.2308C22.0577 34.0439 21.8319 33.9595 21.5961 33.8912C21.5122 34.208 21.7799 34.265 21.7959 34.5225C21.2844 34.6798 21.4063 33.6085 21.3803 33.066C21.3424 32.1885 20.3393 31.4318 20.3393 31.4318C19.4182 30.8027 17.8338 30.5041 16.6469 30.732C16.6209 30.6545 16.4711 30.0665 15.8777 29.8704C16.8287 29.5855 17.59 29.0795 18.3453 28.5689C18.7449 28.6373 19.1905 28.2658 19.2284 27.9513C19.2484 27.7803 19.1725 27.5273 19.3843 27.5136C20.2954 27.443 20.9228 27.1216 21.2465 26.9324C21.4483 26.8139 22.0097 26.3056 22.1756 26.2691C22.9408 26.105 25.0628 26.1483 25.0867 26.1346C29.3486 26.2235 39.6766 22.5242 41.6027 22.5994C42.0463 22.6154 42.5538 22.5721 43.0114 22.6154C46.2262 22.9117 49.565 23.1351 52.71 23.4952C51.7869 23.6069 50.9996 23.983 50.4302 24.3408C49.4991 24.9243 48.4441 23.6502 48.0065 23.9169C47.2872 24.3636 48.0265 25.4645 48.2063 25.6925C48.494 26.0663 48.3502 26.5381 48.1644 26.8959C47.9226 27.3564 47.4151 28.8767 47.7368 30.0346C47.0554 30.5634 45.9285 30.2693 45.2252 29.9365C45.0774 29.859 43.8765 29.3713 43.7147 30.0847C43.7007 30.1554 43.5109 30.6933 43.389 30.9144C43.3231 31.0192 42.8735 31.744 42.5558 32.1498C42.312 32.4689 42.0403 32.813 41.7746 33.0615C41.1552 33.6404 40.338 34.0712 40.1461 35.0855C39.9303 34.9943 39.9423 34.363 39.6806 34.2103C39.3809 34.11 39.1311 34.4291 38.9513 34.5749C38.4778 34.951 38.1521 35.5573 37.9083 36.0497C37.7205 36.4235 37.4448 36.7563 37.9223 36.8953C38.4917 37.064 40.0682 36.2936 40.3639 36.2343C40.8015 36.0018 41.7126 35.7283 41.9764 35.1949C42.1062 34.9191 42.2101 34.6365 42.388 34.3789C42.4279 34.3379 43.0074 33.2438 43.359 32.8495C43.5169 32.633 44.5139 31.7372 45.3251 32.2159C45.5809 32.3663 47.0894 32.927 47.0954 33.0615C47.0974 33.1048 46.7597 33.5287 46.6658 33.6632C46.1483 34.42 45.3191 34.7117 44.6398 35.2086C44.37 35.4092 44.2841 35.7397 44.0563 35.9083C43.6288 36.2229 30.4795 40.3713 29.0429 40.8385C28.7532 35.5186 24.831 33.3806 23.9518 31.3611ZM27.5024 38.9079C27.1048 38.6093 26.893 38.5638 26.6193 38.4498C26.4534 38.3791 25.88 38.2264 25.878 37.9848C25.878 37.8914 25.9619 37.6611 25.9919 37.5836C26.4274 36.4554 25.856 35.4046 25.5363 34.4861C26.4434 35.6576 27.4325 36.8269 27.5024 38.9079ZM23.6082 42.8603C24.3774 42.1446 23.7181 39.7991 24.4494 39.0401C25.2306 38.3951 26.0638 38.6458 26.5673 38.9284C27.1587 39.2498 27.3725 40.4282 26.845 40.957C26.3735 41.3491 25.2885 41.2511 25.3485 40.4647C25.5263 41.1485 26.5673 40.9274 26.6033 40.2413C26.6472 39.4345 25.5023 39.0059 25.0348 40.1433C24.849 40.6015 25.0168 41.03 25.2366 41.3308C25.6122 41.7685 26.0038 41.7343 26.4474 41.7206C25.878 42.5001 24.6811 42.8192 23.6082 42.8603ZM20.8868 41.2009C21.0766 40.7975 21.8139 40.6949 22.0277 41.087C20.8329 40.8955 21.2265 42.6528 22.2415 42.197C23.2985 41.7138 22.4733 39.831 21.0566 40.5354C21.2245 39.7832 20.7849 39.3615 20.2874 39.0014H23.5382C22.9968 39.9496 23.822 42.4386 22.6971 42.703C21.6501 42.94 20.3433 42.3337 20.8868 41.2009ZM17.8038 42.8967C18.625 42.2335 17.8577 40.9342 18.589 39.7216C19.2544 38.7917 20.9927 39.4527 20.5411 40.7451C20.3633 41.1417 19.7419 41.1531 19.5281 40.9069C19.9957 40.9479 20.2774 40.7542 20.2554 40.2231C20.1835 39.7102 19.4302 39.3729 19.0566 40.157C18.7389 41.0368 19.5681 41.5041 20.2854 41.4083C20.1555 42.1377 20.5252 42.5685 20.8269 42.8922L17.8038 42.8922V42.8967ZM15.2503 42.2107C14.6788 41.3514 15.2703 40.7519 15.2882 40.6972C15.4261 40.5103 15.9216 40.1935 16.3852 40.5445C16.5051 40.6448 16.577 40.8704 16.535 40.9707C16.3152 40.7223 16.0675 40.6083 15.8077 40.8089C15.3082 41.1986 15.6898 41.9964 16.3772 41.9007C16.6289 41.8665 16.8447 41.5975 16.9167 41.4402C17.4921 40.1729 15.7818 39.3524 14.8806 40.4032C14.7408 39.7558 14.4351 39.3683 13.9415 38.9968L18.3333 39.0128C17.624 39.594 17.8637 41.6864 17.5061 42.2243C17.0166 42.9127 15.7298 42.8306 15.2503 42.2107ZM10.8585 42.8967C11.5958 42.254 11.0384 40.3872 11.9135 39.6555C12.3551 39.2977 13.2482 39.3342 13.7517 39.5803C14.487 39.9405 14.5769 41.3719 13.7238 41.6408C13.1623 41.8209 12.5469 41.5314 12.6128 40.9593C12.8446 41.6978 14.0295 41.3331 13.7118 40.5399C13.5799 40.2094 13.2083 39.9496 12.7627 40.1046C12.411 40.2573 12.2991 40.5673 12.2612 40.7656C11.9794 42.2904 13.7637 42.5594 14.4091 41.773C14.5789 42.2631 14.8007 42.6551 15.2223 42.899C13.9216 42.9241 12.1193 42.9218 10.8585 42.8967ZM8.47884 41.4129C8.55477 40.9912 9.23611 40.7314 9.50585 41.1029C9.14819 41.1029 8.95238 41.1986 8.88645 41.5656C8.81252 41.9622 9.15818 42.4796 9.77758 42.1765C10.4929 41.6933 10.0453 40.4168 9.12022 40.5513C9.38196 40.1593 9.49985 39.7308 9.338 39.0128L11.6018 39.0196C10.6847 39.5097 10.9564 41.3628 10.5508 42.2061C10.0833 42.972 8.28103 42.8762 8.47884 41.4129ZM6.33892 38.6139C7.09219 38.003 8.68664 38.1922 8.92041 39.1176C9.08625 39.7786 9.04029 40.4351 8.32099 40.5992C8.67665 39.5507 7.10417 39.1017 6.92035 40.2345C6.80247 40.9616 7.34593 41.3536 8.05125 41.169C7.85344 41.7571 8.06324 42.4226 8.37894 42.6802C7.88142 42.6642 7.46782 42.6164 7.08419 42.4454C6.19305 42.0511 5.79744 41.3103 5.67156 40.6812C5.47376 39.7148 5.85539 39.0105 6.33892 38.6139Z" fill="#EB1C24"/>
</svg>
