<svg width="245" height="42" viewBox="0 0 245 42" fill="none" xmlns="http://www.w3.org/2000/svg">
<path d="M2.44777 41.9583C0.849557 41.9583 0 40.8691 0 39.3C0 37.5823 0.960015 36.5063 2.4764 36.5063C3.73597 36.5063 4.52599 37.1627 4.66417 38.3318H3.78643C3.63552 37.6005 3.18778 37.2095 2.48776 37.2095C1.50911 37.2095 0.889103 37.9918 0.889103 39.2296C0.889103 40.4914 1.46775 41.2455 2.42731 41.2455C3.19642 41.2455 3.70643 40.776 3.83734 39.9287H4.69598C4.54598 41.1573 3.72597 41.9583 2.44777 41.9583Z" fill="white"/>
<path d="M7.78519 41.9764C6.26653 41.9764 5.35742 40.981 5.35742 39.3C5.35742 37.6332 6.32562 36.5063 7.75428 36.5063C9.45112 36.5063 10.0907 37.8518 10.0907 39.3373V39.4582H6.21516L6.20698 39.5191C6.20698 40.6178 6.81699 41.2787 7.81382 41.2787C8.55429 41.2787 8.96248 40.9619 9.20249 40.18H10.0325C9.77159 41.3669 9.00476 41.9764 7.78519 41.9764ZM7.73473 37.2005C6.90472 37.2005 6.32517 37.8009 6.21471 38.7691H9.21294C9.13248 37.7918 8.58202 37.2005 7.73473 37.2005Z" fill="white"/>
<path d="M13.0889 37.405V41.8087H12.2366V37.405H10.3906V36.6514H14.9343V37.405H13.0889Z" fill="white"/>
<path d="M18.3142 41.8087H15.5859V36.6509H16.4355V38.6195H18.2723C19.2837 38.6195 19.9528 39.2205 19.9528 40.1978C19.9528 41.1714 19.3228 41.8087 18.3142 41.8087ZM16.4355 39.3509V41.0596H18.0046C18.7024 41.0596 19.0742 40.7478 19.0742 40.1978C19.0742 39.6491 18.7133 39.3509 18.0046 39.3509H16.4355Z" fill="white"/>
<path d="M27.1157 41.8087L25.2375 39.2718L24.4289 40.0582V41.8087H23.582V36.6509H24.4289V39.1086L26.7857 36.6509H27.9267L25.848 38.6805L28.1944 41.8087H27.1157Z" fill="white"/>
<path d="M28.7666 41.8087V36.6509H29.6162V38.6991H32.1944V36.6509H33.0417V41.8087H32.1944V39.4491H29.6162V41.8087H28.7666Z" fill="white"/>
<path d="M34.3223 41.8087V36.6509H35.1718V40.8591H35.19L37.5087 36.6509H38.5978V41.8087H37.7482V37.6H37.7282L35.4086 41.8087H34.3223Z" fill="white"/>
<path d="M40.2855 41.8087H39.2373L41.4937 38.7686L39.5282 36.6509H40.576L42.6737 39.0205H42.6937V36.6509H43.5433V39.0205H43.5628L45.6624 36.6509H46.7111L44.741 38.7686L47.0002 41.8087H45.9515L44.1842 39.3091L43.5433 39.9609V41.8087H42.6937V39.9609L42.0551 39.3091L40.2855 41.8087Z" fill="white"/>
<path d="M47.6504 41.8087V36.6509H48.4995V38.6991H51.0764V36.6509H51.925V41.8087H51.0764V39.4491H48.4995V41.8087H47.6504Z" fill="white"/>
<path d="M55.6625 41.8087H53.1738V36.6509H54.0247V38.6195H55.623C56.6307 38.6195 57.3007 39.2205 57.3007 40.1978C57.3007 41.1714 56.6698 41.8087 55.6625 41.8087ZM54.0247 39.3509V41.0596H55.3525C56.0521 41.0596 56.4225 40.7478 56.4225 40.1978C56.4225 39.6491 56.0616 39.3509 55.3525 39.3509H54.0247ZM58.9689 36.6513V41.8091H58.1203V36.6513H58.9689Z" fill="white"/>
<path d="M62.6749 39.0296L64.6836 41.8087H63.5945L62.1453 39.6905L60.7185 41.8087H59.6885L61.6272 39.0905L59.838 36.6514H60.9162L62.1672 38.42L63.4449 36.6514H64.474L62.6749 39.0296Z" fill="white"/>
<path d="M72.9234 41.8087V37.7404H72.898L71.3688 41.8087H70.5911L69.0597 37.7404H69.0315V41.8087H68.1797V36.6509H69.3997L70.9679 40.8309H70.987L72.5557 36.6509H73.7752V41.8087H72.9234Z" fill="white"/>
<path d="M79.5996 41.7859C79.4205 41.8554 79.2128 41.8886 79.0223 41.8886C78.5427 41.8886 78.2818 41.6181 78.2727 41.1295C77.7632 41.6972 77.2023 41.9445 76.4036 41.9445C75.3868 41.9445 74.7559 41.3899 74.7559 40.4922C74.7559 39.5704 75.3659 39.0299 76.5836 38.8813C77.8123 38.7322 78.2314 38.7599 78.2314 38.0617C78.2314 37.5126 77.8218 37.2099 77.0632 37.2099C76.2763 37.2099 75.8663 37.5035 75.785 38.2617H74.954C74.9863 37.1631 75.785 36.5112 77.1141 36.5112C77.8032 36.5112 78.3923 36.6926 78.7337 37.0135C79.0923 37.3635 79.0828 37.889 79.0828 38.3499C79.0828 39.1176 79.0414 39.8763 79.0414 40.6449C79.0414 41.0268 79.1318 41.1568 79.3905 41.1568C79.4696 41.1568 79.5119 41.1472 79.6 41.1286V41.7859H79.5996ZM77.0927 39.4395C76.4759 39.519 75.6332 39.5886 75.6332 40.4172C75.6332 40.9481 76.0241 41.2786 76.6623 41.2786C77.4627 41.2786 78.2309 40.729 78.2309 40.0731V39.1326C77.9141 39.3695 77.4723 39.3881 77.0927 39.4395Z" fill="white"/>
<path d="M81.2714 37.405V41.8087H80.4219V36.6509H83.9574V37.4045H81.2714V37.405Z" fill="white"/>
<path d="M89.1611 41.7859C88.9838 41.8554 88.7747 41.8886 88.5834 41.8886C88.1038 41.8886 87.8434 41.6181 87.8343 41.1295C87.3247 41.6972 86.7656 41.9445 85.9651 41.9445C84.9483 41.9445 84.3174 41.3899 84.3174 40.4922C84.3174 39.5704 84.9297 39.0299 86.1465 38.8813C87.3733 38.7322 87.7924 38.7599 87.7924 38.0617C87.7924 37.5126 87.3852 37.2099 86.6238 37.2099C85.8374 37.2099 85.4274 37.5035 85.346 38.2617H84.5174C84.5474 37.1631 85.346 36.5112 86.6752 36.5112C87.3643 36.5112 87.9529 36.6926 88.2929 37.0135C88.6515 37.3635 88.6443 37.889 88.6443 38.3499C88.6443 39.1176 88.602 39.8763 88.602 40.6449C88.602 41.0268 88.6929 41.1568 88.9516 41.1568C89.0334 41.1568 89.0729 41.1472 89.1611 41.1286V41.7859ZM86.6565 39.4395C86.0351 39.519 85.1969 39.5886 85.1969 40.4172C85.1969 40.9481 85.5856 41.2786 86.2238 41.2786C87.0242 41.2786 87.7924 40.729 87.7924 40.0731V39.1326C87.4761 39.3695 87.0356 39.3881 86.6565 39.4395Z" fill="white"/>
<path d="M91.8532 36.5063C92.9096 36.5063 93.7901 36.9304 93.7901 37.8891C93.7901 38.4805 93.3805 38.89 92.961 38.9782V38.9968C93.4405 39.09 93.9596 39.4805 93.9596 40.2769C93.9596 41.3992 92.9096 41.9623 91.8205 41.9623C90.4755 41.9623 89.6464 41.3196 89.5859 40.1973H90.4428C90.4937 40.9378 91.0528 41.2778 91.8141 41.2778C92.6214 41.2778 93.0801 40.831 93.0801 40.3C93.0801 39.7791 92.7705 39.4573 91.9842 39.4573H91.2719V38.7682H91.8423C92.4401 38.7682 92.9292 38.54 92.9292 37.93C92.9292 37.5482 92.5428 37.19 91.8423 37.19C91.2346 37.19 90.6032 37.4418 90.5364 38.1396H89.6746C89.7537 36.8695 90.8128 36.5063 91.8532 36.5063Z" fill="white"/>
<path d="M94.9609 41.8087V36.6509H95.8082V40.8591H95.8291L98.1474 36.6509H99.2369V41.8087H98.3869V37.6H98.366L96.0478 41.8087H94.9609Z" fill="white"/>
<path d="M100.517 41.8087V36.6509H101.364V38.6991H103.941V36.6509H104.79V41.8087H103.941V39.4491H101.364V41.8087H100.517Z" fill="white"/>
<path d="M110.793 39.1978C110.793 40.9482 109.885 41.9628 108.319 41.9628C106.738 41.9628 105.801 40.9482 105.801 39.2487C105.801 37.5491 106.769 36.5063 108.329 36.5063C109.885 36.5063 110.793 37.4891 110.793 39.1978ZM106.68 39.23C106.68 40.501 107.29 41.246 108.328 41.246C109.324 41.246 109.925 40.4923 109.925 39.2214C109.925 37.9923 109.306 37.21 108.309 37.21C107.309 37.2095 106.68 38.0014 106.68 39.23Z" fill="white"/>
<path d="M111.784 36.6514H114.172C115.069 36.6514 115.939 36.8514 115.939 37.9032C115.939 38.4528 115.66 38.7928 115.18 39.0114V39.021C115.781 39.1423 116.158 39.5982 116.158 40.2869C116.158 41.1714 115.511 41.8092 114.594 41.8092H111.784V36.6514ZM115.062 38.0387C115.062 37.6105 114.831 37.3823 114.081 37.3823H112.613V38.7323H114.081C114.813 38.7319 115.062 38.4805 115.062 38.0387ZM112.613 41.0783H114.431C114.971 41.0783 115.283 40.7101 115.283 40.2169C115.283 39.7514 114.982 39.4491 114.285 39.4491H112.613V41.0783Z" fill="white"/>
<path d="M103.786 6.55965H86.3696H81.1304L73.1499 21.2658H73.0603V6.55965H68.4148V27.7927H73.6549L81.6341 13.0634H81.7236V27.7927H86.3696V10.5256H92.7397V27.7923H97.4157V10.5256H103.787V6.55965H103.786ZM33.9256 27.9268H38.9056V6.61057H33.9256V27.9268ZM40.1102 6.93648L43.3662 27.9973L45.8953 27.6064L42.6375 6.54602L40.1102 6.93648ZM61.521 15.2698C60.8351 15.3907 58.6033 15.7444 57.3232 15.7444C54.9423 15.7444 54.0168 14.823 54.0168 12.2575V6.55965H49.3722V12.197C49.3722 17.653 52.2018 19.6221 56.965 19.6221C58.216 19.6221 60.5101 19.2358 61.521 19.0262V27.7923H66.1647V6.55965H61.521V15.2698ZM129.57 4.92099C132.577 4.92099 134.695 2.83005 134.94 0H132.053C131.811 1.07502 130.98 1.96912 129.569 1.96912C128.158 1.96912 127.33 1.07502 127.081 0H124.199C124.444 2.8305 126.561 4.92099 129.57 4.92099ZM0 27.9268H17.058L18.7162 6.61011H0V27.9268ZM21.2594 6.61057L19.6267 27.9273H25.0777L23.9886 6.61057H21.2594ZM30.2023 27.9268H32.651V6.61057H29.1118L30.2023 27.9268ZM194.431 6.55965H185.289V27.7927H189.905V20.1576H194.665C198.924 20.1576 202.202 18.0117 202.202 13.3889C202.202 8.7056 199.015 6.55965 194.431 6.55965ZM194.043 16.4889H189.905V10.3765H194.074C196.124 10.3765 197.672 11.1816 197.672 13.4493C197.672 15.8044 196.124 16.4889 194.043 16.4889ZM174.032 6.05192C167.692 6.05192 163.52 10.4652 163.52 17.2057C163.52 23.8536 167.722 28.2996 174.002 28.2996C180.226 28.2996 184.423 23.8299 184.423 17.2057C184.423 10.5584 180.226 6.05192 174.032 6.05192ZM174.032 24.4545C170.429 24.4263 168.227 21.6799 168.227 17.1176C168.227 12.7043 170.462 9.86926 173.975 9.86926C177.515 9.86926 179.721 12.6438 179.721 17.1176C179.721 21.6517 177.545 24.4545 174.032 24.4545ZM107.035 6.52693L98.9648 27.7923H103.729L105.458 23.0527H113.348L115.011 27.7923H119.897L111.828 6.52693H107.035ZM106.588 19.6494L109.416 11.7452L112.215 19.6494H106.588ZM242.646 23.8304V6.55965H227.549V9.77653C227.549 16.0425 226.66 20.4881 224.158 23.8304H222.549V33.2574H227.047V27.7927H240.505V33.2574H245V23.8304H242.646ZM238.003 23.8304H229.337C231.213 20.3994 232.168 16.5221 232.168 10.7025V10.3488H238.003V23.8304H238.003ZM213.232 6.05192C206.889 6.05192 202.723 10.4652 202.723 17.2057C202.723 23.8536 206.922 28.2996 213.204 28.2996C219.426 28.2996 223.625 23.8299 223.625 17.2057C223.625 10.5584 219.426 6.05192 213.232 6.05192ZM213.232 24.4545C209.631 24.4263 207.425 21.6799 207.425 17.1176C207.425 12.7043 209.659 9.86926 213.174 9.86926C216.717 9.86926 218.919 12.6438 218.919 17.1176C218.919 21.6517 216.745 24.4545 213.232 24.4545ZM164.596 6.55965H152.371V27.9273H157.044V10.5488H164.595V6.55965H164.596ZM124.999 21.2654H124.911V6.55965H120.266V27.7927H125.503L133.482 13.0634H133.568V27.7927H138.219V6.55965H132.977L124.999 21.2654ZM140.824 21.5776H149.764V17.798H140.824V21.5776Z" fill="white"/>
</svg>
