<svg width="60" height="81" viewBox="0 0 60 81" fill="none" xmlns="http://www.w3.org/2000/svg">
<ellipse rx="7" ry="2" transform="matrix(-1 0 0 1 30 79)" fill="black" fill-opacity="0.15"/>
<path d="M59.5 30.2953C59.5 38.4498 54.0855 45.9093 47.5586 53.0694C45.7044 55.1034 43.7884 57.0849 41.892 59.046C40.4431 60.5444 39.0057 62.031 37.616 63.5201C34.6486 66.6998 31.942 69.8482 29.9836 72.9907C27.755 69.6568 24.901 66.4028 21.8627 63.1687C20.5893 61.8132 19.2874 60.4651 17.9837 59.1151C15.9539 57.0133 13.9195 54.9067 11.9807 52.7599C5.61356 45.7098 0.5 38.4549 0.5 30.2953C0.5 13.8352 13.7122 0.5 30 0.5C46.2878 0.5 59.5 13.8352 59.5 30.2953Z" fill="white" stroke="#E0E0E0"/>
<path d="M25.8984 36H21.9375V23.3906L18.0469 24.5273V21.5273L25.5352 18.9375H25.8984V36ZM41.4727 29.332H43.207V32.3789H41.4727V36H37.5234V32.3789H30.9258L30.6914 29.9648L37.5234 18.9727V18.9375H41.4727V29.332ZM34.4531 29.332H37.5234V24.082L37.2773 24.4805L34.4531 29.332ZM20.4902 46.8633C20.8848 46.4219 21.1484 46.0039 21.2812 45.6094C21.418 45.2109 21.5 44.7031 21.5273 44.0859L21.6094 41.6602H26.0098V46.8633H26.8887V49.8867H25.4707V48H21.4043V49.8867H19.9629L19.9688 46.8633H20.4902ZM22.1602 46.8633H24.5918V42.8848H22.9922L22.9512 44.0977C22.8965 45.2617 22.6328 46.1836 22.1602 46.8633ZM30.6973 48.1172C29.7949 48.1172 29.0625 47.834 28.5 47.2676C27.9414 46.6973 27.6621 45.9395 27.6621 44.9941V44.8184C27.6621 44.1855 27.7832 43.6211 28.0254 43.125C28.2715 42.625 28.6152 42.2363 29.0566 41.959C29.498 41.6816 29.9902 41.543 30.5332 41.543C31.3965 41.543 32.0625 41.8184 32.5312 42.3691C33.0039 42.9199 33.2402 43.6992 33.2402 44.707V45.2812H29.0977C29.1406 45.8047 29.3145 46.2188 29.6191 46.5234C29.9277 46.8281 30.3145 46.9805 30.7793 46.9805C31.4316 46.9805 31.9629 46.7168 32.373 46.1895L33.1406 46.9219C32.8867 47.3008 32.5469 47.5957 32.1211 47.8066C31.6992 48.0137 31.2246 48.1172 30.6973 48.1172ZM30.5273 42.6855C30.1367 42.6855 29.8203 42.8223 29.5781 43.0957C29.3398 43.3691 29.1875 43.75 29.1211 44.2383H31.834V44.1328C31.8027 43.6562 31.6758 43.2969 31.4531 43.0547C31.2305 42.8086 30.9219 42.6855 30.5273 42.6855ZM36.6035 45.4922H35.8828V48H34.459V41.6602H35.8828V44.1914H36.5098L38.2617 41.6602H40.0195L37.7285 44.6953L40.2129 48H38.3613L36.6035 45.4922Z" fill="#EB1C24"/>
</svg>
