<svg width="58" height="32" viewBox="0 0 58 32" fill="none" xmlns="http://www.w3.org/2000/svg">
<path d="M1.15239 31.2347C1.66932 31.4525 2.59981 31.3936 3.28476 31.3985C7.37862 31.4362 11.3275 31.3985 15.45 31.41C16.7725 31.4165 18.4196 31.5328 19.475 31.1855C19.8842 31.0479 20.4644 30.8006 20.7889 30.0422C24.3299 28.8578 27.8882 27.6309 31.4177 26.4761C31.1406 27.59 30.4212 28.4549 29.6845 29.1887C29.4878 29.3853 29.64 29.6769 29.5223 29.9521C29.2652 29.8964 29.1934 29.4623 28.856 29.6458C28.7986 29.6769 28.665 29.9357 28.6291 30.0078C28.4424 30.4058 28.1797 31.4738 28.2227 31.9554C28.4726 32.2519 29.6572 30.9824 29.7692 30.7007C29.8755 30.4255 30.1713 30.3321 30.4039 30.1601C30.6007 30.016 30.8835 29.6818 30.9668 29.4361C31.3359 28.3533 31.814 27.436 32.7359 26.9036C32.8824 26.7791 36.5038 24.7365 36.5713 24.7004C36.6689 24.6513 37.0107 24.5481 37.0739 24.5252C37.6425 24.3122 38.1638 24.1533 38.7295 23.9469C39.1675 23.7864 39.683 23.4866 40.1798 23.7078C40.8691 24.0141 41.8024 24.1271 42.7717 24.1762C43.1838 24.1975 43.6246 24.1124 43.952 24.0698C45.3363 23.8929 46.1447 23.8732 47.6094 23.159C47.9296 23.0034 48.8414 22.8068 49.1559 22.9723C49.535 23.1656 49.8839 23.4227 50.3262 23.6013C50.4468 23.6521 51.0485 23.9436 51.0542 23.9993C51.0642 24.1156 50.5674 24.3613 50.4712 24.3974C50.1697 24.5088 49.8164 24.5792 49.5192 24.6202C49.1616 24.6693 48.9965 24.5825 48.6878 24.7381C48.5542 24.8053 48.2426 25.259 48.1048 25.1706C48.0172 25.1132 47.9827 24.6726 47.9296 24.5497C47.7357 24.114 47.0982 24.5612 46.8928 24.7152C46.6085 24.9822 46.3414 25.2787 46.0945 25.5915C45.9466 25.7848 45.9035 25.9552 46.228 26.0355C47.1714 26.3352 48.3202 26.0715 49.3138 25.9077C49.7446 25.8372 50.0031 25.6734 50.3592 25.567C51.0097 25.3737 52.124 25.1509 52.3566 24.4809C52.4715 24.15 52.5734 23.6734 52.3465 23.3834C52.0392 22.9886 51.5941 22.6234 51.2811 22.2843C50.8316 21.8486 51.3529 21.6258 51.5783 21.3129C51.663 21.1982 51.7133 21.1442 51.8569 21.1606C52.5418 21.2425 53.1679 21.1819 53.8241 21.1262C54.2161 21.0918 54.4789 20.9902 54.8997 21.1262C55.2428 21.2359 55.4798 22.073 55.6277 22.435C55.7311 22.6889 55.6822 23.105 55.7914 23.4178C55.8416 23.5554 55.8675 23.6455 55.9249 23.8159C55.9666 23.942 56.1489 23.9666 56.1906 24.096C56.2882 24.3876 55.8445 24.5858 55.8014 24.8331C55.7856 24.9199 55.8876 25.1378 55.9364 25.2197C56.202 25.6849 56.8812 26.2926 57.3939 26.4155C57.5849 25.7422 57.1455 24.7021 56.9904 24.1779C56.8841 23.8126 57.0392 23.4064 56.9315 23.0443C56.7219 22.3629 56.2681 21.747 56.0269 21.1278C56.0283 20.8248 55.9694 20.5922 55.8732 20.4038C55.7109 20.1106 55.4266 19.8173 55.0949 19.6666C54.7733 19.5225 54.1673 19.434 53.7121 19.3865C53.4924 19.3636 53.2756 19.3194 53.1162 19.3046C52.7515 19.267 52.4284 19.1769 52.1225 19.0016C52.2475 18.2497 52.19 17.1457 52.2561 16.3234C52.9051 16.5117 53.5039 16.4609 53.9993 16.2185C54.3123 16.0662 54.7977 15.5502 55.0504 15.2602C55.2141 15.0751 55.5214 14.4527 55.6593 14.4183C55.9091 14.356 56.1245 14.8114 56.3858 14.8049C56.8008 14.795 56.7678 14.3446 56.9588 14.1021C57.1426 13.8761 57.5834 13.94 57.3407 13.3552C57.3551 13.2929 57.4384 13.3109 57.4642 13.2618C57.6768 12.3789 56.6745 12.3674 56.0786 12.1283C55.6722 11.9644 55.1983 11.5336 54.9111 11.2388C54.6412 10.9931 54.6383 10.8555 54.4287 10.7605C54.275 10.69 54.0668 10.7867 53.883 10.7359C53.6331 10.6671 53.402 10.3837 53.188 10.2576C53.1937 10.0053 53.1363 9.74487 53.0746 9.53356C54.2047 9.49097 55.9809 9.85953 56.9889 9.34518C57.0981 9.28948 57.3077 9.19939 57.3393 9.0536C57.4269 8.59494 56.6386 8.86195 56.4462 8.9373C56.1417 9.05524 55.418 9.47622 55.2787 9.00774C55.4152 8.35087 56.0671 8.20508 56.4059 7.77918C56.6012 7.53347 56.4505 7.14853 56.1188 7.3926C55.6004 7.77591 55.2299 8.62279 54.644 8.88979C54.6182 8.53106 54.8393 7.54658 54.3253 7.86109C54.2994 8.49666 54.3569 8.90617 53.8342 9.0536C53.3618 9.18628 52.9123 9.11257 52.8692 8.63426C52.6294 8.47864 52.3092 9.01756 52.3264 8.51631C52.3394 8.18542 52.6136 8.04783 52.7587 7.75625C53.0387 7.19276 52.9066 6.39829 52.7773 5.81514C52.717 5.53012 52.348 4.89782 52.1426 5.42856C51.9818 5.85282 52.3351 6.30984 52.4011 6.5621C52.5418 7.11904 52.4657 7.7366 52.2446 7.95282C51.8052 8.1756 51.5726 7.43191 51.4161 7.02895C51.1705 6.40484 50.5961 5.32044 50.0634 5.08784C49.479 4.83558 49.3354 5.49408 49.6125 5.85937C50.1036 6.50804 50.7857 6.94869 51.1906 7.67107C50.589 7.92989 50.0261 5.81514 49.3454 6.35079C48.9549 7.08137 50.375 7.23535 50.6478 7.83652C50.7168 7.98722 50.8244 8.18215 50.7929 8.38691C50.6493 9.26819 49.0927 8.9848 48.3331 8.68504C47.5462 8.39346 46.5453 7.44174 46.4893 7.20422C46.5769 7.05024 46.7808 6.96507 46.7133 6.66694C46.541 6.34751 46.2826 6.76522 46.1074 6.72427C46.0485 6.70953 45.8188 6.30001 45.79 6.23285C45.5344 5.65625 45.1582 4.6947 45.3894 4.02146C45.5172 3.63651 46.62 2.94033 46.9689 2.04595C47.1815 1.50047 47.5218 0.13596 46.8053 0C46.3759 0.0540562 46.4578 1.83136 46.2208 2.56194C46.1304 2.83713 45.6996 3.02223 45.6263 2.72411C45.6077 2.18027 45.8101 1.46279 45.6364 0.912403C45.5617 0.679797 45.388 0.142512 45.0419 0.350546C44.7246 0.706007 45.5617 2.18518 45.164 3.01568C45.0692 3.21553 44.772 3.2532 44.6212 3.08612C43.8458 2.22122 44.2909 0.976287 44.1602 0.561856C44.0813 0.319422 43.7826 0.35546 43.6763 0.620827C43.4753 1.12863 43.4997 1.9968 43.6663 2.444C43.7754 2.76506 44.0813 3.1713 44.479 3.67255C44.6844 3.94283 45.1554 4.85523 44.7045 5.07473C44.3929 5.22707 43.9664 5.0387 43.7797 4.94697C43.1824 4.64884 42.0121 3.95757 42.2935 2.92395C42.328 2.79946 42.6453 2.01482 42.2145 2.04595C41.9633 2.06396 42.1183 2.89119 41.9044 3.04025C41.3343 3.38589 41.2525 2.53082 41.0543 1.90671C40.9825 1.68066 40.8547 1.0844 40.6049 1.12371C40.2789 1.17449 40.2545 1.62496 40.4598 2.23432C40.9638 3.44977 41.824 4.40968 42.9727 5.0174C43.8128 5.46132 44.6686 5.77583 45.3262 6.46546C45.4899 6.63909 45.8044 6.93067 45.8417 7.08628C45.9308 7.47614 45.5933 7.67435 45.523 7.69564C45.3133 7.75789 45.3865 7.15836 45.3593 7.02895C45.286 6.69642 45.0821 6.56374 44.9285 6.80781C44.7906 7.02567 45.1266 7.38113 45.1151 7.61702C45.1051 7.74642 45.0649 7.85126 44.9787 7.85945C44.3771 7.89549 44.1373 7.18293 43.7194 6.93558C43.5112 6.81272 43.3116 6.92411 43.3288 7.19276C43.3705 7.55149 43.7769 7.76936 44.077 7.91678C44.4202 8.08714 45.0893 8.3476 45.1539 8.78168C45.2157 9.20922 44.2206 9.13059 43.9664 9.02739C43.5701 8.87505 43.2384 8.75711 42.8808 8.60805C42.6697 8.52123 42.1069 8.10188 42.183 7.73168C42.2189 7.56296 42.4701 7.28285 42.5821 7.1944C42.8449 6.988 43.4983 6.6997 43.629 6.377C43.7022 6.19517 43.6577 5.80204 43.3705 5.87411C42.9641 5.9724 42.6942 6.89954 42.3266 7.06499C42.1988 7.12396 41.8197 7.11904 41.7651 7.03059C41.5325 6.67677 41.8412 6.2263 41.8771 5.95438C41.8828 5.50391 41.4693 5.47606 41.4032 5.82661C41.33 6.4933 41.488 7.04533 40.8203 6.91428C40.658 6.88152 40.4383 6.62435 40.3995 6.42286C40.3349 6.08706 40.3852 5.43183 40.2559 5.06654C40.2229 4.97154 40.1568 4.71108 40.0104 4.62099C39.4202 4.25734 39.3513 5.44494 39.5193 5.94291C39.6586 6.35898 40.1138 6.96834 40.4512 7.15836C40.8533 7.38605 41.297 7.42209 41.6402 7.77755C41.7177 7.85617 41.801 8.10188 41.6502 8.13956C41.3989 8.20181 40.8188 7.81195 40.5848 7.68254C40.401 7.58098 40.1209 7.39096 39.8998 7.23535C39.5308 6.97653 38.7281 6.1706 38.3993 5.65789C38.2341 5.3958 38.0518 5.05016 37.9699 4.75695C37.8622 4.34579 37.6597 3.67582 37.3453 3.41373C37.1313 3.23682 36.9418 3.322 36.8542 3.4383C36.623 3.75117 36.9863 4.49322 37.0897 4.74712C37.3467 5.37122 38.0374 6.0199 38.5673 6.53589C39.4647 7.40734 40.3737 8.06093 41.5985 8.58184C41.8785 8.69978 42.1629 8.9029 42.4587 9.00282C43.6261 9.39268 44.7002 9.65805 46.0772 9.86772C46.7291 9.966 47.5347 9.83987 48.2498 9.78582C48.919 9.7334 49.4718 9.48114 50.1266 9.48114C49.6326 9.96928 50.6421 10.4754 50.6478 10.826C50.6507 10.9832 50.3578 11.2519 50.2903 11.3747C50.1237 11.6827 50.0002 11.9071 49.8293 12.1938C49.4014 11.6139 48.5097 10.4558 47.6884 11.0586C47.5103 11.188 47.3796 11.4566 47.3164 11.6205C47.058 12.2937 47.2748 13.4305 47.4629 14.0284C47.4974 14.1447 47.7156 14.5903 47.6884 14.6705C47.6352 14.813 47.259 14.7508 47.1657 14.7443C46.5367 14.6967 45.724 14.4445 45.0821 14.718C44.3728 15.0244 43.3202 16.0514 43.1192 16.1366C42.8435 16.4675 40.938 16.6542 39.6212 16.5199C38.0561 16.3594 36.59 16.153 35.1928 15.8287C34.449 15.6583 33.7253 15.524 33.0303 15.3733C30.5877 14.8425 27.7848 15.0932 25.4988 15.7943C24.8928 15.9794 17.0325 17.8058 16.5098 17.4667C16.4437 17.375 16.4868 17.2095 16.448 17.1031C16.1221 16.1972 15.1758 17.1784 14.7436 17.1932C14.6833 17.2341 14.3099 17.3144 14.1333 17.2472C13.9409 17.1457 13.9595 17.0867 13.9595 17.0867C13.8777 16.8295 13.5072 16.7705 13.3866 16.9065C13.22 17.0425 13.1324 17.126 12.9716 17.3439C12.594 17.9778 12.3728 18.1875 11.899 18.4381C11.8114 18.4856 11.7697 18.6003 11.6635 18.579C11.484 18.5429 11.4481 18.0695 11.2025 18.0646C11.237 17.9598 11.2226 17.7485 11.1293 17.7141C11.0446 17.6829 10.9355 17.8255 10.8335 17.7485C10.7962 17.7206 10.7603 17.5716 10.7215 17.5617C10.6411 17.5421 10.5147 17.7321 10.4544 17.5732C10.6253 17.3488 10.4573 16.9917 10.4544 16.8246C10.4515 16.6117 10.6583 16.2316 10.3424 16.1104C10.1945 16.0547 9.87142 16.2251 9.86998 15.9712C9.86998 15.868 9.9547 15.8336 9.96188 15.7484C9.97481 15.5797 9.83121 15.5109 9.81829 15.3978C9.78813 15.1374 9.93173 15.0276 9.88291 14.7524C9.8427 14.5264 9.71346 14.284 9.33294 14.2168C9.21089 14.1971 9.10319 14.2643 9.02996 14.2528C8.79877 14.2168 8.57045 13.8187 8.36368 13.691C7.26806 12.8244 5.36113 13.252 4.95045 14.5313C4.89732 14.6967 4.87291 14.9277 4.82696 15.0588C4.69198 15.4568 4.3933 15.94 3.84334 15.6665C3.29194 15.3913 3.26753 14.4527 2.05559 14.6509C1.57742 14.7197 0.671344 14.9572 0.922634 15.6894C1.2687 16.6968 2.2997 15.9237 2.52514 15.2144C2.57827 15.0522 2.72761 14.9162 2.91141 15.1865C3.2144 15.6337 3.6179 16.3577 4.13196 16.5199C4.4809 16.6297 4.82409 16.4986 5.04379 16.3659C5.45877 16.117 5.65119 15.4716 5.86371 15.0686C5.98863 15.2144 5.91827 15.429 5.88524 15.6534C5.81201 16.1169 6.20546 16.361 6.18249 16.3725C6.15233 16.3905 6.11069 16.3758 5.9872 16.4495C5.54924 16.8492 5.94555 17.3865 6.17243 17.6305C6.40218 17.8779 6.08341 17.9893 6.18249 18.2251C5.87519 18.2825 5.47026 17.6977 4.68624 17.5355C4.26407 17.4503 4.17504 17.6207 4.00991 17.5142C3.63082 17.2685 3.98406 16.1153 3.38958 16.1677C3.11675 16.2611 3.3824 16.6313 2.98608 16.4265C2.71899 16.3496 2.60412 16.5822 2.61417 16.8656C2.59694 17.2046 2.29683 16.7001 2.11303 16.9786C2.04985 17.0785 2.10729 17.2177 2.13888 17.2734C2.27529 17.5077 2.46196 17.5486 2.62566 17.8074C2.97316 18.348 2.49499 18.425 2.27673 18.918C1.88041 19.819 1.95364 20.8985 1.93928 22.0156C1.70235 22.0058 1.31321 21.9796 1.12367 22.1041C0.972895 22.2007 0.885302 22.4301 0.876687 22.5234C0.802018 23.3146 1.10643 24.0026 1.27731 24.4105C1.81722 25.7062 3.05501 26.6628 4.18366 27.1379C3.31348 27.3918 2.58833 28.545 3.06506 29.7571C3.24312 30.2125 3.50876 30.4681 3.84334 30.7875C2.80372 30.8612 1.78276 30.7875 1.46542 30.6794C0.977199 30.5139 0.750321 30.3485 0.603855 30.0356C0.250613 29.2837 1.19546 28.7465 1.77271 28.984C2.04841 29.0986 2.24801 29.5917 1.94646 29.767C1.99528 29.5868 1.968 29.5295 1.92636 29.405C1.7124 29.0724 1.13372 29.1281 1.11649 29.6032C1.08633 30.3681 2.40596 30.3108 2.4275 29.5557C2.38155 28.6252 1.34768 28.278 0.634013 28.7121C0.418621 28.8382 0.219024 29.0446 0.111328 29.3214C-0.27494 30.3075 0.410004 30.93 1.15239 31.2347ZM49.0195 9.26983C47.305 9.80384 46.0284 9.63512 45.7096 9.37466C44.9414 8.75875 46.2653 7.60883 46.2653 7.60883C46.2653 7.60883 47.5606 8.98808 49.0195 9.26983ZM52.5203 14.3642C52.5232 14.3659 52.526 14.3675 52.5289 14.3708C52.5318 14.3659 52.5347 14.3593 52.5375 14.3528C53.1751 14.8737 54.3296 14.9621 55.0475 14.528C54.7604 14.8851 54.4143 15.2488 53.9964 15.5043C53.5183 15.8008 52.9468 15.9613 52.2532 15.8139C52.2302 15.2996 52.3221 14.7082 52.5203 14.3642ZM48.491 12.1201C48.6648 11.8629 48.8529 11.9759 48.9994 12.0562C49.1386 12.1332 49.568 12.5148 49.5579 12.7163C49.5522 12.8031 49.377 13.0685 49.3225 13.1717C49.1257 13.5304 48.7739 13.9793 48.491 14.2119C48.4551 14.1054 48.1134 12.8736 48.491 12.1201ZM28.7713 15.7926C24.709 16.8705 25.3911 16.6772 23.7067 17.1801C19.4592 18.4463 18.3047 18.3971 16.3245 18.4463C16.4739 18.0826 16.4925 17.8255 16.4925 17.8255C19.2338 17.9336 24.798 16.4184 25.2374 16.3021C26.3531 16.0088 27.6785 15.8024 28.7713 15.7926ZM37.1227 23.9764C37.341 23.7061 37.598 23.2491 37.8838 22.9936C38.013 22.8822 38.1695 22.6627 38.2844 22.6184C38.5357 22.5267 38.8932 22.9788 39.0741 23.0984C39.4819 23.3654 37.2749 23.8912 37.1227 23.9764ZM17.2134 22.5382C16.7883 21.6831 17.0712 20.6921 17.7763 20.3989C18.1238 20.2301 18.6895 20.3645 18.8834 20.7494C18.7154 20.6347 18.4066 20.6855 18.2272 20.8084C18.1956 20.8084 17.7791 21.2425 18.1381 21.7126C18.5747 22.1975 19.0298 21.6766 19.0571 21.6733C19.5439 21.0508 19.0887 20.2416 18.5244 19.932C18.2975 19.8059 17.9299 19.7584 17.7906 19.778C17.4704 19.8206 17.1818 19.95 17.0167 20.0991C16.9808 20.0958 16.2973 20.6921 16.5155 21.7912C16.7539 22.7298 16.9894 23.1393 17.5695 24.2237C17.9242 24.9035 18.533 25.7177 18.2372 26.6661C17.8323 27.495 16.6591 27.6096 15.6324 27.6129C15.72 27.4884 16.0316 27.6227 16.0632 27.4393C16.0014 27.3066 15.766 27.3738 15.6539 27.3C15.7286 27.1248 16.1249 27.3623 16.1867 27.1346C16.1623 27.0691 16.0804 27.0691 16.0618 26.9954C16.2269 26.961 16.4437 26.8496 16.247 26.6923C16.4021 26.6039 16.7424 26.7267 16.6979 26.4122C16.6634 26.3418 16.5773 26.3319 16.5026 26.3057C16.4351 26.0862 16.6749 26.1206 16.6677 25.9306C16.7209 25.8798 16.8257 25.888 16.8831 25.8389C16.9061 25.4916 16.5155 25.6996 16.3805 25.7684C16.4566 25.5195 16.751 25.4195 16.8113 25.1132C16.8027 25.1116 16.7998 25.105 16.8013 25.0919C16.6735 25.0641 16.5902 25.2426 16.4322 25.1837C16.4638 24.9707 16.494 24.2794 16.2068 24.5759C16.168 24.399 15.977 24.4367 15.9498 24.6005C15.8521 24.4662 15.6898 24.4056 15.5204 24.3564C15.4601 24.5841 15.6525 24.6251 15.664 24.8102C15.2964 24.9232 15.384 24.1533 15.3653 23.7635C15.338 23.1328 14.6172 22.589 14.6172 22.589C13.9552 22.1369 12.8165 21.9223 11.9636 22.0861C11.9449 22.0304 11.8372 21.6078 11.4107 21.4669C12.0943 21.2621 12.6413 20.8985 13.1841 20.5315C13.4713 20.5807 13.7915 20.3137 13.8188 20.0876C13.8332 19.9648 13.7786 19.7829 13.9308 19.7731C14.5856 19.7223 15.0365 19.4914 15.2691 19.3554C15.4141 19.2702 15.8176 18.9049 15.9368 18.8787C16.4868 18.7608 18.0118 18.7919 18.029 18.7821C21.0919 18.846 28.5142 16.1874 29.8985 16.2414C30.2173 16.2529 30.582 16.2218 30.9108 16.2529C33.2212 16.4659 35.6207 16.6264 37.8809 16.8852C37.2175 16.9655 36.6517 17.2358 36.2425 17.4929C35.5733 17.9123 34.8151 16.9966 34.5007 17.1882C33.9837 17.5093 34.515 18.3005 34.6443 18.4643C34.851 18.7329 34.7477 19.072 34.6141 19.3292C34.4404 19.6601 34.0756 20.7527 34.3068 21.5848C33.8172 21.9649 33.0073 21.7535 32.5018 21.5144C32.3956 21.4587 31.5326 21.1081 31.4163 21.6209C31.4062 21.6716 31.2698 22.0582 31.1822 22.2171C31.1348 22.2925 30.8117 22.8134 30.5834 23.105C30.4082 23.3343 30.213 23.5816 30.022 23.7602C29.5768 24.1762 28.9895 24.4858 28.8517 25.2148C28.6966 25.1493 28.7052 24.6955 28.5171 24.5858C28.3017 24.5137 28.1222 24.743 27.993 24.8479C27.6527 25.1181 27.4186 25.5539 27.2434 25.9077C27.1085 26.1763 26.9103 26.4155 27.2535 26.5154C27.6627 26.6366 28.7957 26.083 29.0082 26.0404C29.3227 25.8733 29.9775 25.6767 30.167 25.2934C30.2603 25.0952 30.335 24.8921 30.4628 24.707C30.4915 24.6775 30.9079 23.8912 31.1607 23.6078C31.2741 23.4522 31.9906 22.8085 32.5736 23.1525C32.7574 23.2606 33.8416 23.6635 33.8459 23.7602C33.8473 23.7913 33.6046 24.096 33.5372 24.1926C33.1652 24.7365 32.5693 24.9461 32.0811 25.3032C31.8873 25.4474 31.8255 25.6849 31.6618 25.8061C31.3545 26.0322 21.9046 29.0135 20.8722 29.3493C20.6639 25.526 17.8452 23.9895 17.2134 22.5382ZM19.765 27.9618C19.4793 27.7472 19.3271 27.7145 19.1304 27.6326C19.0112 27.5818 18.5991 27.472 18.5976 27.2984C18.5976 27.2312 18.6579 27.0658 18.6795 27.0101C18.9925 26.1993 18.5818 25.4441 18.3521 24.784C19.004 25.6259 19.7148 26.4663 19.765 27.9618ZM16.9664 30.8022C17.5192 30.2879 17.0454 28.6023 17.5709 28.0568C18.1324 27.5933 18.7312 27.7734 19.093 27.9766C19.5181 28.2075 19.6717 29.0544 19.2926 29.4344C18.9537 29.7162 18.174 29.6458 18.2171 29.0806C18.3449 29.572 19.093 29.4132 19.1189 28.9201C19.1505 28.3402 18.3277 28.0323 17.9917 28.8497C17.8581 29.1789 17.9787 29.4869 18.1367 29.7031C18.4066 30.0176 18.6881 29.993 19.0069 29.9832C18.5976 30.5434 17.7375 30.7727 16.9664 30.8022ZM15.0107 29.6097C15.1471 29.3198 15.6769 29.2461 15.8306 29.5278C14.9719 29.3902 15.2548 30.6532 15.9842 30.3256C16.7438 29.9783 16.1508 28.6252 15.1327 29.1314C15.2533 28.5908 14.9374 28.2878 14.5799 28.029H16.9161C16.527 28.7104 17.12 30.4992 16.3116 30.6892C15.5592 30.8596 14.6201 30.4238 15.0107 29.6097ZM12.795 30.8284C13.3852 30.3518 12.8338 29.4181 13.3593 28.5466C13.8375 27.8783 15.0868 28.3533 14.7622 29.2821C14.6344 29.5671 14.1879 29.5753 14.0342 29.3984C14.3702 29.4279 14.5727 29.2887 14.5569 28.907C14.5052 28.5384 13.9638 28.296 13.6953 28.8595C13.467 29.4918 14.0629 29.8276 14.5784 29.7588C14.4851 30.283 14.7507 30.5926 14.9676 30.8252H12.795V30.8284ZM10.9599 30.3354C10.5492 29.7178 10.9742 29.287 10.9871 29.2477C11.0862 29.1134 11.4423 28.8857 11.7755 29.138C11.8616 29.21 11.9133 29.3722 11.8832 29.4443C11.7252 29.2657 11.5472 29.1838 11.3605 29.328C11.0015 29.6081 11.2758 30.1814 11.7697 30.1126C11.9507 30.088 12.1057 29.8947 12.1574 29.7817C12.571 28.8709 11.3418 28.2812 10.6942 29.0364C10.5937 28.5712 10.374 28.2927 10.0193 28.0257L13.1755 28.0372C12.6658 28.4549 12.8381 29.9586 12.581 30.3452C12.2292 30.8399 11.3045 30.7809 10.9599 30.3354ZM7.80366 30.8284C8.33353 30.3665 7.9329 29.0249 8.56184 28.4991C8.87918 28.2419 9.52105 28.2681 9.88291 28.4451C10.4113 28.7039 10.4759 29.7326 9.8628 29.9259C9.4593 30.0553 9.01703 29.8472 9.06442 29.4361C9.23099 29.9668 10.0825 29.7047 9.85419 29.1347C9.75941 28.8972 9.49233 28.7104 9.17211 28.8218C8.91939 28.9316 8.83897 29.1543 8.81169 29.2968C8.60922 30.3927 9.89152 30.586 10.3553 30.0209C10.4774 30.3731 10.6368 30.6548 10.9398 30.8301C10.005 30.8481 8.70974 30.8465 7.80366 30.8284ZM6.09346 29.7621C6.14802 29.459 6.63768 29.2723 6.83153 29.5393C6.5745 29.5393 6.43378 29.6081 6.38639 29.8718C6.33326 30.1568 6.58168 30.5287 7.02682 30.3108C7.54089 29.9635 7.21923 29.0462 6.55439 29.1429C6.7425 28.8611 6.82722 28.5532 6.71091 28.0372L8.33783 28.0421C7.67874 28.3943 7.87402 29.726 7.58253 30.3321C7.24652 30.8825 5.9513 30.8137 6.09346 29.7621ZM4.55557 27.7505C5.09692 27.3115 6.24279 27.4475 6.4108 28.1125C6.52998 28.5876 6.49696 29.0593 5.98002 29.1773C6.23561 28.4238 5.10553 28.1011 4.97343 28.9152C4.8887 29.4377 5.27928 29.7195 5.78616 29.5868C5.64401 30.0094 5.79478 30.4877 6.02166 30.6728C5.66411 30.6614 5.36687 30.627 5.09117 30.5041C4.45074 30.2207 4.16643 29.6883 4.07596 29.2362C3.9338 28.5417 4.20807 28.0355 4.55557 27.7505Z" fill="white"/>
</svg>
